<svg width="24" height="24" viewBox="0 0 24 24" fill="none" xmlns="http://www.w3.org/2000/svg">
<path d="M9.7085 16.125H2.37516C1.8689 16.125 1.4585 16.5354 1.4585 17.0417V21.625C1.4585 22.1313 1.8689 22.5417 2.37516 22.5417H9.7085C10.2148 22.5417 10.6252 22.1313 10.6252 21.625V17.0417C10.6252 16.5354 10.2148 16.125 9.7085 16.125Z" fill="#FF808C"/>
<path d="M6.04183 16.125H2.37516C2.13204 16.125 1.89889 16.2216 1.72698 16.3935C1.55507 16.5654 1.4585 16.7986 1.4585 17.0417V21.625C1.4585 21.8681 1.55507 22.1013 1.72698 22.2732C1.89889 22.445 2.13204 22.5417 2.37516 22.5417H6.04183V16.125Z" fill="#FFBFC5"/>
<path d="M14.2917 22.5417H21.625C22.1313 22.5417 22.5417 22.1313 22.5417 21.625V11.5417C22.5417 11.0354 22.1313 10.625 21.625 10.625H14.2917C13.7854 10.625 13.375 11.0354 13.375 11.5417V21.625C13.375 22.1313 13.7854 22.5417 14.2917 22.5417Z" fill="#78EB7B"/>
<path d="M17.9583 10.625H14.2917C14.0486 10.625 13.8154 10.7216 13.6435 10.8935C13.4716 11.0654 13.375 11.2986 13.375 11.5417V21.625C13.375 21.8681 13.4716 22.1013 13.6435 22.2732C13.8154 22.445 14.0486 22.5417 14.2917 22.5417H17.9583V10.625Z" fill="#C9F7CA"/>
<path d="M14.2917 7.87498H21.625C22.1313 7.87498 22.5417 7.46457 22.5417 6.95831V2.37498C22.5417 1.86872 22.1313 1.45831 21.625 1.45831H14.2917C13.7854 1.45831 13.375 1.86872 13.375 2.37498V6.95831C13.375 7.46457 13.7854 7.87498 14.2917 7.87498Z" fill="#FFEF5E"/>
<path d="M17.9583 1.45831H14.2917C14.0486 1.45831 13.8154 1.55489 13.6435 1.7268C13.4716 1.89871 13.375 2.13186 13.375 2.37498V6.95831C13.375 7.20143 13.4716 7.43459 13.6435 7.6065C13.8154 7.7784 14.0486 7.87498 14.2917 7.87498H17.9583V1.45831Z" fill="#FFF7AE"/>
<path d="M9.7085 1.45831H2.37516C1.8689 1.45831 1.4585 1.86872 1.4585 2.37498V12.4583C1.4585 12.9646 1.8689 13.375 2.37516 13.375H9.7085C10.2148 13.375 10.6252 12.9646 10.6252 12.4583V2.37498C10.6252 1.86872 10.2148 1.45831 9.7085 1.45831Z" fill="#78EB7B"/>
<path d="M6.04183 1.45831H2.37516C2.13204 1.45831 1.89889 1.55489 1.72698 1.7268C1.55507 1.89871 1.4585 2.13186 1.4585 2.37498V12.4583C1.4585 12.7014 1.55507 12.9346 1.72698 13.1065C1.89889 13.2784 2.13204 13.375 2.37516 13.375H6.04183V1.45831Z" fill="#C9F7CA"/>
<path d="M9.7085 16.125H2.37516C1.8689 16.125 1.4585 16.5354 1.4585 17.0417V21.625C1.4585 22.1313 1.8689 22.5417 2.37516 22.5417H9.7085C10.2148 22.5417 10.6252 22.1313 10.6252 21.625V17.0417C10.6252 16.5354 10.2148 16.125 9.7085 16.125Z" stroke="#191919" stroke-linecap="round" stroke-linejoin="round"/>
<path d="M14.2917 22.5417H21.625C22.1313 22.5417 22.5417 22.1313 22.5417 21.625V11.5417C22.5417 11.0354 22.1313 10.625 21.625 10.625H14.2917C13.7854 10.625 13.375 11.0354 13.375 11.5417V21.625C13.375 22.1313 13.7854 22.5417 14.2917 22.5417Z" stroke="#191919" stroke-linecap="round" stroke-linejoin="round"/>
<path d="M14.2917 7.87498H21.625C22.1313 7.87498 22.5417 7.46457 22.5417 6.95831V2.37498C22.5417 1.86872 22.1313 1.45831 21.625 1.45831H14.2917C13.7854 1.45831 13.375 1.86872 13.375 2.37498V6.95831C13.375 7.46457 13.7854 7.87498 14.2917 7.87498Z" stroke="#191919" stroke-linecap="round" stroke-linejoin="round"/>
<path d="M9.7085 1.45831H2.37516C1.8689 1.45831 1.4585 1.86872 1.4585 2.37498V12.4583C1.4585 12.9646 1.8689 13.375 2.37516 13.375H9.7085C10.2148 13.375 10.6252 12.9646 10.6252 12.4583V2.37498C10.6252 1.86872 10.2148 1.45831 9.7085 1.45831Z" stroke="#191919" stroke-linecap="round" stroke-linejoin="round"/>
</svg>
