<?xml version="1.0" encoding="UTF-8"?>
<svg id="Layer_1" data-name="Layer 1" xmlns="http://www.w3.org/2000/svg" viewBox="0 0 256 256">
  <defs>
    <style>
      .cls-1 {
        fill: #ef702d;
      }

      .cls-2 {
        fill: #aac3cf;
      }

      .cls-3 {
        fill: #2c3b73;
      }

      .cls-4 {
        fill: #fff5f5;
      }

      .cls-5 {
        fill: #9dcee2;
      }

      .cls-6 {
        fill: #cce7a4;
      }
    </style>
  </defs>
  <path class="cls-5" d="m31,35h192v7.71c0,4.26-3.45,7.71-7.71,7.71H38.71c-4.26,0-7.71-3.45-7.71-7.71v-7.71h0Z"/>
  <path class="cls-2" d="m46.61,50.42h160.77v126.08H46.61V50.42Z"/>
  <path class="cls-4" d="m62.04,65.84h64.96v95.23H62.04v-95.23Z"/>
  <path class="cls-6" d="m133.84,227h-13.67c-6.09,0-11.03-4.94-11.03-11.03h0c0-6.1,4.94-11.03,11.03-11.03h13.67c6.09,0,11.03,4.94,11.03,11.03,0,6.09-4.94,11.03-11.03,11.03Z"/>
  <path class="cls-3" d="m120.83,176.5h12.34v28.44h-12.34v-28.44Z"/>
  <path class="cls-6" d="m127,149.27l-48.53-23.86-16.43,11.71v23.95h64.96v-11.81Z"/>
  <circle class="cls-1" cx="101.62" cy="104.82" r="8.6"/>
  <g>
    <path class="cls-4" d="m191.96,68.55h-49.53c-1.49,0-2.7-1.21-2.7-2.7s1.21-2.7,2.7-2.7h49.53c1.49,0,2.7,1.21,2.7,2.7s-1.21,2.7-2.7,2.7Z"/>
    <path class="cls-4" d="m187.63,82.15h-40.86c-1.49,0-2.7-1.21-2.7-2.7s1.21-2.7,2.7-2.7h40.86c1.49,0,2.7,1.21,2.7,2.7s-1.21,2.7-2.7,2.7h0Z"/>
    <path class="cls-4" d="m191.96,95.75h-49.53c-1.49,0-2.7-1.21-2.7-2.7s1.21-2.7,2.7-2.7h49.53c1.49,0,2.7,1.21,2.7,2.7s-1.21,2.7-2.7,2.7Z"/>
    <path class="cls-4" d="m187.63,109.36h-40.86c-1.49,0-2.7-1.21-2.7-2.7s1.21-2.7,2.7-2.7h40.86c1.49,0,2.7,1.21,2.7,2.7s-1.21,2.7-2.7,2.7h0Z"/>
    <path class="cls-4" d="m191.96,122.96h-49.53c-1.49,0-2.7-1.21-2.7-2.7s1.21-2.7,2.7-2.7h49.53c1.49,0,2.7,1.21,2.7,2.7s-1.21,2.7-2.7,2.7Z"/>
    <path class="cls-4" d="m187.63,136.57h-40.86c-1.49,0-2.7-1.21-2.7-2.7s1.21-2.7,2.7-2.7h40.86c1.49,0,2.7,1.21,2.7,2.7s-1.21,2.7-2.7,2.7h0Z"/>
    <path class="cls-4" d="m191.96,150.17h-49.53c-1.49,0-2.7-1.21-2.7-2.7s1.21-2.7,2.7-2.7h49.53c1.49,0,2.7,1.21,2.7,2.7s-1.21,2.7-2.7,2.7Z"/>
    <path class="cls-4" d="m187.63,163.78h-40.86c-1.49,0-2.7-1.21-2.7-2.7s1.21-2.7,2.7-2.7h40.86c1.49,0,2.7,1.21,2.7,2.7s-1.21,2.7-2.7,2.7h0Z"/>
  </g>
</svg>