<?xml version="1.0" encoding="utf-8"?>
<!-- Generator: Adobe Illustrator 27.3.1, SVG Export Plug-In . SVG Version: 6.00 Build 0)  -->
<svg version="1.1" id="Layer_1" xmlns="http://www.w3.org/2000/svg" xmlns:xlink="http://www.w3.org/1999/xlink" x="0px" y="0px"
	 viewBox="0 0 256 256" style="enable-background:new 0 0 256 256;" xml:space="preserve">
<style type="text/css">
	.st0{fill:#8FDDE7;}
	.st1{fill:none;stroke:#121777;stroke-width:4;stroke-linecap:round;stroke-linejoin:round;stroke-miterlimit:10;}
	.st2{fill:#FFFFFF;}
	.st3{fill:#1AA4CE;}
	.st4{fill:#D3BBDD;}
	.st5{fill:#FBC12C;}
	.st6{fill:#837CB8;}
	.st7{fill:#78BCEF;}
	.st8{fill:#F25555;}
	.st9{fill:#8EE06C;}
	.st10{fill:#84C7EF;}
	.st11{fill:#FCFCFC;}
	.st12{fill:#F8AFA6;}
	.st13{fill:none;stroke:#FFFFFF;stroke-width:11;stroke-linecap:round;stroke-linejoin:round;stroke-miterlimit:10;}
	.st14{fill:#F13049;}
	.st15{fill:#F5A10F;}
	.st16{fill:#F2C700;}
	.st17{fill:#9CD925;}
	.st18{fill:#00D26F;}
	.st19{fill:#EDC30D;}
	.st20{fill:#FED400;}
	.st21{fill:#CCCCCC;}
	.st22{fill:#A2A2A2;}
	.st23{fill:#FF7A43;}
	.st24{fill:#F26636;}
	.st25{fill:#509DFF;}
	.st26{fill:#F4EDED;}
	.st27{fill:#D8D6D6;}
	.st28{fill:#308CEF;}
	.st29{fill:#D3DC5E;}
	.st30{fill:#1B38AB;}
	.st31{fill:#FE515E;}
	.st32{fill:#020202;}
	.st33{fill:#F83B4D;}
	.st34{fill:url(#SVGID_1_);}
	.st35{fill:url(#SVGID_00000157283331570584634130000016382126869794714275_);}
	.st36{fill:url(#SVGID_00000122683869072537830150000009631802043646933379_);}
	.st37{fill:url(#SVGID_00000057843536392891262470000009176578537098119040_);}
	.st38{fill:url(#SVGID_00000093873884351291148770000016101581447843298212_);}
	.st39{fill:url(#SVGID_00000112601068606602819400000015106566343344425888_);}
	.st40{fill:url(#SVGID_00000155115147732255034320000004575976075863919532_);}
	.st41{fill:url(#SVGID_00000182488461247664256960000002565562216942536124_);}
	.st42{fill:url(#SVGID_00000066493669692738299300000007288923876647421853_);}
	.st43{fill:url(#SVGID_00000079484620853905855010000010453354835975820181_);}
	.st44{fill:url(#SVGID_00000108276269043944300590000000121772789800281014_);}
	.st45{fill:url(#SVGID_00000112603064477386090410000011884346304478349219_);}
	.st46{fill:url(#SVGID_00000081605439475828076520000002701022984641046688_);}
	.st47{fill:url(#SVGID_00000143609767401556850870000011946505728727388860_);}
	.st48{fill:url(#SVGID_00000054254716907447451160000011172932819769513603_);}
	.st49{fill:url(#SVGID_00000133512526391749957740000014120435512662087347_);}
	.st50{fill:url(#SVGID_00000120534842231856485400000006472437423542965898_);}
	.st51{fill:url(#SVGID_00000173120959534635187340000001927844825746524603_);}
	.st52{fill:#033270;}
	.st53{fill:#4091C9;}
	.st54{fill:url(#SVGID_00000171722188045804183960000004814132394934466952_);}
	.st55{fill:url(#SVGID_00000058590021363370233780000007696101062019422643_);}
	.st56{fill:url(#SVGID_00000108274742824662796420000001965166194820583076_);}
	.st57{fill:url(#SVGID_00000106121686669174148620000017809155423973200519_);}
	.st58{fill:url(#SVGID_00000148649327561662604060000017383065293028652697_);}
	.st59{fill:url(#SVGID_00000122704777593220310190000009121852426223807403_);}
	.st60{fill:url(#SVGID_00000176033301885784602860000009436179604416973973_);}
	.st61{fill:#DBDBD9;}
	.st62{fill:#3F3F3E;}
	.st63{fill:url(#SVGID_00000117637759640109293120000014301840092980278405_);}
	.st64{fill:url(#SVGID_00000175315995304741742980000014592307157494984891_);}
	.st65{fill:#232F5F;}
	.st66{fill:url(#SVGID_00000127005634311255486530000012643481914617850758_);}
	.st67{fill:url(#SVGID_00000075849653457226108180000014824289814339521712_);}
	.st68{fill:url(#SVGID_00000169517240983617799080000005764028642777940622_);}
	.st69{fill:url(#SVGID_00000000904825573580896200000003339417563227228841_);}
	.st70{fill:#223265;}
	.st71{fill:url(#SVGID_00000044899588323108425560000001444630316703251598_);}
	.st72{fill:url(#SVGID_00000098933758730582625970000010113457876829823889_);}
	.st73{fill:url(#SVGID_00000003827837522048701000000018260729727573665466_);}
	.st74{fill:url(#SVGID_00000110440791186112359760000002198038575425065362_);}
	.st75{fill:url(#SVGID_00000091735188603879565310000006346408872674706051_);}
	.st76{fill:url(#SVGID_00000160167424318702739410000012400214173203906190_);}
	.st77{fill:url(#SVGID_00000037655211665422500160000009633067726901867435_);}
	.st78{fill:url(#SVGID_00000127726470863421715180000011193921521443267510_);}
	.st79{fill:url(#SVGID_00000156574963215449037280000004793765252453937826_);}
	.st80{fill:url(#SVGID_00000108270802378609557360000017918514948649438116_);}
	.st81{fill:url(#SVGID_00000029047625158956830730000000674458348806117281_);}
	.st82{fill:url(#SVGID_00000058575653884570045670000016061416417934317474_);}
	.st83{fill:url(#SVGID_00000093137836100314129540000008154853021075626630_);}
	.st84{fill:url(#SVGID_00000101088306090808815480000009732479996860796033_);}
	.st85{fill:url(#SVGID_00000123408446504422606920000015818749645707796122_);}
	.st86{fill:url(#SVGID_00000078746159031459252660000015465197859704486815_);}
	.st87{fill:url(#SVGID_00000093147151404002537960000016896639404659148207_);}
	.st88{fill:url(#SVGID_00000060724484317459499310000003632307941854955914_);}
	.st89{fill:url(#SVGID_00000170262827942969103770000005324999894358755715_);}
	.st90{fill:url(#SVGID_00000155843960794557719030000012572258060389136827_);}
	.st91{fill:url(#SVGID_00000046330195489964936270000003952915472567070106_);}
	.st92{fill:url(#SVGID_00000138547705491536355400000007082568089936250552_);}
	.st93{fill:url(#SVGID_00000139975335871063079010000010213226056907851954_);}
	.st94{fill:url(#SVGID_00000144337598424424028300000017266906880862347706_);}
	.st95{fill:url(#SVGID_00000114755990364191676930000002491466747433159085_);}
	.st96{fill:url(#SVGID_00000055696396109011940180000007139304774473300389_);}
	.st97{fill:url(#SVGID_00000111179175232747380030000009217836327339479446_);}
	.st98{fill:#AF6838;}
	.st99{fill:url(#SVGID_00000149350865111885362230000002622579465102809480_);}
	.st100{fill:url(#SVGID_00000087378642044874543700000007029632557768899255_);}
	.st101{fill:url(#SVGID_00000135689352467009303420000012263983278146177461_);}
	.st102{fill:url(#SVGID_00000109715857460588098120000005202192092107649964_);}
	.st103{fill:#242F5F;}
	.st104{fill:#9DCEE2;}
	.st105{fill:url(#SVGID_00000054967350509900745560000012121799602807526543_);}
	.st106{fill:url(#SVGID_00000088096523487973332390000017450229872232495038_);}
	.st107{fill:url(#SVGID_00000147219175999970775130000004671583980814371462_);}
	.st108{fill:url(#SVGID_00000129894524702827198670000002387951671559604408_);}
	.st109{fill:url(#SVGID_00000166647361170103788700000004055597709286738054_);}
	.st110{fill:url(#SVGID_00000049944859415849061340000005917676695761873537_);}
	.st111{fill:url(#SVGID_00000178198507098260488140000002346814410071859890_);}
	.st112{fill:url(#SVGID_00000174593591914328038180000008663551643618105746_);}
	.st113{fill:url(#SVGID_00000025435873481191861720000006780636633420108476_);}
	.st114{fill:url(#SVGID_00000008863583309949365050000002019251517491877045_);}
	.st115{fill:url(#SVGID_00000057146967614616547000000008671088703661810878_);}
	.st116{fill:url(#SVGID_00000013896327569597977710000009381698353491873965_);}
	.st117{fill:url(#SVGID_00000007399055520566339850000013466224564867553703_);}
	.st118{fill:url(#SVGID_00000146487293341314622940000016202399557634106537_);}
	.st119{fill:url(#SVGID_00000092446141274159422690000017806333811078788538_);}
	.st120{fill:url(#SVGID_00000126298469997052854110000002068001933721623960_);}
	.st121{fill:url(#SVGID_00000065047833608951183690000011556523382988829840_);}
	.st122{fill:url(#SVGID_00000050657486571990576940000006420382763095160708_);}
	.st123{fill:url(#SVGID_00000073691570809130203560000000211138048019456949_);}
	.st124{fill:url(#SVGID_00000102537859028229913360000006350676678026475429_);}
	.st125{fill:#EF702D;}
	.st126{fill:#FDC058;}
	.st127{fill:#55A550;}
</style>
<g>
	<path class="st0" d="M181.36,182.86h-51.78c-6.09,0-11.02-4.93-11.02-11.02v-50.77c0-6.09,4.93-11.02,11.02-11.02h51.78
		c6.09,0,11.02,4.93,11.02,11.02v50.77C192.38,177.93,187.45,182.86,181.36,182.86z"/>
	<path class="st0" d="M96.32,97.66H44.54c-6.09,0-11.02-4.93-11.02-11.02V35.87c0-6.09,4.93-11.02,11.02-11.02h51.78
		c6.09,0,11.02,4.93,11.02,11.02v50.77C107.34,92.72,102.41,97.66,96.32,97.66z"/>
	<path class="st0" d="M180.16,97.66h-51.78c-6.09,0-11.02-4.93-11.02-11.02V35.87c0-6.09,4.93-11.02,11.02-11.02h51.78
		c6.09,0,11.02,4.93,11.02,11.02v50.77C191.17,92.73,186.24,97.66,180.16,97.66z"/>
	<path class="st0" d="M96.38,182.22H44.61c-6.09,0-11.02-4.93-11.02-11.02v-50.77c0-6.09,4.93-11.02,11.02-11.02h51.78
		c6.09,0,11.02,4.93,11.02,11.02v50.77C107.4,177.29,102.47,182.22,96.38,182.22z"/>
	<path class="st1" d="M144.35,213.86v-69.04c0-3.65,2.96-6.6,6.6-6.6h10.56c3.65,0,6.6,2.96,6.6,6.6v40.93l48.01,20.01
		c4.26,1.77,6.82,6.16,6.28,10.74l-1.37,11.64c-0.2,1.71-1.65,3-3.37,3h-82.15c-1.65,0-3.06-1.19-3.34-2.81l-3.87-22.28
		c-0.49-2.84,0.56-5.72,2.77-7.57l13.28-11.1"/>
	<path class="st2" d="M166.98,77.09c0.03,1.84-1.15,2.76-3.61,2.77c-3.5,0.01-7,0.03-10.5-0.01c-6.55-0.06-11.14-4.61-11.29-11.19
		c-0.06-2.49-0.01-4.98-0.01-7.48h0.24c0-3.16-0.31-6.36,0.07-9.47c0.64-5.2,5.06-8.92,10.3-9.03c3.9-0.08,7.81-0.05,11.72-0.02
		c2,0.02,3.08,1,3.09,2.68c0.01,1.66-1.05,2.71-3.05,2.76c-3.43,0.07-6.87,0.01-10.3,0.03c-4.53,0.03-6.55,2.05-6.56,6.52
		c-0.01,4.51-0.02,9.02,0,13.54c0.02,3.98,2.11,6.11,6.09,6.17c3.37,0.05,6.73,0,10.1,0.02C165.76,74.39,166.95,75.28,166.98,77.09z
		"/>
	<path class="st2" d="M83.09,53.24c-0.09-5.13-3.66-9.32-8.64-10.32c-1.69-0.34-3.48-0.25-5.23-0.24
		c-7.04,0.04-11.48,4.47-11.51,11.48c-0.03,7.34-0.01,14.68-0.01,22.02c0,0.4-0.01,0.81,0.04,1.21c0.17,1.48,1.01,2.35,2.49,2.43
		c1.56,0.08,2.64-0.7,2.79-2.29c0.15-1.6,0.1-3.23,0.11-4.84c0.02-1.72,0-3.44,0-5.19h14.48c0,3.13-0.03,6.14,0.01,9.15
		c0.02,1.97,1.02,3.12,2.63,3.19c1.7,0.07,2.87-1.13,2.88-3.16C83.16,68.87,83.23,61.05,83.09,53.24z M77.62,56.62
		c-0.11,1.67-0.02,3.35-0.02,5.31c-4.61,0-8.91,0.04-13.2-0.06c-0.43-0.01-1.19-0.82-1.21-1.29c-0.11-2.42-0.13-4.85,0.03-7.26
		c0.2-3.05,2.17-4.93,5.18-5.14C74.24,47.79,78.15,48.33,77.62,56.62z"/>
	<path class="st2" d="M80.82,145.89c2.83-3.94,2.8-7.69,1.93-12.05c-0.77-3.84-4.26-6.53-8.17-6.59c-4.58-0.07-9.16-0.04-13.74-0.01
		c-2.16,0.01-3.11,0.92-3.12,3.06c-0.03,10.37-0.03,20.74,0,31.11c0.01,2.04,0.94,2.97,2.97,2.99c4.65,0.04,9.3,0.06,13.94-0.02
		c3.67-0.06,7.14-2.52,7.97-6.04C83.63,154.08,83.84,149.78,80.82,145.89z M74.7,158.82c-3.74,0.19-7.49,0.05-11.44,0.05v-10.25
		c3.88,0,7.63-0.1,11.37,0.04c2.01,0.07,2.96,1.64,2.98,4.26C77.64,157.22,77.04,158.7,74.7,158.82z M77.58,139.35
		c0.06,2.02-1.04,3.54-2.77,3.6c-3.81,0.14-7.62,0.04-11.56,0.04v-10.16c4.01,0,8.01-0.47,11.84,0.14
		C78.57,133.53,77.51,136.93,77.58,139.35z"/>
</g>
</svg>
