<?xml version="1.0" encoding="UTF-8"?>
<svg id="Layer_1" data-name="Layer 1" xmlns="http://www.w3.org/2000/svg" viewBox="0 0 256 256">
  <defs>
    <style>
      .cls-1 {
        fill: #fff;
      }

      .cls-2 {
        fill: #e2e0e0;
        fill-rule: evenodd;
      }

      .cls-3 {
        opacity: .35;
      }

      .cls-4 {
        fill: #8da399;
      }
    </style>
  </defs>
  <g id="Icons">
    <path class="cls-4" d="m33,57h156.99v156.99H33V57Z"/>
    <path class="cls-1" d="m69.63,82.54h83.74v9.81h-83.74v-9.81Z"/>
    <path class="cls-1" d="m56.3,106.57h110.39v9.81H56.3v-9.81Z"/>
    <path class="cls-1" d="m69.63,130.59h83.74v9.81h-83.74v-9.81Z"/>
    <path class="cls-1" d="m56.3,154.61h110.39v9.81H56.3v-9.81Z"/>
    <path class="cls-1" d="m69.63,178.64h83.74v9.81h-83.74v-9.81Z"/>
    <g class="cls-3">
      <path class="cls-1" d="m33,126.9V57.01h69.89L33,126.9Z"/>
    </g>
  </g>
  <g>
    <path class="cls-2" d="m174.26,136.68l-3.91-3.42,41.49-47.42,4.92,4.3-40.6,46.4c-.49.56-1.34.61-1.9.13Zm-5.93-5.19l-3.91-3.42c-.56-.49-.61-1.34-.13-1.9l40.6-46.4,4.92,4.3-41.49,47.42Zm38.35-53.75l4.22-4.82,11.87,10.38-4.22,4.82-5.93-5.19-5.93-5.19Zm5.99-6.85l5.06-5.78c.53-.61,1.34-.61,1.9-.13l9.84,8.61c.56.49.66,1.29.13,1.9l-5.06,5.78-11.87-10.38Z"/>
    <path class="cls-2" d="m161.75,141.05c-.36-.31-.53-.82-.42-1.26l1.93-9.68,9.13,7.99-9.34,3.2c-.42.17-.95.06-1.31-.25Z"/>
  </g>
</svg>