<svg width="24" height="24" viewBox="0 0 24 24" fill="none" xmlns="http://www.w3.org/2000/svg">
<g clip-path="url(#clip0_5303_3638)">
<path d="M18.8941 4.82609C19.0736 5.00542 19.1743 5.24869 19.1744 5.50235V22.0435C19.1744 22.2971 19.0736 22.5405 18.8942 22.7198C18.7149 22.8992 18.4715 23 18.2179 23H1.95701C1.70332 23 1.46003 22.8992 1.28065 22.7198C1.10126 22.5405 1.00049 22.2971 1.00049 22.0435V1.95652C1.00049 1.70284 1.10126 1.45954 1.28065 1.28016C1.46003 1.10078 1.70332 1 1.95701 1H14.6721C14.9254 0.999549 15.1687 1.09965 15.3483 1.27835L18.8941 4.82609Z" fill="#E3E3E3"/>
<path d="M17.0901 3.02113L15.3483 1.27835C15.1687 1.09965 14.9254 0.999549 14.6721 1H1.95701C1.70332 1 1.46003 1.10078 1.28065 1.28016C1.10126 1.45954 1.00049 1.70284 1.00049 1.95652V19.1098L17.0901 3.02113Z" fill="white"/>
<path d="M8.65266 23H1.95701C1.70332 23 1.46003 22.8992 1.28065 22.7198C1.10126 22.5405 1.00049 22.2971 1.00049 22.0435V1.95652C1.00049 1.70284 1.10126 1.45954 1.28065 1.28016C1.46003 1.10078 1.70332 1 1.95701 1H14.6721C14.9254 0.999549 15.1687 1.09965 15.3483 1.27835L18.8941 4.82609C19.0736 5.00542 19.1743 5.24869 19.1744 5.50235V8.65217" stroke="#191919" stroke-linecap="round" stroke-linejoin="round"/>
<path d="M4.82617 13.4348C4.82617 13.1811 4.92695 12.9378 5.10633 12.7584C5.28571 12.5791 5.52901 12.4783 5.78269 12.4783H7.69574C7.94943 12.4783 8.19272 12.5791 8.3721 12.7584C8.55148 12.9378 8.65226 13.1811 8.65226 13.4348V15.3478C8.65226 15.6015 8.55148 15.8448 8.3721 16.0242C8.19272 16.2035 7.94943 16.3044 7.69574 16.3044H5.78269C5.52901 16.3044 5.28571 16.2035 5.10633 16.0242C4.92695 15.8448 4.82617 15.6015 4.82617 15.3478V13.4348Z" fill="#78EB7B" stroke="#191919" stroke-linecap="round" stroke-linejoin="round"/>
<path d="M10.5654 13.4348C10.5654 13.1811 10.6662 12.9378 10.8456 12.7584C11.0249 12.5791 11.2683 12.4783 11.522 12.4783H13.435C13.6887 12.4783 13.932 12.5791 14.1114 12.7584C14.2907 12.9378 14.3915 13.1811 14.3915 13.4348V15.3478C14.3915 15.6015 14.2907 15.8448 14.1114 16.0242C13.932 16.2035 13.6887 16.3044 13.435 16.3044H11.522C11.2683 16.3044 11.0249 16.2035 10.8456 16.0242C10.6662 15.8448 10.5654 15.6015 10.5654 15.3478V13.4348Z" fill="#78EB7B"/>
<path d="M11.522 16.3044C11.2683 16.3044 11.0249 16.2035 10.8456 16.0242C10.6662 15.8448 10.5654 15.6015 10.5654 15.3478V13.4348C10.5654 13.1811 10.6662 12.9378 10.8456 12.7584C11.0249 12.5791 11.2683 12.4783 11.522 12.4783H13.435C13.6887 12.4783 13.932 12.5791 14.1114 12.7584C14.2907 12.9378 14.3915 13.1811 14.3915 13.4348" stroke="#191919" stroke-linecap="round" stroke-linejoin="round"/>
<path d="M7.6958 7.69566C7.6958 7.44197 7.79658 7.19868 7.97596 7.01929C8.15534 6.83991 8.39863 6.73914 8.65232 6.73914H10.5654C10.819 6.73914 11.0624 6.83991 11.2417 7.01929C11.4211 7.19868 11.5219 7.44197 11.5219 7.69566V9.6087C11.5219 9.86239 11.4211 10.1057 11.2417 10.2851C11.0624 10.4644 10.819 10.5652 10.5654 10.5652H8.65232C8.39863 10.5652 8.15534 10.4644 7.97596 10.2851C7.79658 10.1057 7.6958 9.86239 7.6958 9.6087V7.69566Z" fill="#78EB7B" stroke="#191919" stroke-linecap="round" stroke-linejoin="round"/>
<path d="M22.4067 14.9833L15.1084 22.2826L11.5215 23L12.2389 19.413L19.5371 12.1138C19.9167 11.7344 20.4314 11.5212 20.9681 11.5212C21.5048 11.5212 22.0195 11.7344 22.399 12.1138L22.4067 12.1224C22.5947 12.3102 22.7438 12.5332 22.8456 12.7787C22.9472 13.0241 22.9997 13.2872 22.9997 13.5529C22.9997 13.8186 22.9472 14.0817 22.8456 14.3272C22.7438 14.5726 22.5947 14.7956 22.4067 14.9833Z" fill="#FFBC44" stroke="#191919" stroke-linecap="round" stroke-linejoin="round"/>
</g>
<defs>
<clipPath id="clip0_5303_3638">
<rect width="24" height="24" fill="white"/>
</clipPath>
</defs>
</svg>
