<svg width="24" height="24" viewBox="0 0 24 24" fill="none" xmlns="http://www.w3.org/2000/svg">
<g clip-path="url(#clip0_5303_3526)">
<path d="M19.1744 17.2609C19.4281 17.2609 19.6714 17.1601 19.8508 16.9807C20.0302 16.8014 20.131 16.5581 20.131 16.3044V4.82609C20.131 4.57241 20.0302 4.32911 19.8508 4.14973C19.6714 3.97035 19.4281 3.86957 19.1744 3.86957H9.72207C9.54448 3.86948 9.37042 3.81994 9.21939 3.72652C9.06836 3.6331 8.94632 3.49947 8.86694 3.34061L7.96015 1.52896C7.88077 1.3701 7.75873 1.23647 7.6077 1.14305C7.45667 1.04963 7.28261 1.00009 7.10502 1H1.95701C1.70333 1 1.46003 1.10078 1.28065 1.28016C1.10126 1.45954 1.00049 1.70284 1.00049 1.95652V16.3044C1.00049 16.5581 1.10126 16.8014 1.28065 16.9807C1.46003 17.1601 1.70333 17.2609 1.95701 17.2609H19.1744Z" fill="#FFEF5E"/>
<path d="M9.72207 3.86957C9.54448 3.86948 9.37042 3.81994 9.21939 3.72652C9.06836 3.6331 8.94632 3.49947 8.86694 3.34061L7.96015 1.52896C7.88077 1.3701 7.75873 1.23647 7.6077 1.14305C7.45667 1.04963 7.28261 1.00009 7.10502 1H1.95701C1.70333 1 1.46003 1.10078 1.28065 1.28016C1.10126 1.45954 1.00049 1.70284 1.00049 1.95652V16.3044C1.00049 16.5581 1.10126 16.8014 1.28065 16.9807C1.46003 17.1601 1.70333 17.2609 1.95701 17.2609H2.62658L16.0179 3.86957H9.72207Z" fill="#FFF9BF"/>
<path d="M20.131 8.65219V4.82609C20.131 4.57241 20.0302 4.32911 19.8508 4.14973C19.6714 3.97035 19.4281 3.86957 19.1744 3.86957H9.72207C9.54448 3.86948 9.37042 3.81994 9.21939 3.72652C9.06836 3.6331 8.94632 3.49947 8.86694 3.34061L7.96015 1.52896C7.88077 1.3701 7.75873 1.23647 7.6077 1.14305C7.45667 1.04963 7.28261 1.00009 7.10502 1H1.95701C1.70333 1 1.46003 1.10078 1.28065 1.28016C1.10126 1.45954 1.00049 1.70284 1.00049 1.95652V16.3044C1.00049 16.5581 1.10126 16.8014 1.28065 16.9807C1.46003 17.1601 1.70333 17.2609 1.95701 17.2609H8.65267" stroke="#191919" stroke-linecap="round" stroke-linejoin="round"/>
<path d="M13.6737 20.1304C14.2445 20.1304 14.7919 19.9037 15.1955 19.5001C15.5991 19.0965 15.8258 18.5491 15.8258 17.9783C15.8258 17.4075 15.5991 16.86 15.1955 16.4564C14.7919 16.0528 14.2445 15.8261 13.6737 15.8261C13.1029 15.8261 12.5555 16.0528 12.1518 16.4564C11.7482 16.86 11.5215 17.4075 11.5215 17.9783C11.5215 18.5491 11.7482 19.0965 12.1518 19.5001C12.5555 19.9037 13.1029 20.1304 13.6737 20.1304Z" fill="#FFEF5E" stroke="#191919" stroke-linecap="round" stroke-linejoin="round"/>
<path d="M20.848 23C21.1306 23 21.4105 22.9443 21.6716 22.8362C21.9327 22.728 22.1699 22.5695 22.3698 22.3696C22.5696 22.1698 22.7282 21.9325 22.8363 21.6714C22.9445 21.4103 23.0002 21.1305 23.0002 20.8478C23.0002 20.5652 22.9445 20.2853 22.8363 20.0242C22.7282 19.7631 22.5696 19.5259 22.3698 19.326C22.1699 19.1262 21.9327 18.9676 21.6716 18.8595C21.4105 18.7513 21.1306 18.6956 20.848 18.6956C20.2772 18.6956 19.7298 18.9224 19.3262 19.326C18.9225 19.7296 18.6958 20.277 18.6958 20.8478C18.6958 21.4186 18.9225 21.966 19.3262 22.3696C19.7298 22.7733 20.2772 23 20.848 23Z" fill="#FFEF5E" stroke="#191919" stroke-linecap="round" stroke-linejoin="round"/>
<path d="M20.848 15.8261C21.1306 15.8261 21.4105 15.7704 21.6716 15.6623C21.9327 15.5541 22.1699 15.3956 22.3698 15.1957C22.5696 14.9959 22.7282 14.7586 22.8363 14.4975C22.9445 14.2364 23.0002 13.9565 23.0002 13.6739C23.0002 13.3913 22.9445 13.1114 22.8363 12.8503C22.7282 12.5892 22.5696 12.3519 22.3698 12.1521C22.1699 11.9522 21.9327 11.7937 21.6716 11.6856C21.4105 11.5774 21.1306 11.5217 20.848 11.5217C20.2772 11.5217 19.7298 11.7485 19.3262 12.1521C18.9225 12.5557 18.6958 13.1031 18.6958 13.6739C18.6958 14.2447 18.9225 14.7921 19.3262 15.1957C19.7298 15.5993 20.2772 15.8261 20.848 15.8261Z" fill="#FFEF5E" stroke="#191919" stroke-linecap="round" stroke-linejoin="round"/>
<path d="M15.5156 16.8735L19.0069 14.7787" stroke="#191919" stroke-linecap="round" stroke-linejoin="round"/>
<path d="M15.6719 18.777L18.8514 20.0492" stroke="#191919" stroke-linecap="round" stroke-linejoin="round"/>
</g>
<defs>
<clipPath id="clip0_5303_3526">
<rect width="24" height="24" fill="white"/>
</clipPath>
</defs>
</svg>
