<?xml version="1.0" encoding="UTF-8"?>
<svg id="Layer_1" data-name="Layer 1" xmlns="http://www.w3.org/2000/svg" viewBox="0 0 256 256">
  <defs>
    <style>
      .cls-1 {
        fill: #8cb5c7;
      }
    </style>
  </defs>
  <path class="cls-1" d="m137.38,124.23V56.35c0-9.3-7.57-16.88-16.87-16.88H48.87c-9.3,0-16.87,7.57-16.87,16.88v67.88c0,9.3,7.57,16.87,16.87,16.87h8.44l9.56,12.75c2.25,3,6.75,2.99,9,0l9.56-12.75h35.06c9.3,0,16.87-7.57,16.87-16.87Zm-29.4-10.88c-2.2,2.2-5.76,2.2-7.95,0l-2.08-2.08c-3.85,2.46-8.42,3.89-13.32,3.89-13.71,0-24.86-11.15-24.86-24.86s11.15-24.86,24.86-24.86,24.86,11.15,24.86,24.86c0,4.74-1.34,9.18-3.65,12.95l2.15,2.15c2.2,2.2,2.2,5.76,0,7.95Z"/>
  <path class="cls-1" d="m84.82,80.93c-7.25,0-13.15,5.9-13.15,13.15,0,9.28,9.39,15.63,17.98,12.22l-1.84-1.84c-2.12-2.12-2.12-5.56,0-7.68,2.12-2.12,5.56-2.12,7.68,0l1.71,1.71c3.05-8.54-3.32-17.55-12.38-17.55Z"/>
  <path class="cls-1" d="m165.25,141.75h6.68l-3.32-8.81-3.36,8.81Z"/>
  <path class="cls-1" d="m207.12,84.85h-58.5v39.38c0,15.51-12.62,28.12-28.12,28.12h-1.88v17.25c0,9.3,7.57,16.88,16.88,16.88h35.06l9.56,12.75c2.25,3,6.75,2.99,9,0l9.56-12.75h8.44c9.3,0,16.88-7.57,16.88-16.88v-67.88c0-9.3-7.57-16.88-16.88-16.88h0Zm-18.64,75.13c-2.9,1.09-6.15-.36-7.25-3.28l-2.19-5.81h-15.45l-2.22,5.82c-1.11,2.9-4.36,4.36-7.26,3.25-2.9-1.11-4.36-4.36-3.25-7.26l14.45-37.93c.92-2.42,3.27-4.16,6.06-4.17,2.63,0,5,1.56,6.02,4.03.05.12-.59-1.58,14.38,38.09,1.1,2.91-.37,6.15-3.28,7.25h0Z"/>
</svg>