<?xml version="1.0" encoding="utf-8"?>
<!-- Generator: Adobe Illustrator 27.3.1, SVG Export Plug-In . SVG Version: 6.00 Build 0)  -->
<svg version="1.1" id="Layer_1" xmlns="http://www.w3.org/2000/svg" xmlns:xlink="http://www.w3.org/1999/xlink" x="0px" y="0px"
	 viewBox="0 0 256 256" style="enable-background:new 0 0 256 256;" xml:space="preserve">
<style type="text/css">
	.st0{fill:#8FDDE7;}
	.st1{fill:none;stroke:#121777;stroke-width:4;stroke-linecap:round;stroke-linejoin:round;stroke-miterlimit:10;}
	.st2{fill:#FFFFFF;}
	.st3{fill:#1AA4CE;}
	.st4{fill:#D3BBDD;}
	.st5{fill:#FBC12C;}
	.st6{fill:#837CB8;}
	.st7{fill:#78BCEF;}
	.st8{fill:#F25555;}
	.st9{fill:#8EE06C;}
	.st10{fill:#84C7EF;}
	.st11{fill:#FCFCFC;}
	.st12{fill:#F8AFA6;}
	.st13{fill:none;stroke:#FFFFFF;stroke-width:11;stroke-linecap:round;stroke-linejoin:round;stroke-miterlimit:10;}
	.st14{fill:#F13049;}
	.st15{fill:#F5A10F;}
	.st16{fill:#F2C700;}
	.st17{fill:#9CD925;}
	.st18{fill:#00D26F;}
	.st19{fill:#EDC30D;}
	.st20{fill:#FED400;}
	.st21{fill:#CCCCCC;}
	.st22{fill:#A2A2A2;}
	.st23{fill:#FF7A43;}
	.st24{fill:#F26636;}
	.st25{fill:#509DFF;}
	.st26{fill:#F4EDED;}
	.st27{fill:#D8D6D6;}
	.st28{fill:#308CEF;}
	.st29{fill:#D3DC5E;}
	.st30{fill:#1B38AB;}
	.st31{fill:#FE515E;}
	.st32{fill:#020202;}
	.st33{fill:#F83B4D;}
	.st34{fill:url(#SVGID_1_);}
	.st35{fill:url(#SVGID_00000061472734011960368670000008085394516014368427_);}
	.st36{fill:url(#SVGID_00000172406655277992273670000012199136723370895777_);}
	.st37{fill:url(#SVGID_00000049927672982192844130000000160935438032746901_);}
	.st38{fill:url(#SVGID_00000070819069485275827690000010034362453783919766_);}
	.st39{fill:url(#SVGID_00000059993046008808946900000013248493584200693920_);}
	.st40{fill:url(#SVGID_00000011027683277858816710000013414119182077801911_);}
	.st41{fill:url(#SVGID_00000174603693598034742260000008687249951118191772_);}
	.st42{fill:url(#SVGID_00000162311806627851274600000014168182015349073331_);}
	.st43{fill:url(#SVGID_00000161602579401030074940000006446872510978748038_);}
	.st44{fill:url(#SVGID_00000084522258479695605830000014481454640710056126_);}
	.st45{fill:url(#SVGID_00000066482127262412492960000006856124851364027790_);}
	.st46{fill:url(#SVGID_00000023268658583260081600000001577444914076820391_);}
	.st47{fill:url(#SVGID_00000075884022374485176010000014468461972390182062_);}
	.st48{fill:url(#SVGID_00000093143676538153978930000001418146322330938787_);}
	.st49{fill:url(#SVGID_00000073698165627976655500000012852092019407863989_);}
	.st50{fill:url(#SVGID_00000132788997922084863460000016149720751395047074_);}
	.st51{fill:url(#SVGID_00000047026430879848233190000007629767123545947572_);}
	.st52{fill:#033270;}
	.st53{fill:#4091C9;}
	.st54{fill:url(#SVGID_00000053533151520568594950000015415322054930151564_);}
	.st55{fill:url(#SVGID_00000141423847447027558830000006421546453110451846_);}
	.st56{fill:url(#SVGID_00000155145302953433747410000017734306104756774065_);}
	.st57{fill:url(#SVGID_00000043445536907246093630000014237870157278175897_);}
	.st58{fill:url(#SVGID_00000064355383373015519430000012910921194607062156_);}
	.st59{fill:url(#SVGID_00000165192958035625176870000003450226262396503440_);}
	.st60{fill:url(#SVGID_00000130614786994678935630000010200627400448125353_);}
	.st61{fill:#DBDBD9;}
	.st62{fill:#3F3F3E;}
	.st63{fill:url(#SVGID_00000093868538090680690560000006006626582721200274_);}
	.st64{fill:url(#SVGID_00000097500288140350610960000011309136223233237889_);}
	.st65{fill:#232F5F;}
	.st66{fill:url(#SVGID_00000183964401885098523800000010967346044265543833_);}
	.st67{fill:url(#SVGID_00000126313741691437433890000007694121081463860664_);}
	.st68{fill:url(#SVGID_00000141420906022109433310000017269073798967973538_);}
	.st69{fill:url(#SVGID_00000021808529337702781860000017264050303171518128_);}
	.st70{fill:#223265;}
	.st71{fill:url(#SVGID_00000130629624342564294110000018281017857230347163_);}
	.st72{fill:url(#SVGID_00000170265375119680216830000000889920024359502519_);}
	.st73{fill:url(#SVGID_00000130612203398327412240000002068597801843974060_);}
	.st74{fill:url(#SVGID_00000001644945321653820880000004136082663002944923_);}
	.st75{fill:url(#SVGID_00000047039653408397923750000017150236420054191542_);}
	.st76{fill:url(#SVGID_00000043450273396798939900000003090125177636060342_);}
	.st77{fill:url(#SVGID_00000083069761680910617530000009065838863128176311_);}
	.st78{fill:url(#SVGID_00000056395068779741944230000010120816853181398454_);}
	.st79{fill:url(#SVGID_00000082341357852917253080000017149442741464981891_);}
	.st80{fill:url(#SVGID_00000011007900372188860980000015516081670841992352_);}
	.st81{fill:url(#SVGID_00000134230581154550174470000014509007808351872131_);}
	.st82{fill:url(#SVGID_00000148645676077714118070000004201991325434657706_);}
	.st83{fill:url(#SVGID_00000140699227773862220200000001435559986144979111_);}
	.st84{fill:url(#SVGID_00000106146090713277826380000013409901436691105166_);}
	.st85{fill:url(#SVGID_00000169525323322206962210000003198103808651630526_);}
	.st86{fill:url(#SVGID_00000010296958507014556460000008165819878583954843_);}
	.st87{fill:url(#SVGID_00000051374957714865553680000000785546039033379744_);}
	.st88{fill:url(#SVGID_00000101096320212863619110000007167811109027359420_);}
	.st89{fill:url(#SVGID_00000134952211488771134720000013385973313036570770_);}
	.st90{fill:url(#SVGID_00000010295100787926878040000017741805568836990628_);}
	.st91{fill:url(#SVGID_00000049936512538243946030000008460817714483736250_);}
	.st92{fill:url(#SVGID_00000008869274186753370170000003854167968549051784_);}
	.st93{fill:url(#SVGID_00000070818843914524410240000002024738841347371455_);}
	.st94{fill:url(#SVGID_00000085222530948833121530000004906777294818960303_);}
	.st95{fill:url(#SVGID_00000107586148604354277690000002811195801332731276_);}
	.st96{fill:url(#SVGID_00000046324395119683402750000017099906574543274902_);}
	.st97{fill:url(#SVGID_00000145780576034976383590000009557542960394932638_);}
	.st98{fill:#AF6838;}
	.st99{fill:url(#SVGID_00000097501024903764497390000009972035241209240487_);}
	.st100{fill:url(#SVGID_00000064348395292006272210000007229631932049783975_);}
	.st101{fill:url(#SVGID_00000171702218650377773300000017471612207490021556_);}
	.st102{fill:url(#SVGID_00000137823564798782191370000000069111556224443541_);}
	.st103{fill:#242F5F;}
	.st104{fill:#9DCEE2;}
	.st105{fill:url(#SVGID_00000172411850491788287900000007553530824764660352_);}
	.st106{fill:url(#SVGID_00000000217433579143509570000003092232143991212672_);}
	.st107{fill:url(#SVGID_00000017489119962141523870000015311467408052055701_);}
	.st108{fill:url(#SVGID_00000116202585861068387550000013476623789464846721_);}
	.st109{fill:url(#SVGID_00000107570305943698828480000004166027685379336848_);}
	.st110{fill:url(#SVGID_00000072256021724792754080000010396939224098234240_);}
	.st111{fill:url(#SVGID_00000132062302941083029040000008016987688422275007_);}
	.st112{fill:url(#SVGID_00000029016234553634896200000007957760057929516674_);}
	.st113{fill:url(#SVGID_00000044869242588454404480000006356889518131039876_);}
	.st114{fill:url(#SVGID_00000115495355598304448760000000259163884469357954_);}
	.st115{fill:url(#SVGID_00000165935381494815842990000002158883863297560494_);}
	.st116{fill:url(#SVGID_00000060012356444998525350000008102566655794643378_);}
	.st117{fill:url(#SVGID_00000144329297352935762090000014747159707077613953_);}
	.st118{fill:url(#SVGID_00000141456282578885155570000007779629804600666282_);}
	.st119{fill:url(#SVGID_00000172411661113106302950000006250441563438161840_);}
	.st120{fill:url(#SVGID_00000048466722904289187990000001438479713834231217_);}
	.st121{fill:url(#SVGID_00000153678392683808659470000003378365425298965674_);}
	.st122{fill:url(#SVGID_00000143602500232789955550000012698110647126141106_);}
	.st123{fill:url(#SVGID_00000182528834288683573690000018241909854613476748_);}
	.st124{fill:url(#SVGID_00000056424154117997619910000012630034416203790721_);}
	.st125{fill:#EF702D;}
	.st126{fill:#FDC058;}
	.st127{fill:#55A550;}
	.st128{font-family:'Duepuntozero-Bold';}
	.st129{font-size:18.0872px;}
</style>
<g>
	<g>
		<linearGradient id="SVGID_1_" gradientUnits="userSpaceOnUse" x1="181.1922" y1="12.5" x2="181.1922" y2="43.5181">
			<stop  offset="0" style="stop-color:#68A8DC"/>
			<stop  offset="1" style="stop-color:#3A6EAD"/>
		</linearGradient>
		<path class="st34" d="M200.4,43.52V15.15c0-1.46-1.22-2.65-2.71-2.65h-32.99c-1.49,0-2.71,1.19-2.71,2.65v28.37H200.4z"/>
		<g>
			<g>
				<path class="st2" d="M196.21,13.54h-30.04c-1.36,0-2.47,1.11-2.47,2.47v26.48h34.98V16C198.68,14.65,197.57,13.54,196.21,13.54z
					"/>
				
					<linearGradient id="SVGID_00000050664494603033430680000015939298574920937647_" gradientUnits="userSpaceOnUse" x1="163.7004" y1="15.2503" x2="198.6839" y2="15.2503">
					<stop  offset="0" style="stop-color:#D6ECFA"/>
					<stop  offset="1" style="stop-color:#A7CFEE"/>
				</linearGradient>
				<path style="fill:url(#SVGID_00000050664494603033430680000015939298574920937647_);" d="M198.68,16.97V16
					c0-1.36-1.11-2.47-2.47-2.47h-30.04c-1.36,0-2.47,1.11-2.47,2.47v0.96H198.68z"/>
			</g>
			
				<linearGradient id="SVGID_00000116926962182214705740000002362796029623753893_" gradientUnits="userSpaceOnUse" x1="181.1922" y1="15.0446" x2="181.1922" y2="15.902">
				<stop  offset="0" style="stop-color:#6AA7DA"/>
				<stop  offset="1" style="stop-color:#3F73AF"/>
			</linearGradient>
			<path style="fill:url(#SVGID_00000116926962182214705740000002362796029623753893_);" d="M185.43,15.04h-8.47
				c-0.24,0-0.43,0.19-0.43,0.43c0,0.24,0.19,0.43,0.43,0.43h8.47c0.24,0,0.43-0.19,0.43-0.43
				C185.86,15.24,185.66,15.04,185.43,15.04z"/>
		</g>
		<g>
			
				<linearGradient id="SVGID_00000093863927327363277150000004780320588661483399_" gradientUnits="userSpaceOnUse" x1="172.3777" y1="18.3028" x2="172.3777" y2="41.0764">
				<stop  offset="0" style="stop-color:#DCBBC2"/>
				<stop  offset="1" style="stop-color:#D8A1AB"/>
			</linearGradient>
			<path style="fill:url(#SVGID_00000093863927327363277150000004780320588661483399_);" d="M172.38,41.08L172.38,41.08
				c-0.15,0-0.27-0.12-0.27-0.27V18.58c0-0.15,0.12-0.27,0.27-0.27h0c0.15,0,0.27,0.12,0.27,0.27V40.8
				C172.65,40.95,172.53,41.08,172.38,41.08z"/>
			
				<linearGradient id="SVGID_00000173160044636420714630000010092383489704011938_" gradientUnits="userSpaceOnUse" x1="181.3293" y1="18.3028" x2="181.3293" y2="41.0764">
				<stop  offset="0" style="stop-color:#DCBBC2"/>
				<stop  offset="1" style="stop-color:#D8A1AB"/>
			</linearGradient>
			<path style="fill:url(#SVGID_00000173160044636420714630000010092383489704011938_);" d="M181.33,41.08L181.33,41.08
				c-0.15,0-0.27-0.12-0.27-0.27V18.58c0-0.15,0.12-0.27,0.27-0.27h0c0.15,0,0.27,0.12,0.27,0.27V40.8
				C181.6,40.95,181.48,41.08,181.33,41.08z"/>
			
				<linearGradient id="SVGID_00000001645256353123976110000016001882552715078530_" gradientUnits="userSpaceOnUse" x1="190.281" y1="18.3028" x2="190.281" y2="41.0764">
				<stop  offset="0" style="stop-color:#DCBBC2"/>
				<stop  offset="1" style="stop-color:#D8A1AB"/>
			</linearGradient>
			<path style="fill:url(#SVGID_00000001645256353123976110000016001882552715078530_);" d="M190.28,41.08L190.28,41.08
				c-0.15,0-0.27-0.12-0.27-0.27V18.58c0-0.15,0.12-0.27,0.27-0.27h0c0.15,0,0.27,0.12,0.27,0.27V40.8
				C190.56,40.95,190.43,41.08,190.28,41.08z"/>
		</g>
		<g>
			
				<linearGradient id="SVGID_00000105391162965162994410000003293741803697870751_" gradientUnits="userSpaceOnUse" x1="166.0155" y1="23.3789" x2="196.3688" y2="23.3789">
				<stop  offset="0" style="stop-color:#DCBBC2"/>
				<stop  offset="1" style="stop-color:#D8A1AB"/>
			</linearGradient>
			<path style="fill:url(#SVGID_00000105391162965162994410000003293741803697870751_);" d="M196.09,23.65h-29.8
				c-0.15,0-0.27-0.12-0.27-0.27v0c0-0.15,0.12-0.27,0.27-0.27h29.8c0.15,0,0.27,0.12,0.27,0.27v0
				C196.37,23.53,196.25,23.65,196.09,23.65z"/>
			
				<linearGradient id="SVGID_00000052099721031787671960000015911886515228267179_" gradientUnits="userSpaceOnUse" x1="166.0155" y1="29.4152" x2="196.3688" y2="29.4152">
				<stop  offset="0" style="stop-color:#DCBBC2"/>
				<stop  offset="1" style="stop-color:#D8A1AB"/>
			</linearGradient>
			<path style="fill:url(#SVGID_00000052099721031787671960000015911886515228267179_);" d="M196.09,29.69h-29.8
				c-0.15,0-0.27-0.12-0.27-0.27v0c0-0.15,0.12-0.27,0.27-0.27h29.8c0.15,0,0.27,0.12,0.27,0.27l0,0
				C196.37,29.57,196.25,29.69,196.09,29.69z"/>
			
				<linearGradient id="SVGID_00000121260535564120429140000009159866124689059254_" gradientUnits="userSpaceOnUse" x1="166.0155" y1="35.4516" x2="196.3688" y2="35.4516">
				<stop  offset="0" style="stop-color:#DCBBC2"/>
				<stop  offset="1" style="stop-color:#D8A1AB"/>
			</linearGradient>
			<path style="fill:url(#SVGID_00000121260535564120429140000009159866124689059254_);" d="M196.09,35.73h-29.8
				c-0.15,0-0.27-0.12-0.27-0.27v0c0-0.15,0.12-0.27,0.27-0.27h29.8c0.15,0,0.27,0.12,0.27,0.27l0,0
				C196.37,35.6,196.25,35.73,196.09,35.73z"/>
		</g>
		
			<linearGradient id="SVGID_00000181048250526524886670000011216663646926077065_" gradientUnits="userSpaceOnUse" x1="176.5277" y1="19.5665" x2="176.5277" y2="21.7091">
			<stop  offset="0" style="stop-color:#68A8DC"/>
			<stop  offset="1" style="stop-color:#3A6EAD"/>
		</linearGradient>
		<path style="fill:url(#SVGID_00000181048250526524886670000011216663646926077065_);" d="M177.98,21.23
			c-0.29-0.21-0.57-0.42-0.86-0.63c0.33-0.26,0.64-0.53,0.89-0.87c0.21-0.28-0.26-0.54-0.46-0.27c-0.24,0.32-0.55,0.58-0.86,0.83
			c-0.05-0.04-0.11-0.08-0.16-0.12c-0.4-0.29-0.78-0.62-1.24-0.8c-0.32-0.12-0.46,0.39-0.14,0.51c0.4,0.15,0.76,0.47,1.11,0.74
			c-0.34,0.26-0.67,0.53-0.93,0.86c-0.21,0.27,0.17,0.65,0.38,0.38c0.28-0.36,0.63-0.65,0.99-0.92c0.34,0.25,0.69,0.5,1.03,0.75
			C177.99,21.89,178.26,21.43,177.98,21.23z"/>
		
			<linearGradient id="SVGID_00000098939939343837528340000009281787988021957276_" gradientUnits="userSpaceOnUse" x1="185.8566" y1="31.2605" x2="185.8566" y2="33.403">
			<stop  offset="0" style="stop-color:#68A8DC"/>
			<stop  offset="1" style="stop-color:#3A6EAD"/>
		</linearGradient>
		<path style="fill:url(#SVGID_00000098939939343837528340000009281787988021957276_);" d="M187.31,32.92
			c-0.29-0.21-0.57-0.42-0.86-0.63c0.33-0.26,0.64-0.53,0.89-0.87c0.21-0.28-0.26-0.54-0.46-0.27c-0.24,0.32-0.55,0.58-0.86,0.83
			c-0.05-0.04-0.11-0.08-0.16-0.12c-0.4-0.29-0.78-0.62-1.24-0.8c-0.32-0.12-0.46,0.39-0.14,0.51c0.4,0.15,0.76,0.47,1.11,0.74
			c-0.34,0.26-0.67,0.53-0.93,0.86c-0.21,0.27,0.17,0.65,0.38,0.38c0.28-0.36,0.63-0.65,0.99-0.92c0.34,0.25,0.69,0.5,1.03,0.75
			C187.32,33.59,187.58,33.12,187.31,32.92z"/>
		
			<linearGradient id="SVGID_00000039815977149106530170000015308317566973800839_" gradientUnits="userSpaceOnUse" x1="176.5277" y1="37.3897" x2="176.5277" y2="39.5323">
			<stop  offset="0" style="stop-color:#68A8DC"/>
			<stop  offset="1" style="stop-color:#3A6EAD"/>
		</linearGradient>
		<path style="fill:url(#SVGID_00000039815977149106530170000015308317566973800839_);" d="M177.98,39.05
			c-0.29-0.21-0.57-0.42-0.86-0.63c0.33-0.26,0.64-0.53,0.89-0.87c0.21-0.28-0.26-0.54-0.46-0.27c-0.24,0.32-0.55,0.58-0.86,0.83
			c-0.05-0.04-0.11-0.08-0.16-0.12c-0.4-0.29-0.78-0.62-1.24-0.8c-0.32-0.12-0.46,0.39-0.14,0.51c0.4,0.15,0.76,0.47,1.11,0.74
			c-0.34,0.26-0.67,0.53-0.93,0.86c-0.21,0.27,0.17,0.65,0.38,0.38c0.28-0.36,0.63-0.65,0.99-0.92c0.34,0.25,0.69,0.5,1.03,0.75
			C177.99,39.72,178.26,39.25,177.98,39.05z"/>
		
			<linearGradient id="SVGID_00000000942422692084119920000013823802744505612700_" gradientUnits="userSpaceOnUse" x1="194.0304" y1="25.6173" x2="194.0304" y2="27.7598">
			<stop  offset="0" style="stop-color:#68A8DC"/>
			<stop  offset="1" style="stop-color:#3A6EAD"/>
		</linearGradient>
		<path style="fill:url(#SVGID_00000000942422692084119920000013823802744505612700_);" d="M195.48,27.28
			c-0.29-0.21-0.57-0.42-0.86-0.63c0.33-0.26,0.64-0.53,0.89-0.87c0.21-0.28-0.26-0.54-0.46-0.27c-0.24,0.32-0.55,0.58-0.86,0.83
			c-0.05-0.04-0.11-0.08-0.16-0.12c-0.4-0.29-0.78-0.62-1.24-0.8c-0.32-0.12-0.46,0.39-0.14,0.51c0.4,0.15,0.76,0.47,1.11,0.74
			c-0.34,0.26-0.67,0.53-0.93,0.86c-0.21,0.27,0.17,0.65,0.38,0.38c0.28-0.36,0.63-0.65,0.99-0.92c0.34,0.25,0.69,0.5,1.03,0.75
			C195.49,27.94,195.76,27.48,195.48,27.28z"/>
		
			<linearGradient id="SVGID_00000150081749153112688460000007727453197563170491_" gradientUnits="userSpaceOnUse" x1="168.5381" y1="25.6173" x2="168.5381" y2="27.7598">
			<stop  offset="0" style="stop-color:#68A8DC"/>
			<stop  offset="1" style="stop-color:#3A6EAD"/>
		</linearGradient>
		<path style="fill:url(#SVGID_00000150081749153112688460000007727453197563170491_);" d="M169.99,27.28
			c-0.29-0.21-0.57-0.42-0.86-0.63c0.33-0.26,0.64-0.53,0.89-0.87c0.21-0.28-0.26-0.54-0.46-0.27c-0.24,0.32-0.55,0.58-0.86,0.83
			c-0.05-0.04-0.11-0.08-0.16-0.12c-0.4-0.29-0.78-0.62-1.24-0.8c-0.32-0.12-0.46,0.39-0.14,0.51c0.4,0.15,0.76,0.47,1.11,0.74
			c-0.34,0.26-0.67,0.53-0.93,0.86c-0.21,0.27,0.17,0.65,0.38,0.38c0.28-0.36,0.63-0.65,0.99-0.92c0.34,0.25,0.69,0.5,1.03,0.75
			C170,27.94,170.27,27.48,169.99,27.28z"/>
		
			<linearGradient id="SVGID_00000137815598900366538400000016492277477231768759_" gradientUnits="userSpaceOnUse" x1="177.4273" y1="25.5407" x2="177.4273" y2="27.7502">
			<stop  offset="0" style="stop-color:#36558C"/>
			<stop  offset="1" style="stop-color:#162A46"/>
		</linearGradient>
		<path style="fill:url(#SVGID_00000137815598900366538400000016492277477231768759_);" d="M178.86,25.31
			c-0.59,0.4-1.05,0.92-1.41,1.53c-0.04,0.06-0.14,0.31-0.22,0.43c-0.04-0.12-0.29-0.33-0.3-0.34c-0.29-0.25-0.6-0.46-0.92-0.65
			c-0.37-0.22-0.7,0.36-0.34,0.57c0.47,0.28,0.82,0.65,1.23,0.99c0.2,0.16,0.39,0.24,0.63,0.09c0.28-0.18,0.41-0.65,0.59-0.92
			c0.29-0.44,0.64-0.82,1.07-1.12C179.55,25.64,179.21,25.07,178.86,25.31z"/>
		
			<linearGradient id="SVGID_00000032637653608176904630000003236101192470754195_" gradientUnits="userSpaceOnUse" x1="194.0304" y1="19.3985" x2="194.0304" y2="21.608">
			<stop  offset="0" style="stop-color:#36558C"/>
			<stop  offset="1" style="stop-color:#162A46"/>
		</linearGradient>
		<path style="fill:url(#SVGID_00000032637653608176904630000003236101192470754195_);" d="M195.46,19.17
			c-0.59,0.4-1.05,0.92-1.41,1.53c-0.04,0.06-0.14,0.31-0.22,0.43c-0.04-0.12-0.29-0.33-0.3-0.34c-0.29-0.25-0.6-0.46-0.92-0.65
			c-0.37-0.22-0.7,0.36-0.34,0.57c0.47,0.28,0.82,0.65,1.23,0.99c0.2,0.16,0.39,0.24,0.63,0.09c0.28-0.18,0.41-0.65,0.59-0.92
			c0.29-0.44,0.64-0.82,1.07-1.12C196.15,19.5,195.82,18.92,195.46,19.17z"/>
		
			<linearGradient id="SVGID_00000073680810059348878740000012254440238778880399_" gradientUnits="userSpaceOnUse" x1="168.8872" y1="31.6007" x2="168.8872" y2="33.8101">
			<stop  offset="0" style="stop-color:#36558C"/>
			<stop  offset="1" style="stop-color:#162A46"/>
		</linearGradient>
		<path style="fill:url(#SVGID_00000073680810059348878740000012254440238778880399_);" d="M170.32,31.37
			c-0.59,0.4-1.05,0.92-1.41,1.53c-0.04,0.06-0.14,0.31-0.22,0.43c-0.04-0.12-0.29-0.33-0.3-0.34c-0.29-0.25-0.6-0.46-0.92-0.65
			c-0.37-0.22-0.7,0.36-0.34,0.57c0.47,0.28,0.82,0.65,1.23,0.99c0.2,0.16,0.39,0.24,0.63,0.09c0.28-0.18,0.41-0.65,0.59-0.92
			c0.29-0.44,0.64-0.82,1.07-1.12C171.01,31.7,170.67,31.13,170.32,31.37z"/>
		
			<linearGradient id="SVGID_00000090991990892058298600000000728706433775199908_" gradientUnits="userSpaceOnUse" x1="185.8566" y1="37.3874" x2="185.8566" y2="39.5968">
			<stop  offset="0" style="stop-color:#36558C"/>
			<stop  offset="1" style="stop-color:#162A46"/>
		</linearGradient>
		<path style="fill:url(#SVGID_00000090991990892058298600000000728706433775199908_);" d="M187.29,37.16
			c-0.59,0.4-1.05,0.92-1.41,1.53c-0.04,0.06-0.14,0.31-0.22,0.43c-0.04-0.12-0.29-0.33-0.3-0.34c-0.29-0.25-0.6-0.46-0.92-0.65
			c-0.37-0.22-0.7,0.36-0.34,0.57c0.47,0.28,0.82,0.65,1.23,0.99c0.2,0.16,0.39,0.24,0.63,0.09c0.28-0.18,0.41-0.65,0.59-0.92
			c0.29-0.44,0.64-0.82,1.07-1.12C187.98,37.49,187.64,36.91,187.29,37.16z"/>
	</g>
	<g>
		<g>
			<path class="st52" d="M223.48,147.33V45.24c0-2.41-1.98-4.39-4.39-4.39H36.91c-2.41,0-4.39,1.98-4.39,4.39v102.09H223.48z"/>
			<path class="st53" d="M32.52,147.42v12.93c0,2.41,1.98,4.39,4.39,4.39h182.18c2.41,0,4.39-1.98,4.39-4.39v-12.93H32.52z"/>
		</g>
		<rect x="38.44" y="46.23" class="st2" width="179.13" height="96.06"/>
	</g>
	<g>
		<g>
			<g>
				
					<linearGradient id="SVGID_00000162317022349224327380000010081425123916524174_" gradientUnits="userSpaceOnUse" x1="157.2989" y1="117.1289" x2="198.4453" y2="117.1289">
					<stop  offset="0" style="stop-color:#D6ECFA"/>
					<stop  offset="1" style="stop-color:#A7CFEE"/>
				</linearGradient>
				<path style="fill:url(#SVGID_00000162317022349224327380000010081425123916524174_);" d="M193.36,123.4h-30.97
					c-2.8,0-5.09-2.29-5.09-5.09v-2.36c0-2.8,2.29-5.09,5.09-5.09h30.97c2.8,0,5.09,2.29,5.09,5.09v2.36
					C198.45,121.11,196.16,123.4,193.36,123.4z"/>
				<g>
					
						<linearGradient id="SVGID_00000070078257631101114890000016231197259365660319_" gradientUnits="userSpaceOnUse" x1="170.8246" y1="122.2448" x2="195.4107" y2="108.0499">
						<stop  offset="0" style="stop-color:#ADC8E8"/>
						<stop  offset="1" style="stop-color:#70A3D7"/>
					</linearGradient>
					<path style="fill:url(#SVGID_00000070078257631101114890000016231197259365660319_);" d="M169.17,112.96v6.41h2.54l-0.73,2.75
						l3.89-2.75h18.19c1.11,0,2.01-1.01,2.01-2.26v-4.15H169.17z"/>
					<g>
						
							<linearGradient id="SVGID_00000158714335110240822330000007157904931225617821_" gradientUnits="userSpaceOnUse" x1="173.5177" y1="-708.3128" x2="171.6617" y2="-705.0981" gradientTransform="matrix(1 0 0 -1 0 -590.4512)">
							<stop  offset="0" style="stop-color:#355C8E"/>
							<stop  offset="1" style="stop-color:#092847"/>
						</linearGradient>
						<polygon style="fill:url(#SVGID_00000158714335110240822330000007157904931225617821_);" points="172.57,117.24 
							173.64,117.79 173.43,116.62 174.3,115.78 173.1,115.61 172.57,114.54 172.03,115.61 170.83,115.78 171.7,116.62 
							171.49,117.79 						"/>
						
							<linearGradient id="SVGID_00000114775280051501174440000001974645875399778955_" gradientUnits="userSpaceOnUse" x1="178.2924" y1="-708.3125" x2="176.4364" y2="-705.0978" gradientTransform="matrix(1 0 0 -1 0 -590.4512)">
							<stop  offset="0" style="stop-color:#355C8E"/>
							<stop  offset="1" style="stop-color:#092847"/>
						</linearGradient>
						<polygon style="fill:url(#SVGID_00000114775280051501174440000001974645875399778955_);" points="177.34,117.24 
							178.41,117.79 178.21,116.62 179.08,115.78 177.88,115.61 177.34,114.54 176.8,115.61 175.6,115.78 176.47,116.62 
							176.27,117.79 						"/>
						
							<linearGradient id="SVGID_00000101099117935566391150000004904601029448816805_" gradientUnits="userSpaceOnUse" x1="183.0672" y1="-708.3127" x2="181.2111" y2="-705.098" gradientTransform="matrix(1 0 0 -1 0 -590.4512)">
							<stop  offset="0" style="stop-color:#355C8E"/>
							<stop  offset="1" style="stop-color:#092847"/>
						</linearGradient>
						<polygon style="fill:url(#SVGID_00000101099117935566391150000004904601029448816805_);" points="182.11,117.24 
							183.19,117.79 182.98,116.62 183.85,115.78 182.65,115.61 182.11,114.54 181.58,115.61 180.38,115.78 181.25,116.62 
							181.04,117.79 						"/>
						
							<linearGradient id="SVGID_00000127023079842716391490000001968643790485640076_" gradientUnits="userSpaceOnUse" x1="187.8421" y1="-708.3129" x2="185.986" y2="-705.098" gradientTransform="matrix(1 0 0 -1 0 -590.4512)">
							<stop  offset="0" style="stop-color:#355C8E"/>
							<stop  offset="1" style="stop-color:#092847"/>
						</linearGradient>
						<polygon style="fill:url(#SVGID_00000127023079842716391490000001968643790485640076_);" points="186.89,117.24 
							187.96,117.79 187.76,116.62 188.63,115.78 187.43,115.61 186.89,114.54 186.35,115.61 185.15,115.78 186.02,116.62 
							185.82,117.79 						"/>
						
							<linearGradient id="SVGID_00000058569406898106950550000004465492467435469197_" gradientUnits="userSpaceOnUse" x1="192.6165" y1="-708.3128" x2="190.7607" y2="-705.0983" gradientTransform="matrix(1 0 0 -1 0 -590.4512)">
							<stop  offset="0" style="stop-color:#355C8E"/>
							<stop  offset="1" style="stop-color:#092847"/>
						</linearGradient>
						<polygon style="fill:url(#SVGID_00000058569406898106950550000004465492467435469197_);" points="191.66,117.24 
							192.74,117.79 192.53,116.62 193.4,115.78 192.2,115.61 191.66,114.54 191.13,115.61 189.93,115.78 190.8,116.62 
							190.59,117.79 						"/>
					</g>
					<g>
						<path class="st2" d="M163.24,112.96c-1.77,0-3.21,1.41-3.21,3.16c0,1.75,1.44,3.16,3.21,3.16c1.77,0,3.21-1.41,3.21-3.16
							C166.45,114.38,165.02,112.96,163.24,112.96z"/>
						<path class="st61" d="M162.28,117.48c0,0,0.01-0.01,0.01-0.01C162.29,117.47,162.29,117.47,162.28,117.48
							C162.28,117.47,162.28,117.48,162.28,117.48z"/>
						<path class="st62" d="M162.41,119.27L162.41,119.27c0,0-0.01,0-0.01,0C162.4,119.26,162.4,119.26,162.41,119.27z"/>
						<g>
							
								<linearGradient id="SVGID_00000065785664348487740970000014880298980587575183_" gradientUnits="userSpaceOnUse" x1="161.9601" y1="117.1284" x2="164.564" y2="117.1284">
								<stop  offset="0" style="stop-color:#E0C6CC"/>
								<stop  offset="1" style="stop-color:#DDABB5"/>
							</linearGradient>
							<path style="fill:url(#SVGID_00000065785664348487740970000014880298980587575183_);" d="M162.62,116.29
								c0,0,0.01,1.14-0.57,1.36c-0.51,0.23,1.24,1.98,2.51,0.24c0.02,0-0.84-0.63-0.51-1.85c0.29-1.08-1.42,0.17-1.42,0.17
								L162.62,116.29z"/>
							
								<linearGradient id="SVGID_00000012441376594090465510000011727925433565812655_" gradientUnits="userSpaceOnUse" x1="162.0976" y1="115.6096" x2="164.4655" y2="115.6096">
								<stop  offset="0" style="stop-color:#F7D8E0"/>
								<stop  offset="1" style="stop-color:#EBB6C0"/>
							</linearGradient>
							<path style="fill:url(#SVGID_00000012441376594090465510000011727925433565812655_);" d="M164.47,114.73
								c0,0-0.43,2.61-1.63,2.32c-1.03-0.24-0.68-1.98-0.68-1.98S162.41,113.21,164.47,114.73z"/>
							<path class="st65" d="M164.3,114.25c-0.5-0.65-1.27-0.36-1.5-0.3c-1.08,0.18-0.77,1.57-0.77,1.52
								c-0.02-0.18,0.15-0.33,0.23-0.41c0.01-0.02,0.02-0.03,0.04-0.04c0,0.01-0.02,0.02-0.04,0.04c-0.11,0.13-0.11,0.31-0.11,0.31
								s0.25-0.42,0.8-0.36c0.55,0.06,1.18-0.36,1.18-0.36c-0.04,0.21,0.04,0.49,0.09,0.65c0.09,0.3-0.06,0.5-0.12,0.57
								c0.26-0.05,0.51-0.47,0.55-0.66c0.03-0.19,0.08-0.2,0.01-0.59C164.57,114.21,164.32,114.28,164.3,114.25z"/>
							<path class="st65" d="M162.29,115.03c-0.01,0.01-0.03,0.03-0.04,0.04C162.28,115.05,162.29,115.03,162.29,115.03z"/>
						</g>
						
							<linearGradient id="SVGID_00000132054877171584790190000002119683156346989966_" gradientUnits="userSpaceOnUse" x1="162.2828" y1="118.3692" x2="164.2878" y2="118.3692">
							<stop  offset="0" style="stop-color:#E0EFFA"/>
							<stop  offset="1" style="stop-color:#B7D4EF"/>
						</linearGradient>
						<path style="fill:url(#SVGID_00000132054877171584790190000002119683156346989966_);" d="M164.29,117.49
							c-0.05,0-0.09-0.01-0.11-0.01l0,0c-0.02,0-0.03,0-0.04,0c-0.08,0-0.85,0.48-1.8-0.02c-0.01,0-0.03,0.01-0.04,0.01
							c0,0.01-0.01,0.01-0.01,0.01c0.02,0.1,0.04,0.45,0.06,0.91c0.01,0.24,0.03,0.51,0.05,0.79c0.27,0.07,0.55,0.11,0.84,0.11
							c0.22,0,0.43-0.02,0.63-0.06c0.06-0.29,0.12-0.56,0.18-0.81c0.08-0.36,0.15-0.66,0.2-0.82l0,0
							C164.26,117.54,164.28,117.51,164.29,117.49z"/>
						
							<linearGradient id="SVGID_00000133505781209131957300000003601127463712691844_" gradientUnits="userSpaceOnUse" x1="163.8747" y1="118.3411" x2="166.1177" y2="118.3411">
							<stop  offset="0" style="stop-color:#355C8E"/>
							<stop  offset="1" style="stop-color:#092847"/>
						</linearGradient>
						<path style="fill:url(#SVGID_00000133505781209131957300000003601127463712691844_);" d="M165.68,117.48
							c-0.31-0.05-0.95,0.04-1.37-0.01c0,0-0.01,0.01-0.02,0.02c-0.01,0.02-0.02,0.06-0.04,0.11c-0.05,0.16-0.12,0.45-0.2,0.82
							c-0.05,0.25-0.11,0.52-0.18,0.81c0.29-0.06,0.56-0.15,0.81-0.28c0.62-0.31,1.12-0.8,1.43-1.41
							C166.01,117.51,165.86,117.51,165.68,117.48z"/>
						
							<linearGradient id="SVGID_00000162341635521748913810000001288484070371767221_" gradientUnits="userSpaceOnUse" x1="160.4989" y1="118.3123" x2="162.3984" y2="118.3123">
							<stop  offset="0" style="stop-color:#355C8E"/>
							<stop  offset="1" style="stop-color:#092847"/>
						</linearGradient>
						<path style="fill:url(#SVGID_00000162341635521748913810000001288484070371767221_);" d="M162.35,118.39
							c-0.03-0.46-0.05-0.81-0.06-0.91c0,0,0-0.01,0-0.01c0-0.01,0-0.01-0.01-0.02l-0.65,0c-0.1,0-0.58,0.1-0.81,0.21v-0.01
							c-0.05-0.01-0.09,0-0.14,0.02c-0.05,0.02-0.11,0.06-0.17,0.09c0.06,0.1,0.13,0.19,0.2,0.28c0.04,0.05,0.07,0.09,0.11,0.14
							c0.23,0.27,0.51,0.49,0.82,0.67c0.24,0.14,0.5,0.25,0.77,0.32C162.38,118.89,162.36,118.63,162.35,118.39z"/>
					</g>
				</g>
			</g>
			<g>
				
					<linearGradient id="SVGID_00000067937384646997562310000004842173073669931937_" gradientUnits="userSpaceOnUse" x1="157.2989" y1="132.0086" x2="198.4453" y2="132.0086">
					<stop  offset="0" style="stop-color:#D6ECFA"/>
					<stop  offset="1" style="stop-color:#A7CFEE"/>
				</linearGradient>
				<path style="fill:url(#SVGID_00000067937384646997562310000004842173073669931937_);" d="M193.36,138.28h-30.97
					c-2.8,0-5.09-2.29-5.09-5.09v-2.36c0-2.8,2.29-5.09,5.09-5.09h30.97c2.8,0,5.09,2.29,5.09,5.09v2.36
					C198.45,135.99,196.16,138.28,193.36,138.28z"/>
				<g>
					<path class="st2" d="M163.25,127.84c-1.77,0-3.21,1.44-3.21,3.21c0,1.77,1.44,3.21,3.21,3.21c1.77,0,3.21-1.44,3.21-3.21
						C166.46,129.28,165.02,127.84,163.25,127.84z"/>
					<g>
						<path class="st70" d="M164.7,129.74c-0.06-0.15-0.19-0.25-0.32-0.34c-0.29-0.21-0.59-0.43-0.93-0.49
							c-0.45-0.09-0.93,0.1-1.25,0.43c-0.32,0.33-0.49,0.78-0.55,1.24c-0.02,0.22-0.02,0.45,0.07,0.65
							c0.03,0.07,0.07,0.13,0.08,0.21c0.01,0.07-0.02,0.14-0.03,0.21c-0.01,0.13,0.05,0.27,0.17,0.34c0.11,0.07,0.27,0.07,0.38,0
							c0.05,0.09-0.02,0.22,0.04,0.3c0.02,0.03,0.05,0.04,0.09,0.05c0.19,0.07,0.41,0.04,0.57-0.07c0.05,0.13,0.18,0.23,0.32,0.24
							c0.14,0.01,0.29-0.06,0.36-0.17c0.11,0.08,0.26,0.1,0.38,0.04c0.12-0.06,0.21-0.18,0.22-0.31c0.08,0.07,0.22,0.02,0.25-0.08
							c0.04-0.1-0.03-0.15-0.04-0.24c0-0.08,0.02-0.13,0.05-0.23c0.04-0.12,0.05-0.24,0.08-0.36c0.07-0.38,0.13-0.76,0.11-1.15
							C164.74,129.91,164.73,129.82,164.7,129.74z"/>
						
							<linearGradient id="SVGID_00000090998835722688257930000007010166099122835381_" gradientUnits="userSpaceOnUse" x1="162.1862" y1="132.3546" x2="164.3516" y2="132.3546">
							<stop  offset="0" style="stop-color:#DCBBC2"/>
							<stop  offset="1" style="stop-color:#D8A1AB"/>
						</linearGradient>
						<path style="fill:url(#SVGID_00000090998835722688257930000007010166099122835381_);" d="M163.44,131.74
							c0,0,0.06,0.94,0.77,1.29c0.72,0.35-1.46,0.53-1.9,0.34c-0.44-0.2,0.42-0.77,0.52-2.09
							C162.83,131.3,163.44,131.74,163.44,131.74z"/>
						
							<linearGradient id="SVGID_00000028287867445371504270000016438582904822748034_" gradientUnits="userSpaceOnUse" x1="162.2917" y1="130.8098" x2="164.3466" y2="130.8098">
							<stop  offset="0" style="stop-color:#FAD3DA"/>
							<stop  offset="1" style="stop-color:#ECAFB9"/>
						</linearGradient>
						<path style="fill:url(#SVGID_00000028287867445371504270000016438582904822748034_);" d="M162.39,129.58
							c0,0-0.48,2.52,0.67,2.64c0.99,0.11,1.26-1.6,1.26-1.6S164.69,128.85,162.39,129.58z"/>
						<path class="st70" d="M164.85,130.31c0.1-0.12,0.16-0.28,0.13-0.44c-0.03-0.15-0.16-0.3-0.33-0.31
							c0.13-0.14,0.05-0.38-0.13-0.47c-0.17-0.09-0.39-0.05-0.57,0.02c0.06-0.09,0.04-0.21-0.02-0.29
							c-0.06-0.08-0.17-0.14-0.27-0.15c-0.15-0.02-0.33,0.04-0.35,0.18c-0.01-0.2-0.22-0.36-0.42-0.34
							c-0.2,0.01-0.38,0.17-0.42,0.37c-0.19-0.09-0.43-0.07-0.59,0.05c-0.17,0.12-0.25,0.34-0.2,0.53
							c-0.12-0.05-0.27,0.04-0.32,0.16c-0.04,0.12-0.04,0.32,0,0.44c0.02,0.07,0.05,0.14,0.07,0.16c0,0-0.16-0.08-0.17,0.12
							c-0.01,0.23,0.07,0.46,0.24,0.62c-0.13-0.01-0.22,0.15-0.18,0.27c0.05,0.12,0.18,0.19,0.31,0.22
							c-0.08,0.09-0.04,0.24,0.06,0.31c0.1,0.07,0.24,0.07,0.36,0.02c0.11-0.04,0.2-0.12,0.23-0.23c0.03-0.11,0-0.23-0.1-0.3
							c0.11-0.06,0.14-0.2,0.11-0.31c-0.03-0.12-0.1-0.22-0.18-0.31c0.12,0,0.21-0.09,0.24-0.2c0.03-0.11,0-0.22-0.03-0.33
							c0.18-0.01,0.42-0.07,0.41-0.24c0.17,0.06,0.28-0.17,0.27-0.37c0.01,0.1,0.06,0.41,0.29,0.44c0.18,0.02,0.27-0.01,0.35,0.12
							c0.07,0.11,0.31,0.13,0.44,0.11c-0.16,0.16-0.16,0.44,0.01,0.59c-0.14,0.04-0.25,0.17-0.26,0.31
							c-0.01,0.14,0.08,0.28,0.22,0.34c-0.17,0.02-0.21,0.22-0.21,0.38c0,0.04,0,0.09,0.03,0.12c0.09,0.08,0.27-0.04,0.34,0.06
							c-0.1,0.04-0.09,0.19-0.01,0.25c0.08,0.06,0.21,0.06,0.3,0.02c0.07-0.03,0.14-0.07,0.16-0.13c0.05-0.13-0.09-0.28-0.04-0.42
							c0.13,0.08,0.32-0.02,0.36-0.16c0.04-0.14-0.05-0.3-0.18-0.37c0.18-0.09,0.39-0.21,0.4-0.4
							C165.26,130.55,165.04,130.41,164.85,130.31z"/>
					</g>
					
						<linearGradient id="SVGID_00000024703913931479379230000004863734697261192626_" gradientUnits="userSpaceOnUse" x1="160.6761" y1="133.3982" x2="165.6788" y2="133.3982">
						<stop  offset="0" style="stop-color:#2F5B90"/>
						<stop  offset="1" style="stop-color:#00254B"/>
					</linearGradient>
					<path style="fill:url(#SVGID_00000024703913931479379230000004863734697261192626_);" d="M164.64,132.56
						c-0.38,0.1-0.6,0.23-0.73,0.38c-0.81,0.31-1.62-0.15-1.62-0.15s0.04,0-0.25,0.01c-0.13-0.08-0.3-0.15-0.53-0.21
						c-0.28-0.07-0.57,0.08-0.84,0.38c0.13,0.18,0.28,0.34,0.45,0.49c0.25,0.22,0.53,0.4,0.85,0.54c0.39,0.17,0.82,0.27,1.28,0.27
						c0.37,0,0.73-0.06,1.06-0.18c0.13-0.05,0.26-0.1,0.38-0.16c0.37-0.19,0.71-0.45,0.98-0.77
						C165.34,132.72,164.98,132.47,164.64,132.56z"/>
				</g>
				
					<linearGradient id="SVGID_00000129909882666845474090000000098670653340421813_" gradientUnits="userSpaceOnUse" x1="170.8246" y1="137.1245" x2="195.4107" y2="122.9297">
					<stop  offset="0" style="stop-color:#ADC8E8"/>
					<stop  offset="1" style="stop-color:#70A3D7"/>
				</linearGradient>
				<path style="fill:url(#SVGID_00000129909882666845474090000000098670653340421813_);" d="M169.17,127.84v6.41h2.54l-0.73,2.75
					l3.89-2.75h18.19c1.11,0,2.01-1.01,2.01-2.26v-4.15H169.17z"/>
				<g>
					
						<linearGradient id="SVGID_00000075845184858304985250000007930468660365440152_" gradientUnits="userSpaceOnUse" x1="173.5177" y1="-723.1926" x2="171.6617" y2="-719.9779" gradientTransform="matrix(1 0 0 -1 0 -590.4512)">
						<stop  offset="0" style="stop-color:#355C8E"/>
						<stop  offset="1" style="stop-color:#092847"/>
					</linearGradient>
					<polygon style="fill:url(#SVGID_00000075845184858304985250000007930468660365440152_);" points="172.57,132.12 173.64,132.67 
						173.43,131.5 174.3,130.66 173.1,130.49 172.57,129.42 172.03,130.49 170.83,130.66 171.7,131.5 171.49,132.67 					"/>
					
						<linearGradient id="SVGID_00000129174458056957441340000002038955808859852720_" gradientUnits="userSpaceOnUse" x1="178.2924" y1="-723.1923" x2="176.4364" y2="-719.9776" gradientTransform="matrix(1 0 0 -1 0 -590.4512)">
						<stop  offset="0" style="stop-color:#355C8E"/>
						<stop  offset="1" style="stop-color:#092847"/>
					</linearGradient>
					<polygon style="fill:url(#SVGID_00000129174458056957441340000002038955808859852720_);" points="177.34,132.12 178.41,132.67 
						178.21,131.5 179.08,130.66 177.88,130.49 177.34,129.42 176.8,130.49 175.6,130.66 176.47,131.5 176.27,132.67 					"/>
					
						<linearGradient id="SVGID_00000072992397543830831200000008579704957757990293_" gradientUnits="userSpaceOnUse" x1="183.0672" y1="-723.1925" x2="181.2111" y2="-719.9777" gradientTransform="matrix(1 0 0 -1 0 -590.4512)">
						<stop  offset="0" style="stop-color:#355C8E"/>
						<stop  offset="1" style="stop-color:#092847"/>
					</linearGradient>
					<polygon style="fill:url(#SVGID_00000072992397543830831200000008579704957757990293_);" points="182.11,132.12 183.19,132.67 
						182.98,131.5 183.85,130.66 182.65,130.49 182.11,129.42 181.58,130.49 180.38,130.66 181.25,131.5 181.04,132.67 					"/>
					
						<linearGradient id="SVGID_00000106131689137417489320000011906044230158118828_" gradientUnits="userSpaceOnUse" x1="187.8421" y1="-723.1927" x2="185.986" y2="-719.9778" gradientTransform="matrix(1 0 0 -1 0 -590.4512)">
						<stop  offset="0" style="stop-color:#355C8E"/>
						<stop  offset="1" style="stop-color:#092847"/>
					</linearGradient>
					<polygon style="fill:url(#SVGID_00000106131689137417489320000011906044230158118828_);" points="186.89,132.12 187.96,132.67 
						187.76,131.5 188.63,130.66 187.43,130.49 186.89,129.42 186.35,130.49 185.15,130.66 186.02,131.5 185.82,132.67 					"/>
					
						<linearGradient id="SVGID_00000183232522951969873720000010241399804404956818_" gradientUnits="userSpaceOnUse" x1="192.6165" y1="-723.1926" x2="190.7607" y2="-719.9781" gradientTransform="matrix(1 0 0 -1 0 -590.4512)">
						<stop  offset="0" style="stop-color:#E0EFFA"/>
						<stop  offset="1" style="stop-color:#B7D4EF"/>
					</linearGradient>
					<polygon style="fill:url(#SVGID_00000183232522951969873720000010241399804404956818_);" points="191.66,132.12 192.74,132.67 
						192.53,131.5 193.4,130.66 192.2,130.49 191.66,129.42 191.13,130.49 189.93,130.66 190.8,131.5 190.59,132.67 					"/>
				</g>
			</g>
		</g>
		<g>
			<g>
				
					<linearGradient id="SVGID_00000179635397421589871970000006051107677532691355_" gradientUnits="userSpaceOnUse" x1="112.1054" y1="124.5384" x2="155.1811" y2="124.5384">
					<stop  offset="0" style="stop-color:#D6ECFA"/>
					<stop  offset="1" style="stop-color:#A7CFEE"/>
				</linearGradient>
				<path style="fill:url(#SVGID_00000179635397421589871970000006051107677532691355_);" d="M152.33,110.8h-37.38
					c-1.57,0-2.85,1.28-2.85,2.85v21.78c0,1.57,1.28,2.85,2.85,2.85h37.38c1.57,0,2.85-1.28,2.85-2.85v-21.78
					C155.18,112.08,153.91,110.8,152.33,110.8z"/>
				
					<linearGradient id="SVGID_00000067210656767414675570000016753155466983400374_" gradientUnits="userSpaceOnUse" x1="112.1054" y1="112.8113" x2="155.1811" y2="112.8113">
					<stop  offset="0" style="stop-color:#A0C4E7"/>
					<stop  offset="1" style="stop-color:#67A1D7"/>
				</linearGradient>
				<path style="fill:url(#SVGID_00000067210656767414675570000016753155466983400374_);" d="M155.18,114.82v-1.17
					c0-1.57-1.28-2.85-2.85-2.85h-37.38c-1.57,0-2.85,1.28-2.85,2.85v1.17H155.18z"/>
			</g>
			<g>
				
					<linearGradient id="SVGID_00000080927812865892829140000003565546678047815044_" gradientUnits="userSpaceOnUse" x1="145.81" y1="112.8114" x2="147.1991" y2="112.8114">
					<stop  offset="0" style="stop-color:#D6ECFA"/>
					<stop  offset="1" style="stop-color:#A7CFEE"/>
				</linearGradient>
				<path style="fill:url(#SVGID_00000080927812865892829140000003565546678047815044_);" d="M147.2,112.81
					c0,0.36-0.31,0.66-0.69,0.66c-0.38,0-0.69-0.29-0.69-0.66c0-0.36,0.31-0.66,0.69-0.66C146.89,112.15,147.2,112.45,147.2,112.81z
					"/>
				
					<linearGradient id="SVGID_00000052800483339548045600000017265750188618083492_" gradientUnits="userSpaceOnUse" x1="148.3056" y1="112.8114" x2="149.6947" y2="112.8114">
					<stop  offset="0" style="stop-color:#D6ECFA"/>
					<stop  offset="1" style="stop-color:#A7CFEE"/>
				</linearGradient>
				<path style="fill:url(#SVGID_00000052800483339548045600000017265750188618083492_);" d="M149.69,112.81
					c0,0.36-0.31,0.66-0.69,0.66s-0.69-0.29-0.69-0.66c0-0.36,0.31-0.66,0.69-0.66S149.69,112.45,149.69,112.81z"/>
				
					<linearGradient id="SVGID_00000022552038843914573580000004405442703559903405_" gradientUnits="userSpaceOnUse" x1="150.8008" y1="112.8114" x2="152.1899" y2="112.8114">
					<stop  offset="0" style="stop-color:#D6ECFA"/>
					<stop  offset="1" style="stop-color:#A7CFEE"/>
				</linearGradient>
				<path style="fill:url(#SVGID_00000022552038843914573580000004405442703559903405_);" d="M152.19,112.81
					c0,0.36-0.31,0.66-0.69,0.66c-0.38,0-0.69-0.29-0.69-0.66c0-0.36,0.31-0.66,0.69-0.66
					C151.88,112.15,152.19,112.45,152.19,112.81z"/>
			</g>
			<g>
				
					<linearGradient id="SVGID_00000117643328079390790260000004971612205216805053_" gradientUnits="userSpaceOnUse" x1="125.6091" y1="119.3505" x2="135.6751" y2="119.3505">
					<stop  offset="0" style="stop-color:#75A9DB"/>
					<stop  offset="1" style="stop-color:#3F6FAC"/>
				</linearGradient>
				<path style="fill:url(#SVGID_00000117643328079390790260000004971612205216805053_);" d="M135.33,119.01h-9.37
					c-0.19,0-0.35,0.15-0.35,0.34c0,0.19,0.16,0.34,0.35,0.34h9.37c0.19,0,0.35-0.15,0.35-0.34
					C135.68,119.16,135.52,119.01,135.33,119.01z"/>
				
					<linearGradient id="SVGID_00000174559597397768709350000008202244132504271293_" gradientUnits="userSpaceOnUse" x1="125.6091" y1="121.5857" x2="133.8307" y2="121.5857">
					<stop  offset="0" style="stop-color:#75A9DB"/>
					<stop  offset="1" style="stop-color:#3F6FAC"/>
				</linearGradient>
				<path style="fill:url(#SVGID_00000174559597397768709350000008202244132504271293_);" d="M133.55,121.25h-7.66
					c-0.16,0-0.28,0.15-0.28,0.34c0,0.19,0.13,0.34,0.28,0.34h7.66c0.16,0,0.28-0.15,0.28-0.34
					C133.83,121.4,133.7,121.25,133.55,121.25z"/>
				
					<linearGradient id="SVGID_00000137090170488673899140000010341557031889921181_" gradientUnits="userSpaceOnUse" x1="139.3317" y1="119.3505" x2="149.3977" y2="119.3505">
					<stop  offset="0" style="stop-color:#75A9DB"/>
					<stop  offset="1" style="stop-color:#3F6FAC"/>
				</linearGradient>
				<path style="fill:url(#SVGID_00000137090170488673899140000010341557031889921181_);" d="M149.05,119.01h-9.37
					c-0.19,0-0.35,0.15-0.35,0.34c0,0.19,0.16,0.34,0.35,0.34h9.37c0.19,0,0.35-0.15,0.35-0.34
					C149.4,119.16,149.24,119.01,149.05,119.01z"/>
				
					<linearGradient id="SVGID_00000071526061040030246620000016077519836317806736_" gradientUnits="userSpaceOnUse" x1="125.6091" y1="123.7779" x2="135.6751" y2="123.7779">
					<stop  offset="0" style="stop-color:#75A9DB"/>
					<stop  offset="1" style="stop-color:#3F6FAC"/>
				</linearGradient>
				<path style="fill:url(#SVGID_00000071526061040030246620000016077519836317806736_);" d="M135.33,123.44h-9.37
					c-0.19,0-0.35,0.15-0.35,0.34c0,0.19,0.16,0.34,0.35,0.34h9.37c0.19,0,0.35-0.15,0.35-0.34
					C135.68,123.59,135.52,123.44,135.33,123.44z"/>
				
					<linearGradient id="SVGID_00000064355677554868352170000002720189792930847152_" gradientUnits="userSpaceOnUse" x1="138.0915" y1="123.7779" x2="141.01" y2="123.7779">
					<stop  offset="0" style="stop-color:#75A9DB"/>
					<stop  offset="1" style="stop-color:#3F6FAC"/>
				</linearGradient>
				<path style="fill:url(#SVGID_00000064355677554868352170000002720189792930847152_);" d="M140.66,123.44h-2.23
					c-0.19,0-0.35,0.15-0.35,0.34c0,0.19,0.16,0.34,0.35,0.34h2.23c0.19,0,0.35-0.15,0.35-0.34
					C141.01,123.59,140.85,123.44,140.66,123.44z"/>
				
					<linearGradient id="SVGID_00000042727658866770988090000009356932402092753815_" gradientUnits="userSpaceOnUse" x1="143.5544" y1="123.7779" x2="146.4728" y2="123.7779">
					<stop  offset="0" style="stop-color:#75A9DB"/>
					<stop  offset="1" style="stop-color:#3F6FAC"/>
				</linearGradient>
				<path style="fill:url(#SVGID_00000042727658866770988090000009356932402092753815_);" d="M146.13,123.44h-2.23
					c-0.19,0-0.35,0.15-0.35,0.34c0,0.19,0.15,0.34,0.35,0.34h2.23c0.19,0,0.35-0.15,0.35-0.34
					C146.47,123.59,146.32,123.44,146.13,123.44z"/>
				
					<linearGradient id="SVGID_00000148630036143145285430000013940651475421754542_" gradientUnits="userSpaceOnUse" x1="137.0668" y1="121.5857" x2="144.0818" y2="121.5857">
					<stop  offset="0" style="stop-color:#75A9DB"/>
					<stop  offset="1" style="stop-color:#3F6FAC"/>
				</linearGradient>
				<path style="fill:url(#SVGID_00000148630036143145285430000013940651475421754542_);" d="M143.74,121.25h-6.32
					c-0.19,0-0.35,0.15-0.35,0.34c0,0.19,0.16,0.34,0.35,0.34h6.32c0.19,0,0.35-0.15,0.35-0.34
					C144.08,121.4,143.93,121.25,143.74,121.25z"/>
			</g>
			<g>
				<path class="st2" d="M135.98,127.59h-18.3c-0.65,0-1.19,0.54-1.19,1.19v5.98c0,0.66,0.53,1.19,1.19,1.19h18.3
					c0.65,0,1.19-0.54,1.19-1.19v-5.98C137.17,128.12,136.64,127.59,135.98,127.59z"/>
				
					<linearGradient id="SVGID_00000015324885623989987680000005607581301834741690_" gradientUnits="userSpaceOnUse" x1="-4651.4839" y1="132.2081" x2="-4644.0859" y2="132.2081" gradientTransform="matrix(1 0 0 1 4774.7192 0)">
					<stop  offset="0" style="stop-color:#A0C4E7"/>
					<stop  offset="1" style="stop-color:#67A1D7"/>
				</linearGradient>
				<polygon style="fill:url(#SVGID_00000015324885623989987680000005607581301834741690_);" points="128.38,130.61 127.56,132.21 
					126.11,129.4 123.24,135.02 126.12,135.02 128.99,135.02 130.63,135.02 				"/>
				
					<linearGradient id="SVGID_00000158019511529323017220000016195758751953801107_" gradientUnits="userSpaceOnUse" x1="3028.804" y1="129.1775" x2="3030.2058" y2="129.1775" gradientTransform="matrix(-1 0 0 1 3160.3262 0)">
					<stop  offset="0" style="stop-color:#A0C4E7"/>
					<stop  offset="1" style="stop-color:#67A1D7"/>
				</linearGradient>
				<path style="fill:url(#SVGID_00000158019511529323017220000016195758751953801107_);" d="M130.12,129.18
					c0,0.39,0.31,0.71,0.7,0.71c0.39,0,0.7-0.32,0.7-0.71c0-0.39-0.31-0.71-0.7-0.71C130.43,128.47,130.12,128.79,130.12,129.18z"/>
			</g>
			<g>
				
					<linearGradient id="SVGID_00000000927633598178047300000000491007904437024400_" gradientUnits="userSpaceOnUse" x1="142.7574" y1="133.8091" x2="142.7574" y2="127.8267">
					<stop  offset="0" style="stop-color:#FAD3DA"/>
					<stop  offset="1" style="stop-color:#ECAFB9"/>
				</linearGradient>
				<path style="fill:url(#SVGID_00000000927633598178047300000000491007904437024400_);" d="M144.94,127.83h-4.37
					c-0.44,0-0.81,0.36-0.81,0.81V133c0,0.44,0.36,0.81,0.81,0.81h4.37c0.44,0,0.81-0.36,0.81-0.81v-4.37
					C145.75,128.19,145.39,127.83,144.94,127.83z"/>
				<g id="mail">
					<path class="st2" d="M142.6,131.03c0.18,0.18,0.33,0,0.33,0l1.42-1.35h-3.18L142.6,131.03z"/>
					<path class="st2" d="M142.99,131.18c-0.24,0.21-0.46-0.01-0.46-0.01l-0.26-0.24l-1.09,1.02h3.18l-1.09-1.02L142.99,131.18z"/>
					<polygon class="st2" points="141.05,131.85 142.14,130.82 141.05,129.8 					"/>
					<polygon class="st2" points="144.46,131.85 144.46,129.8 143.37,130.82 					"/>
				</g>
				<g>
					
						<linearGradient id="SVGID_00000038378419721340438670000002235893369457533374_" gradientUnits="userSpaceOnUse" x1="139.1522" y1="128.319" x2="140.6923" y2="128.319">
						<stop  offset="0" style="stop-color:#75ABDC"/>
						<stop  offset="1" style="stop-color:#3F6EAC"/>
					</linearGradient>
					<path style="fill:url(#SVGID_00000038378419721340438670000002235893369457533374_);" d="M139.92,129.09L139.92,129.09
						c-0.42,0-0.77-0.35-0.77-0.77l0,0c0-0.42,0.35-0.77,0.77-0.77l0,0c0.42,0,0.77,0.35,0.77,0.77l0,0
						C140.69,128.74,140.35,129.09,139.92,129.09z"/>
					<path class="st2" d="M140.02,128h-0.09l-0.29,0.41v0.06h0.3v0.17h0.08v-0.17h0.09v-0.07h-0.09V128z M139.94,128.18v0.21h-0.21
						v0l0.16-0.22c0.02-0.03,0.03-0.06,0.05-0.09h0C139.94,128.12,139.94,128.15,139.94,128.18z"/>
				</g>
			</g>
			<g>
				
					<linearGradient id="SVGID_00000134251556051693224770000008416015003802259385_" gradientUnits="userSpaceOnUse" x1="146.9727" y1="130.8549" x2="152.8812" y2="130.8549">
					<stop  offset="0" style="stop-color:#A0C4E7"/>
					<stop  offset="1" style="stop-color:#67A1D7"/>
				</linearGradient>
				<path style="fill:url(#SVGID_00000134251556051693224770000008416015003802259385_);" d="M152.08,127.9h-4.31
					c-0.44,0-0.8,0.36-0.8,0.8v4.31c0,0.44,0.36,0.8,0.8,0.8h4.31c0.44,0,0.8-0.36,0.8-0.8v-4.31
					C152.88,128.26,152.52,127.9,152.08,127.9z"/>
				<path class="st2" d="M151.19,130.64H150c0.05-0.18,0.13-0.53,0.13-0.76c0-0.23-0.04-0.53-0.16-0.64
					c-0.12-0.11-0.34-0.04-0.37,0.03c-0.03,0.07,0.02,0.42,0,0.56c-0.03,0.31-0.5,0.95-0.64,1.04c-0.45,0.3-0.54,1.59,0.12,1.66
					l1.71,0c0.34,0,0.35-0.43,0.12-0.47l0.06,0c0.22-0.02,0.31-0.41,0.03-0.48l0.05,0c0.21-0.02,0.3-0.39,0.01-0.47l0.07-0.01
					C151.46,131.09,151.48,130.64,151.19,130.64z"/>
			</g>
			<g>
				<path class="st2" d="M119.41,118.38c-1.8-0.14-3.37,1.18-3.51,2.95c-0.14,1.77,1.21,3.32,3.01,3.46
					c1.8,0.14,3.37-1.18,3.51-2.95C122.56,120.07,121.21,118.52,119.41,118.38z"/>
				<g>
					
						<linearGradient id="SVGID_00000010293774933034766070000000082547993473386661_" gradientUnits="userSpaceOnUse" x1="622.0651" y1="51.404" x2="624.0483" y2="51.404" gradientTransform="matrix(0.997 0.0778 -0.0778 0.997 -499.5909 21.9323)">
						<stop  offset="0" style="stop-color:#355C90"/>
						<stop  offset="1" style="stop-color:#092947"/>
					</linearGradient>
					<path style="fill:url(#SVGID_00000010293774933034766070000000082547993473386661_);" d="M117.95,123.29
						c0.08-0.1,0.31-0.27,0.53-0.3c-0.48-0.17-0.83-0.39-0.81-0.47c0.21-0.91,0.37-2.22,0.44-2.53c-0.08,0.11-0.15,0.25-0.21,0.42
						c0,0-0.45,1.94-1.39,2.32c0.4,0.31,0.79,0.53,1.17,0.66C117.85,123.32,117.95,123.28,117.95,123.29
						C117.95,123.28,117.95,123.28,117.95,123.29z"/>
					<path class="st98" d="M119.76,123.19c0.01,0,0.01-0.01,0.01-0.01C119.77,123.18,119.76,123.18,119.76,123.19L119.76,123.19z"/>
					<path class="st98" d="M120.13,123.14c0.02-0.01,0.04-0.02,0.05-0.03c-0.04,0.01-0.07,0.02-0.11,0.03
						C120.1,123.14,120.11,123.14,120.13,123.14z"/>
					
						<linearGradient id="SVGID_00000115478164823409762390000018022510079407183745_" gradientUnits="userSpaceOnUse" x1="622.3933" y1="53.5426" x2="623.5399" y2="53.5426" gradientTransform="matrix(0.997 0.0778 -0.0778 0.997 -499.5909 21.9323)">
						<stop  offset="0" style="stop-color:#355C90"/>
						<stop  offset="1" style="stop-color:#092947"/>
					</linearGradient>
					<path style="fill:url(#SVGID_00000115478164823409762390000018022510079407183745_);" d="M117.93,123.33
						c0.01-0.01,0.01-0.03,0.03-0.04c0-0.01,0-0.01,0-0.01s-0.1,0.04-0.26,0.1c-0.23,0.09-0.57,0.22-0.92,0.38
						c0.21,0.23,0.45,0.42,0.72,0.58C117.6,124.06,117.75,123.74,117.93,123.33z"/>
					
						<linearGradient id="SVGID_00000101073254800722281030000001696207121635770786_" gradientUnits="userSpaceOnUse" x1="624.3435" y1="52.8364" x2="625.3301" y2="52.8364" gradientTransform="matrix(0.997 0.0778 -0.0778 0.997 -499.5909 21.9323)">
						<stop  offset="0" style="stop-color:#E1C7CD"/>
						<stop  offset="1" style="stop-color:#DDABB6"/>
					</linearGradient>
					<path style="fill:url(#SVGID_00000101073254800722281030000001696207121635770786_);" d="M119.6,122.32
						c-0.14,0.08-0.32,0.11-0.55,0.05c-0.08-0.02-0.15-0.04-0.22-0.08c-0.02,0.22-0.04,0.48-0.05,0.76c0,0,0,0,0,0
						c0.01,0,0.01,0.15,0.03,0.32c0,0,0,0,0,0c0.06,0.55,0.24,1.45,0.89-0.14c0.01-0.02,0.02-0.04,0.04-0.05l0-0.01L119.6,122.32z"
						/>
					
						<linearGradient id="SVGID_00000132780851316146346130000014150367713726728098_" gradientUnits="userSpaceOnUse" x1="623.6681" y1="51.2268" x2="625.508" y2="51.2268" gradientTransform="matrix(0.997 0.0778 -0.0778 0.997 -499.5909 21.9323)">
						<stop  offset="0" style="stop-color:#FBDAE2"/>
						<stop  offset="1" style="stop-color:#EEB7C1"/>
					</linearGradient>
					<path style="fill:url(#SVGID_00000132780851316146346130000014150367713726728098_);" d="M119.6,122.32
						c0.25-0.14,0.39-0.44,0.46-0.77c-0.03-0.09-0.08-0.18-0.15-0.27c-0.99-1.05-1.56-0.11-1.68,0.12c0.06,0.37,0.23,0.72,0.61,0.9
						c0.07,0.03,0.14,0.06,0.22,0.08C119.28,122.43,119.46,122.4,119.6,122.32z"/>
					
						<linearGradient id="SVGID_00000006699893645481647870000007818672123239825568_" gradientUnits="userSpaceOnUse" x1="623.1605" y1="53.5361" x2="627.1619" y2="53.5361" gradientTransform="matrix(0.997 0.0778 -0.0778 0.997 -499.5909 21.9323)">
						<stop  offset="0" style="stop-color:#355C90"/>
						<stop  offset="1" style="stop-color:#092947"/>
					</linearGradient>
					<path style="fill:url(#SVGID_00000006699893645481647870000007818672123239825568_);" d="M120.51,123.22
						c-0.08-0.02-0.23-0.06-0.37-0.08c-0.02,0-0.04,0-0.05-0.01c-0.12-0.01-0.24-0.01-0.31,0.04c0,0-0.01,0.01-0.01,0.01
						c-0.02,0.01-0.03,0.03-0.04,0.05c-0.65,1.59-0.83,0.68-0.89,0.14c0,0,0,0,0,0c-0.02-0.18-0.03-0.32-0.03-0.32c0,0,0,0,0,0
						c-0.09-0.07-0.2-0.09-0.3-0.07c-0.22,0.03-0.45,0.2-0.53,0.3c-0.01,0.01-0.02,0.03-0.03,0.04c-0.18,0.41-0.33,0.73-0.44,1.01
						c0.22,0.13,0.46,0.24,0.72,0.32c0.22,0.07,0.46,0.11,0.7,0.13c1.03,0.08,1.98-0.32,2.63-1
						C121.34,123.59,120.99,123.35,120.51,123.22z"/>
					<path class="st103" d="M119.9,119.63c-0.33-0.23-0.79-0.32-1.22-0.1c-0.19,0.08-0.47,0.27-0.63,0.55
						c-0.07,0.31-0.16,1.89-0.57,2.63c-0.1,0.19,0.52,0.11,1.01,0.27c0.11-0.02,0.22,0,0.3,0.07c0.01-0.27,0.03-0.54,0.05-0.76
						c-0.37-0.18-0.54-0.52-0.61-0.9c0.12-0.23,0.69-1.16,1.68-0.12c0.07,0.09,0.12,0.18,0.15,0.27c-0.07,0.33-0.21,0.63-0.46,0.77
						l0.15,0.86c0.01,0,0.01,0,0.01,0c0.07-0.05,0.18-0.05,0.31-0.04c0.04-0.01,0.07-0.02,0.11-0.03c0.9-0.59,0.65-2.25,0.24-2.95
						C120.26,119.9,120.08,119.74,119.9,119.63z"/>
				</g>
			</g>
		</g>
		<g>
			<g>
				<path class="st104" d="M211.11,110.39h-8.85c-0.98,0-1.78,0.8-1.78,1.78v8.85c0,0.98,0.8,1.78,1.78,1.78h8.85
					c0.98,0,1.78-0.8,1.78-1.78v-8.85C212.89,111.19,212.09,110.39,211.11,110.39z"/>
				<path class="st2" d="M208.35,115.74c0.54,0,0.98-0.44,0.98-0.98c0-0.54-0.44-0.98-0.98-0.98c-0.54,0-0.98,0.44-0.98,0.98
					c0,0.05,0,0.1,0.01,0.15l-1.63,1.03c-0.18-0.2-0.44-0.32-0.73-0.32c-0.54,0-0.98,0.44-0.98,0.98s0.44,0.98,0.98,0.98
					c0.29,0,0.55-0.12,0.73-0.32l1.63,1.03c-0.01,0.05-0.01,0.1-0.01,0.15c0,0.54,0.44,0.98,0.98,0.98c0.54,0,0.98-0.44,0.98-0.98
					s-0.44-0.98-0.98-0.98c-0.28,0-0.53,0.12-0.71,0.31l-1.64-1.03c0.01-0.04,0.01-0.08,0.01-0.13s0-0.09-0.01-0.13l1.64-1.03
					C207.82,115.62,208.07,115.74,208.35,115.74z"/>
			</g>
			<g>
				
					<linearGradient id="SVGID_00000181769384384310361530000005718746949818006149_" gradientUnits="userSpaceOnUse" x1="200.483" y1="132.0724" x2="212.8901" y2="132.0724">
					<stop  offset="0" style="stop-color:#D6ECFA"/>
					<stop  offset="1" style="stop-color:#A7CFEE"/>
				</linearGradient>
				<path style="fill:url(#SVGID_00000181769384384310361530000005718746949818006149_);" d="M211.11,125.87h-8.85
					c-0.98,0-1.78,0.8-1.78,1.78v8.85c0,0.98,0.8,1.78,1.78,1.78h8.85c0.98,0,1.78-0.8,1.78-1.78v-8.85
					C212.89,126.67,212.09,125.87,211.11,125.87z"/>
				
					<linearGradient id="SVGID_00000108994436886212960270000002731401864225990032_" gradientUnits="userSpaceOnUse" x1="204.8039" y1="132.4626" x2="208.5692" y2="132.4626">
					<stop  offset="0" style="stop-color:#2F5B90"/>
					<stop  offset="1" style="stop-color:#00254B"/>
				</linearGradient>
				<path style="fill:url(#SVGID_00000108994436886212960270000002731401864225990032_);" d="M208.57,133.07
					c0-0.55-0.4-1.03-0.86-1.34v-2.02c0.38-0.03,0.69-0.32,0.69-0.69c0-0.02,0-0.03,0-0.05h-3.42c0,0.02,0,0.03,0,0.05
					c0,0.36,0.31,0.66,0.69,0.69v2.02c-0.45,0.31-0.86,0.79-0.86,1.34c0,0,0,0.01,0,0.01h1.65l0.08,2.45c0,0.12,0.11,0.42,0.15,0.42
					c0.05,0,0.15-0.3,0.15-0.42l0.08-2.45L208.57,133.07C208.57,133.08,208.57,133.08,208.57,133.07z"/>
			</g>
		</g>
	</g>
	<g>
		
			<linearGradient id="SVGID_00000003814502200568840890000001668809091505259139_" gradientUnits="userSpaceOnUse" x1="156.3773" y1="41.9744" x2="168.6293" y2="111.4589">
			<stop  offset="0" style="stop-color:#AEC9E9"/>
			<stop  offset="1" style="stop-color:#72A4D7"/>
		</linearGradient>
		<path style="fill:url(#SVGID_00000003814502200568840890000001668809091505259139_);" d="M212.89,49.8H111.97v52.99h100.92V49.8z
			 M116.77,102.61h-4.62v-4.62h4.62V102.61z M116.77,97.81h-4.62v-4.62h4.62V97.81z M116.77,93.01h-4.62v-4.62h4.62V93.01z
			 M116.77,88.21h-4.62v-4.62h4.62V88.21z M116.77,83.41h-4.62v-4.62h4.62V83.41z M116.77,78.61h-4.62v-4.62h4.62V78.61z
			 M116.77,73.81h-4.62v-4.62h4.62V73.81z M116.77,69.01h-4.62v-4.62h4.62V69.01z M116.77,64.21h-4.62v-4.62h4.62V64.21z
			 M116.77,59.41h-4.62v-4.62h4.62V59.41z M116.77,54.61h-4.62v-4.62h4.62V54.61z M121.57,102.61h-4.62v-4.62h4.62V102.61z
			 M121.57,97.81h-4.62v-4.62h4.62V97.81z M121.57,93.01h-4.62v-4.62h4.62V93.01z M121.57,88.21h-4.62v-4.62h4.62V88.21z
			 M121.57,83.41h-4.62v-4.62h4.62V83.41z M121.57,78.61h-4.62v-4.62h4.62V78.61z M121.57,73.81h-4.62v-4.62h4.62V73.81z
			 M121.57,69.01h-4.62v-4.62h4.62V69.01z M121.57,64.21h-4.62v-4.62h4.62V64.21z M121.57,59.41h-4.62v-4.62h4.62V59.41z
			 M121.57,54.61h-4.62v-4.62h4.62V54.61z M126.37,102.61h-4.62v-4.62h4.62V102.61z M126.37,97.81h-4.62v-4.62h4.62V97.81z
			 M126.37,93.01h-4.62v-4.62h4.62V93.01z M126.37,88.21h-4.62v-4.62h4.62V88.21z M126.37,83.41h-4.62v-4.62h4.62V83.41z
			 M126.37,78.61h-4.62v-4.62h4.62V78.61z M126.37,73.81h-4.62v-4.62h4.62V73.81z M126.37,69.01h-4.62v-4.62h4.62V69.01z
			 M126.37,64.21h-4.62v-4.62h4.62V64.21z M126.37,59.41h-4.62v-4.62h4.62V59.41z M126.37,54.61h-4.62v-4.62h4.62V54.61z
			 M131.17,102.61h-4.62v-4.62h4.62V102.61z M131.17,97.81h-4.62v-4.62h4.62V97.81z M131.17,93.01h-4.62v-4.62h4.62V93.01z
			 M131.17,88.21h-4.62v-4.62h4.62V88.21z M131.17,83.41h-4.62v-4.62h4.62V83.41z M131.17,78.61h-4.62v-4.62h4.62V78.61z
			 M131.17,73.81h-4.62v-4.62h4.62V73.81z M131.17,69.01h-4.62v-4.62h4.62V69.01z M131.17,64.21h-4.62v-4.62h4.62V64.21z
			 M131.17,59.41h-4.62v-4.62h4.62V59.41z M131.17,54.61h-4.62v-4.62h4.62V54.61z M135.97,102.61h-4.62v-4.62h4.62V102.61z
			 M135.97,97.81h-4.62v-4.62h4.62V97.81z M135.97,93.01h-4.62v-4.62h4.62V93.01z M135.97,88.21h-4.62v-4.62h4.62V88.21z
			 M135.97,83.41h-4.62v-4.62h4.62V83.41z M135.97,78.61h-4.62v-4.62h4.62V78.61z M135.97,73.81h-4.62v-4.62h4.62V73.81z
			 M135.97,69.01h-4.62v-4.62h4.62V69.01z M135.97,64.21h-4.62v-4.62h4.62V64.21z M135.97,59.41h-4.62v-4.62h4.62V59.41z
			 M135.97,54.61h-4.62v-4.62h4.62V54.61z M140.77,102.61h-4.62v-4.62h4.62V102.61z M140.77,97.81h-4.62v-4.62h4.62V97.81z
			 M140.77,93.01h-4.62v-4.62h4.62V93.01z M140.77,88.21h-4.62v-4.62h4.62V88.21z M140.77,83.41h-4.62v-4.62h4.62V83.41z
			 M140.77,78.61h-4.62v-4.62h4.62V78.61z M140.77,73.81h-4.62v-4.62h4.62V73.81z M140.77,69.01h-4.62v-4.62h4.62V69.01z
			 M140.77,64.21h-4.62v-4.62h4.62V64.21z M140.77,59.41h-4.62v-4.62h4.62V59.41z M140.77,54.61h-4.62v-4.62h4.62V54.61z
			 M145.57,102.61h-4.62v-4.62h4.62V102.61z M145.57,97.81h-4.62v-4.62h4.62V97.81z M145.57,93.01h-4.62v-4.62h4.62V93.01z
			 M145.57,88.21h-4.62v-4.62h4.62V88.21z M145.57,83.41h-4.62v-4.62h4.62V83.41z M145.57,78.61h-4.62v-4.62h4.62V78.61z
			 M145.57,73.81h-4.62v-4.62h4.62V73.81z M145.57,69.01h-4.62v-4.62h4.62V69.01z M145.57,64.21h-4.62v-4.62h4.62V64.21z
			 M145.57,59.41h-4.62v-4.62h4.62V59.41z M145.57,54.61h-4.62v-4.62h4.62V54.61z M150.38,102.61h-4.62v-4.62h4.62V102.61z
			 M150.38,97.81h-4.62v-4.62h4.62V97.81z M150.38,93.01h-4.62v-4.62h4.62V93.01z M150.38,88.21h-4.62v-4.62h4.62V88.21z
			 M150.38,83.41h-4.62v-4.62h4.62V83.41z M150.38,78.61h-4.62v-4.62h4.62V78.61z M150.38,73.81h-4.62v-4.62h4.62V73.81z
			 M150.38,69.01h-4.62v-4.62h4.62V69.01z M150.38,64.21h-4.62v-4.62h4.62V64.21z M150.38,59.41h-4.62v-4.62h4.62V59.41z
			 M150.38,54.61h-4.62v-4.62h4.62V54.61z M155.18,102.61h-4.62v-4.62h4.62V102.61z M155.18,97.81h-4.62v-4.62h4.62V97.81z
			 M155.18,93.01h-4.62v-4.62h4.62V93.01z M155.18,88.21h-4.62v-4.62h4.62V88.21z M155.18,83.41h-4.62v-4.62h4.62V83.41z
			 M155.18,78.61h-4.62v-4.62h4.62V78.61z M155.18,73.81h-4.62v-4.62h4.62V73.81z M155.18,69.01h-4.62v-4.62h4.62V69.01z
			 M155.18,64.21h-4.62v-4.62h4.62V64.21z M155.18,59.41h-4.62v-4.62h4.62V59.41z M155.18,54.61h-4.62v-4.62h4.62V54.61z
			 M159.98,102.61h-4.62v-4.62h4.62V102.61z M159.98,97.81h-4.62v-4.62h4.62V97.81z M159.98,93.01h-4.62v-4.62h4.62V93.01z
			 M159.98,88.21h-4.62v-4.62h4.62V88.21z M159.98,83.41h-4.62v-4.62h4.62V83.41z M159.98,78.61h-4.62v-4.62h4.62V78.61z
			 M159.98,73.81h-4.62v-4.62h4.62V73.81z M159.98,69.01h-4.62v-4.62h4.62V69.01z M159.98,64.21h-4.62v-4.62h4.62V64.21z
			 M159.98,59.41h-4.62v-4.62h4.62V59.41z M159.98,54.61h-4.62v-4.62h4.62V54.61z M164.78,102.61h-4.62v-4.62h4.62V102.61z
			 M164.78,97.81h-4.62v-4.62h4.62V97.81z M164.78,93.01h-4.62v-4.62h4.62V93.01z M164.78,88.21h-4.62v-4.62h4.62V88.21z
			 M164.78,83.41h-4.62v-4.62h4.62V83.41z M164.78,78.61h-4.62v-4.62h4.62V78.61z M164.78,73.81h-4.62v-4.62h4.62V73.81z
			 M164.78,69.01h-4.62v-4.62h4.62V69.01z M164.78,64.21h-4.62v-4.62h4.62V64.21z M164.78,59.41h-4.62v-4.62h4.62V59.41z
			 M164.78,54.61h-4.62v-4.62h4.62V54.61z M169.58,102.61h-4.62v-4.62h4.62V102.61z M169.58,97.81h-4.62v-4.62h4.62V97.81z
			 M169.58,93.01h-4.62v-4.62h4.62V93.01z M169.58,88.21h-4.62v-4.62h4.62V88.21z M169.58,83.41h-4.62v-4.62h4.62V83.41z
			 M169.58,78.61h-4.62v-4.62h4.62V78.61z M169.58,73.81h-4.62v-4.62h4.62V73.81z M169.58,69.01h-4.62v-4.62h4.62V69.01z
			 M169.58,64.21h-4.62v-4.62h4.62V64.21z M169.58,59.41h-4.62v-4.62h4.62V59.41z M169.58,54.61h-4.62v-4.62h4.62V54.61z
			 M174.38,102.61h-4.62v-4.62h4.62V102.61z M174.38,97.81h-4.62v-4.62h4.62V97.81z M174.38,93.01h-4.62v-4.62h4.62V93.01z
			 M174.38,88.21h-4.62v-4.62h4.62V88.21z M174.38,83.41h-4.62v-4.62h4.62V83.41z M174.38,78.61h-4.62v-4.62h4.62V78.61z
			 M174.38,73.81h-4.62v-4.62h4.62V73.81z M174.38,69.01h-4.62v-4.62h4.62V69.01z M174.38,64.21h-4.62v-4.62h4.62V64.21z
			 M174.38,59.41h-4.62v-4.62h4.62V59.41z M174.38,54.61h-4.62v-4.62h4.62V54.61z M179.18,102.61h-4.62v-4.62h4.62V102.61z
			 M179.18,97.81h-4.62v-4.62h4.62V97.81z M179.18,93.01h-4.62v-4.62h4.62V93.01z M179.18,88.21h-4.62v-4.62h4.62V88.21z
			 M179.18,83.41h-4.62v-4.62h4.62V83.41z M179.18,78.61h-4.62v-4.62h4.62V78.61z M179.18,73.81h-4.62v-4.62h4.62V73.81z
			 M179.18,69.01h-4.62v-4.62h4.62V69.01z M179.18,64.21h-4.62v-4.62h4.62V64.21z M179.18,59.41h-4.62v-4.62h4.62V59.41z
			 M179.18,54.61h-4.62v-4.62h4.62V54.61z M183.98,102.61h-4.62v-4.62h4.62V102.61z M183.98,97.81h-4.62v-4.62h4.62V97.81z
			 M183.98,93.01h-4.62v-4.62h4.62V93.01z M183.98,88.21h-4.62v-4.62h4.62V88.21z M183.98,83.41h-4.62v-4.62h4.62V83.41z
			 M183.98,78.61h-4.62v-4.62h4.62V78.61z M183.98,73.81h-4.62v-4.62h4.62V73.81z M183.98,69.01h-4.62v-4.62h4.62V69.01z
			 M183.98,64.21h-4.62v-4.62h4.62V64.21z M183.98,59.41h-4.62v-4.62h4.62V59.41z M183.98,54.61h-4.62v-4.62h4.62V54.61z
			 M188.78,102.61h-4.62v-4.62h4.62V102.61z M188.78,97.81h-4.62v-4.62h4.62V97.81z M188.78,93.01h-4.62v-4.62h4.62V93.01z
			 M188.78,88.21h-4.62v-4.62h4.62V88.21z M188.78,83.41h-4.62v-4.62h4.62V83.41z M188.78,78.61h-4.62v-4.62h4.62V78.61z
			 M188.78,73.81h-4.62v-4.62h4.62V73.81z M188.78,69.01h-4.62v-4.62h4.62V69.01z M188.78,64.21h-4.62v-4.62h4.62V64.21z
			 M188.78,59.41h-4.62v-4.62h4.62V59.41z M188.78,54.61h-4.62v-4.62h4.62V54.61z M193.58,102.61h-4.62v-4.62h4.62V102.61z
			 M193.58,97.81h-4.62v-4.62h4.62V97.81z M193.58,93.01h-4.62v-4.62h4.62V93.01z M193.58,88.21h-4.62v-4.62h4.62V88.21z
			 M193.58,83.41h-4.62v-4.62h4.62V83.41z M193.58,78.61h-4.62v-4.62h4.62V78.61z M193.58,73.81h-4.62v-4.62h4.62V73.81z
			 M193.58,69.01h-4.62v-4.62h4.62V69.01z M193.58,64.21h-4.62v-4.62h4.62V64.21z M193.58,59.41h-4.62v-4.62h4.62V59.41z
			 M193.58,54.61h-4.62v-4.62h4.62V54.61z M198.38,102.61h-4.62v-4.62h4.62V102.61z M198.38,97.81h-4.62v-4.62h4.62V97.81z
			 M198.38,93.01h-4.62v-4.62h4.62V93.01z M198.38,88.21h-4.62v-4.62h4.62V88.21z M198.38,83.41h-4.62v-4.62h4.62V83.41z
			 M198.38,78.61h-4.62v-4.62h4.62V78.61z M198.38,73.81h-4.62v-4.62h4.62V73.81z M198.38,69.01h-4.62v-4.62h4.62V69.01z
			 M198.38,64.21h-4.62v-4.62h4.62V64.21z M198.38,59.41h-4.62v-4.62h4.62V59.41z M198.38,54.61h-4.62v-4.62h4.62V54.61z
			 M203.18,102.61h-4.62v-4.62h4.62V102.61z M203.18,97.81h-4.62v-4.62h4.62V97.81z M203.18,93.01h-4.62v-4.62h4.62V93.01z
			 M203.18,88.21h-4.62v-4.62h4.62V88.21z M203.18,83.41h-4.62v-4.62h4.62V83.41z M203.18,78.61h-4.62v-4.62h4.62V78.61z
			 M203.18,73.81h-4.62v-4.62h4.62V73.81z M203.18,69.01h-4.62v-4.62h4.62V69.01z M203.18,64.21h-4.62v-4.62h4.62V64.21z
			 M203.18,59.41h-4.62v-4.62h4.62V59.41z M203.18,54.61h-4.62v-4.62h4.62V54.61z M207.98,102.61h-4.62v-4.62h4.62V102.61z
			 M207.98,97.81h-4.62v-4.62h4.62V97.81z M207.98,93.01h-4.62v-4.62h4.62V93.01z M207.98,88.21h-4.62v-4.62h4.62V88.21z
			 M207.98,83.41h-4.62v-4.62h4.62V83.41z M207.98,78.61h-4.62v-4.62h4.62V78.61z M207.98,73.81h-4.62v-4.62h4.62V73.81z
			 M207.98,69.01h-4.62v-4.62h4.62V69.01z M207.98,64.21h-4.62v-4.62h4.62V64.21z M207.98,59.41h-4.62v-4.62h4.62V59.41z
			 M207.98,54.61h-4.62v-4.62h4.62V54.61z M212.79,102.61h-4.62v-4.62h4.62V102.61z M212.79,97.81h-4.62v-4.62h4.62V97.81z
			 M212.79,93.01h-4.62v-4.62h4.62V93.01z M212.79,88.21h-4.62v-4.62h4.62V88.21z M212.79,83.41h-4.62v-4.62h4.62V83.41z
			 M212.79,78.61h-4.62v-4.62h4.62V78.61z M212.79,73.81h-4.62v-4.62h4.62V73.81z M212.79,69.01h-4.62v-4.62h4.62V69.01z
			 M212.79,64.21h-4.62v-4.62h4.62V64.21z M212.79,59.41h-4.62v-4.62h4.62V59.41z M208.17,54.61v-4.62h4.62v4.62H208.17z"/>
		
			<linearGradient id="SVGID_00000089546906127975332050000005947418476311245983_" gradientUnits="userSpaceOnUse" x1="115.3176" y1="76.2996" x2="187.4598" y2="76.2996">
			<stop  offset="0" style="stop-color:#FAD3DA"/>
			<stop  offset="1" style="stop-color:#EBAFB8"/>
		</linearGradient>
		<path style="fill:url(#SVGID_00000089546906127975332050000005947418476311245983_);" d="M187.46,57.69l-0.12-6.18l-4.67,4.05
			l1.88,0.33l-5.8,12.26l-13.89,17.28L147.35,98.8l-5.7-10.43l-5.83,3.4l-4.04-7.38l-9.63,11.95l-4.05-6.33
			c0.08-0.18,0.12-0.38,0.12-0.58c0-0.8-0.65-1.45-1.45-1.45c-0.8,0-1.45,0.65-1.45,1.45c0,0.8,0.65,1.45,1.45,1.45
			c0.02,0,0.04,0,0.06,0l5.19,8.07l9.5-11.81l3.74,6.75l5.78-3.42l5.85,10.62l19.02-14.52l0.04-0.03l14.38-17.89l5.62-12.12
			L187.46,57.69z"/>
		<g>
			
				<linearGradient id="SVGID_00000142857594015996801870000003126757404315991954_" gradientUnits="userSpaceOnUse" x1="115.3176" y1="69.1881" x2="170.7007" y2="69.1881">
				<stop  offset="0" style="stop-color:#355C90"/>
				<stop  offset="1" style="stop-color:#092947"/>
			</linearGradient>
			<path style="fill:url(#SVGID_00000142857594015996801870000003126757404315991954_);" d="M163.79,70.83L163.79,70.83l-3.31,6.37
				l-4.77-2.69l-10.28-12.18l-5.69,10.77l-19.29-14.03l-3.69,7.08c-0.01,0-0.02,0-0.03,0c-0.8,0.02-1.44,0.68-1.42,1.48
				c0.01,0.39,0.17,0.75,0.45,1.02c0.28,0.27,0.65,0.41,1.04,0.4c0.39-0.01,0.75-0.17,1.02-0.45c0.27-0.28,0.41-0.65,0.4-1.04
				c0-0.21-0.05-0.42-0.15-0.6l2.94-5.66l19.26,14.09l5.42-10.42l9.27,11.03l6.11,3.29l0.3-0.54l0.02,0.01l3.47-6.67l4.81,5.72
				l1.03-1.15l-6.15-7.33L163.79,70.83z"/>
			
				<linearGradient id="SVGID_00000156556964695820180350000012055049734131227795_" gradientUnits="userSpaceOnUse" x1="207.1884" y1="84.1154" x2="172.0632" y2="84.1154">
				<stop  offset="0" style="stop-color:#355C90"/>
				<stop  offset="1" style="stop-color:#092947"/>
			</linearGradient>
			<polygon style="fill:url(#SVGID_00000156556964695820180350000012055049734131227795_);" points="207.19,92.68 205.63,86.7 
				204.51,88.23 196.91,79.18 196.5,80.01 192.93,86.89 183.71,75.9 183.44,75.59 183.4,75.55 178.96,79.31 172.91,79.31 
				172.85,79.25 172.06,80.23 172.5,80.57 179.84,80.58 183.22,77.72 192.66,88.96 192.68,88.95 193.25,89.59 197.22,81.95 
				203.33,89.22 201.6,90.05 			"/>
		</g>
		
			<linearGradient id="SVGID_00000029754692736513318840000016298629327929583775_" gradientUnits="userSpaceOnUse" x1="168.5768" y1="78.6673" x2="169.6792" y2="78.6673">
			<stop  offset="0" style="stop-color:#355C90"/>
			<stop  offset="1" style="stop-color:#092947"/>
		</linearGradient>
		<polygon style="fill:url(#SVGID_00000029754692736513318840000016298629327929583775_);" points="169.68,78.47 168.58,78.55 
			169.52,78.87 		"/>
		
			<linearGradient id="SVGID_00000154398932064219018800000012518205306794155397_" gradientUnits="userSpaceOnUse" x1="168.2753" y1="77.8952" x2="168.7508" y2="77.8952">
			<stop  offset="0" style="stop-color:#355C90"/>
			<stop  offset="1" style="stop-color:#092947"/>
		</linearGradient>
		<polygon style="fill:url(#SVGID_00000154398932064219018800000012518205306794155397_);" points="168.28,77.34 168.36,78.45 
			168.75,77.59 		"/>
		
			<linearGradient id="SVGID_00000160877971416765414480000000985937692250110603_" gradientUnits="userSpaceOnUse" x1="173.3128" y1="78.6363" x2="173.9056" y2="78.6363">
			<stop  offset="0" style="stop-color:#355C90"/>
			<stop  offset="1" style="stop-color:#092947"/>
		</linearGradient>
		<polygon style="fill:url(#SVGID_00000160877971416765414480000000985937692250110603_);" points="173.45,78.1 173.31,79.17 
			173.91,78.67 		"/>
		
			<linearGradient id="SVGID_00000158014459336957712060000003986425827621564598_" gradientUnits="userSpaceOnUse" x1="171.8216" y1="79.5556" x2="172.108" y2="79.5556">
			<stop  offset="0" style="stop-color:#355C90"/>
			<stop  offset="1" style="stop-color:#092947"/>
		</linearGradient>
		<polygon style="fill:url(#SVGID_00000158014459336957712060000003986425827621564598_);" points="171.85,79.71 172.11,79.4 
			171.82,79.44 		"/>
		
			<linearGradient id="SVGID_00000077309051801337456730000014558542861530974910_" gradientUnits="userSpaceOnUse" x1="171.9789" y1="80.9745" x2="172.4724" y2="80.9745">
			<stop  offset="0" style="stop-color:#355C90"/>
			<stop  offset="1" style="stop-color:#092947"/>
		</linearGradient>
		<polygon style="fill:url(#SVGID_00000077309051801337456730000014558542861530974910_);" points="172.03,81.24 172.47,80.71 
			171.98,80.78 		"/>
		
			<linearGradient id="SVGID_00000083793904237048784830000012916954406657477280_" gradientUnits="userSpaceOnUse" x1="171.0136" y1="80.9355" x2="171.7689" y2="80.9355">
			<stop  offset="0" style="stop-color:#355C90"/>
			<stop  offset="1" style="stop-color:#092947"/>
		</linearGradient>
		<polygon style="fill:url(#SVGID_00000083793904237048784830000012916954406657477280_);" points="171.51,80.44 171.01,81.43 
			171.77,80.79 		"/>
		
			<linearGradient id="SVGID_00000095319366412815030020000018283944546357062291_" gradientUnits="userSpaceOnUse" x1="170.272" y1="78.005" x2="170.5679" y2="78.005">
			<stop  offset="0" style="stop-color:#355C90"/>
			<stop  offset="1" style="stop-color:#092947"/>
		</linearGradient>
		<polygon style="fill:url(#SVGID_00000095319366412815030020000018283944546357062291_);" points="170.57,78.19 170.27,77.79 
			170.38,78.22 		"/>
		
			<linearGradient id="SVGID_00000167356587612992982610000011781364472186377873_" gradientUnits="userSpaceOnUse" x1="171.7015" y1="82.0743" x2="172.7509" y2="82.0743">
			<stop  offset="0" style="stop-color:#355C90"/>
			<stop  offset="1" style="stop-color:#092947"/>
		</linearGradient>
		<polygon style="fill:url(#SVGID_00000167356587612992982610000011781364472186377873_);" points="172.75,82.73 171.7,81.3 
			172.07,82.84 		"/>
		
			<linearGradient id="SVGID_00000121991415407451798660000013330081014386300336_" gradientUnits="userSpaceOnUse" x1="170.3914" y1="81.7316" x2="171.1771" y2="81.7316">
			<stop  offset="0" style="stop-color:#355C90"/>
			<stop  offset="1" style="stop-color:#092947"/>
		</linearGradient>
		<polygon style="fill:url(#SVGID_00000121991415407451798660000013330081014386300336_);" points="171.18,82.08 170.39,81.25 
			170.75,82.21 		"/>
		
			<linearGradient id="SVGID_00000176019235384027217940000000756044487393236628_" gradientUnits="userSpaceOnUse" x1="170.8027" y1="77.231" x2="171.3405" y2="77.231">
			<stop  offset="0" style="stop-color:#355C90"/>
			<stop  offset="1" style="stop-color:#092947"/>
		</linearGradient>
		<polygon style="fill:url(#SVGID_00000176019235384027217940000000756044487393236628_);" points="170.9,76.61 170.8,77.85 
			171.34,77.21 		"/>
		
			<linearGradient id="SVGID_00000109719030116993095280000002258680500264550066_" gradientUnits="userSpaceOnUse" x1="169.8703" y1="78.4687" x2="170.0415" y2="78.4687">
			<stop  offset="0" style="stop-color:#355C90"/>
			<stop  offset="1" style="stop-color:#092947"/>
		</linearGradient>
		<polygon style="fill:url(#SVGID_00000109719030116993095280000002258680500264550066_);" points="169.87,78.04 170,78.9 
			170.04,78.27 		"/>
		
			<linearGradient id="SVGID_00000180364099758791186200000011721539573564133547_" gradientUnits="userSpaceOnUse" x1="167.7301" y1="79.2584" x2="169.0489" y2="79.2584">
			<stop  offset="0" style="stop-color:#355C90"/>
			<stop  offset="1" style="stop-color:#092947"/>
		</linearGradient>
		<polygon style="fill:url(#SVGID_00000180364099758791186200000011721539573564133547_);" points="167.73,79.03 169.05,79.71 
			168.75,78.8 		"/>
		
			<linearGradient id="SVGID_00000011028009555801692590000010584251928766072714_" gradientUnits="userSpaceOnUse" x1="170.4899" y1="75.829" x2="171.7067" y2="75.829">
			<stop  offset="0" style="stop-color:#355C90"/>
			<stop  offset="1" style="stop-color:#092947"/>
		</linearGradient>
		<polygon style="fill:url(#SVGID_00000011028009555801692590000010584251928766072714_);" points="170.49,75.62 171.71,76.25 
			171.43,75.41 		"/>
		
			<linearGradient id="SVGID_00000178897260222630873690000010026013972295087535_" gradientUnits="userSpaceOnUse" x1="171.0931" y1="80.2216" x2="171.8161" y2="80.2216">
			<stop  offset="0" style="stop-color:#355C90"/>
			<stop  offset="1" style="stop-color:#092947"/>
		</linearGradient>
		<polygon style="fill:url(#SVGID_00000178897260222630873690000010026013972295087535_);" points="171.09,80.41 171.82,80.19 
			171.33,80.03 		"/>
	</g>
	<g>
		<g>
			<path class="st125" d="M42.46,116.37v16.73h61.34c2.85,0,5.17-2.64,5.17-5.9v-10.83H42.46z"/>
			<g>
				<g>
					<path class="st2" d="M52.29,130.19c-2.85,0-5.16-2.32-5.16-5.16c0-2.85,2.32-5.16,5.16-5.16c2.85,0,5.16,2.32,5.16,5.16
						C57.46,127.88,55.14,130.19,52.29,130.19z M52.29,120.39c-2.56,0-4.64,2.08-4.64,4.64c0,2.56,2.08,4.64,4.64,4.64
						c2.56,0,4.64-2.08,4.64-4.64C56.93,122.47,54.85,120.39,52.29,120.39z"/>
				</g>
				<polygon class="st2" points="50.43,125.03 50.43,122.88 52.29,123.95 54.15,125.03 52.29,126.1 50.43,127.18 				"/>
			</g>
			<g>
				<path class="st2" d="M80.15,129.06H61.21c-0.32,0-0.58,0.26-0.58,0.58l0,0c0,0.32,0.26,0.58,0.58,0.58h18.94
					c0.32,0,0.58-0.26,0.58-0.58l0,0C80.73,129.32,80.47,129.06,80.15,129.06z"/>
				<path class="st2" d="M76.02,119.84H61.21c-0.32,0-0.58,0.26-0.58,0.58l0,0c0,0.32,0.26,0.58,0.58,0.58h14.81
					c0.32,0,0.58-0.26,0.58-0.58l0,0C76.6,120.1,76.34,119.84,76.02,119.84z"/>
				<path class="st2" d="M83.35,124.39h-5.63c-0.32,0-0.58,0.26-0.58,0.58l0,0c0,0.32,0.26,0.58,0.58,0.58h5.63
					c0.32,0,0.58-0.26,0.58-0.58l0,0C83.93,124.65,83.67,124.39,83.35,124.39z"/>
				<path class="st2" d="M95.04,119.84H80.23c-0.32,0-0.58,0.26-0.58,0.58l0,0c0,0.32,0.26,0.58,0.58,0.58h14.81
					c0.32,0,0.58-0.26,0.58-0.58l0,0C95.62,120.1,95.36,119.84,95.04,119.84z"/>
				<path class="st2" d="M96.47,129.06H84.51c-0.32,0-0.58,0.26-0.58,0.58l0,0c0,0.32,0.26,0.58,0.58,0.58h11.96
					c0.32,0,0.58-0.26,0.58-0.58l0,0C97.05,129.32,96.79,129.06,96.47,129.06z"/>
				<path class="st2" d="M73.17,124.39H61.21c-0.32,0-0.58,0.26-0.58,0.58l0,0c0,0.32,0.26,0.58,0.58,0.58h11.96
					c0.32,0,0.58-0.26,0.58-0.58l0,0C73.75,124.65,73.49,124.39,73.17,124.39z"/>
			</g>
		</g>
		<g>
			<path class="st104" d="M42.46,49.8v16.73h61.34c2.85,0,5.17-2.64,5.17-5.9V49.8H42.46z"/>
			<g>
				<g>
					<path class="st2" d="M77.48,61.92l-9.98-0.02c-0.35,0-0.64-0.29-0.64-0.64l0-0.15c0-0.35,0.29-0.64,0.64-0.64l9.98,0.02
						c0.35,0,0.64,0.29,0.64,0.64l0,0.15C78.12,61.64,77.83,61.92,77.48,61.92z"/>
					<path class="st2" d="M103.8,61.96l-9.98-0.01c-0.35,0-0.64-0.29-0.64-0.64l0-0.15c0-0.35,0.29-0.64,0.64-0.64l9.98,0.02
						c0.35,0,0.64,0.29,0.64,0.64l0,0.15C104.44,61.68,104.15,61.96,103.8,61.96z"/>
					<path class="st2" d="M88.96,61.94l-6.64-0.01c-0.35,0-0.64-0.29-0.64-0.64l0-0.15c0-0.35,0.29-0.64,0.64-0.64l6.64,0.01
						c0.35,0,0.64,0.29,0.64,0.64l0,0.15C89.6,61.65,89.31,61.94,88.96,61.94z"/>
					<path class="st2" d="M95.01,56.06l-5.06-0.01c-0.35,0-0.64-0.29-0.64-0.64l0-0.15c0-0.35,0.29-0.64,0.64-0.64l5.06,0.01
						c0.35,0,0.64,0.29,0.64,0.64l0,0.15C95.65,55.77,95.36,56.06,95.01,56.06z"/>
					<path class="st2" d="M85.4,56.05l-17.89-0.03c-0.35,0-0.64-0.29-0.64-0.64l0-0.15c0-0.35,0.29-0.64,0.64-0.64l17.89,0.03
						c0.35,0,0.64,0.29,0.64,0.64l0,0.15C86.04,55.76,85.75,56.05,85.4,56.05z"/>
				</g>
				<g>
					<g>
						<path class="st2" d="M52.09,59.67l-0.07-0.8c-0.4-0.01-0.74-0.07-1-0.18c-0.26-0.11-0.5-0.29-0.7-0.56
							c-0.21-0.27-0.35-0.61-0.41-1.02l0.79-0.22c0.1,0.42,0.24,0.73,0.41,0.91c0.25,0.26,0.53,0.4,0.85,0.4l-0.23-2.54
							c-0.33-0.03-0.68-0.13-1.04-0.29c-0.27-0.12-0.48-0.3-0.64-0.54c-0.16-0.24-0.25-0.52-0.28-0.84
							c-0.05-0.57,0.11-1.04,0.48-1.43c0.25-0.26,0.63-0.44,1.16-0.54l-0.03-0.38l0.47-0.04l0.03,0.38c0.47,0,0.85,0.1,1.14,0.31
							c0.37,0.26,0.62,0.64,0.74,1.13l-0.81,0.2c-0.08-0.31-0.2-0.54-0.36-0.69c-0.16-0.15-0.38-0.24-0.64-0.27l0.21,2.3
							c0.41,0.06,0.68,0.12,0.82,0.16c0.26,0.09,0.47,0.2,0.64,0.34c0.17,0.14,0.31,0.32,0.41,0.52c0.1,0.21,0.17,0.44,0.19,0.69
							c0.05,0.55-0.08,1.03-0.4,1.43c-0.32,0.4-0.75,0.64-1.31,0.72l0.07,0.81L52.09,59.67z M51.45,52.69
							c-0.31,0.08-0.54,0.22-0.7,0.44c-0.16,0.22-0.23,0.46-0.2,0.74c0.02,0.27,0.12,0.49,0.29,0.66c0.17,0.17,0.44,0.29,0.81,0.37
							L51.45,52.69z M52.43,58.15c0.31-0.07,0.55-0.22,0.73-0.47c0.18-0.25,0.26-0.54,0.23-0.88c-0.03-0.29-0.12-0.52-0.28-0.68
							c-0.16-0.16-0.46-0.29-0.9-0.39L52.43,58.15z"/>
					</g>
					<polygon class="st2" points="59.14,58.91 61.58,53.13 56,56 57.1,57.01 52.48,62.01 49.77,59.49 49.76,59.5 49.76,59.49 
						46.35,63.16 47.3,64.06 49.83,61.34 52.56,63.86 58.06,57.9 					"/>
				</g>
			</g>
		</g>
		<g>
			<path class="st126" d="M42.46,93.9v16.73h61.34c2.85,0,5.17-2.64,5.17-5.9V93.9H42.46z"/>
			<g>
				<path class="st2" d="M79.67,99.21H61.35c-0.39,0-0.72,0.32-0.72,0.72l0,0c0,0.39,0.32,0.72,0.72,0.72h18.32
					c0.39,0,0.72-0.32,0.72-0.72l0,0C80.39,99.53,80.06,99.21,79.67,99.21z"/>
				<path class="st2" d="M103.5,99.21H85.18c-0.39,0-0.72,0.32-0.72,0.72l0,0c0,0.39,0.32,0.72,0.72,0.72h18.32
					c0.39,0,0.72-0.32,0.72-0.72l0,0C104.22,99.53,103.9,99.21,103.5,99.21z"/>
				<path class="st2" d="M93.13,104.99H81.34c-0.39,0-0.72,0.32-0.72,0.72l0,0c0,0.39,0.32,0.72,0.72,0.72h11.79
					c0.39,0,0.72-0.32,0.72-0.72l0,0C93.84,105.31,93.52,104.99,93.13,104.99z"/>
				<path class="st2" d="M76.23,104.99H61.35c-0.39,0-0.72,0.32-0.72,0.72l0,0c0,0.39,0.32,0.72,0.72,0.72h14.89
					c0.39,0,0.72-0.32,0.72-0.72l0,0C76.95,105.31,76.63,104.99,76.23,104.99z"/>
			</g>
			<g>
				<path class="st2" d="M48.33,100.59h2.02l0.55-2.51h1.23l-0.55,2.51h2.33l0.54-2.51h1.24l-0.54,2.51h1.1v1.25h-1.34l-0.41,1.99
					h1.76v1.23h-1.99l-0.55,2.48h-1.23l0.54-2.48h-2.35l-0.51,2.48h-1.24l0.52-2.48h-1.11v-1.23h1.37l0.41-1.99h-1.78V100.59z
					 M51.35,101.85l-0.41,1.97h2.32l0.42-1.97H51.35z"/>
			</g>
		</g>
		<g>
			<path class="st127" d="M42.46,71.7v16.73h61.34c2.85,0,5.17-2.64,5.17-5.9V71.7H42.46z"/>
			<g>
				<path class="st2" d="M80.87,84.25H61.23c-0.33,0-0.6,0.27-0.6,0.6l0,0c0,0.33,0.27,0.6,0.6,0.6h19.64c0.33,0,0.6-0.27,0.6-0.6
					l0,0C81.47,84.52,81.2,84.25,80.87,84.25z"/>
				<path class="st2" d="M76.59,74.69H61.23c-0.33,0-0.6,0.27-0.6,0.6l0,0c0,0.33,0.27,0.6,0.6,0.6h15.36c0.33,0,0.6-0.27,0.6-0.6
					l0,0C77.19,74.96,76.92,74.69,76.59,74.69z"/>
				<path class="st2" d="M84.19,79.41h-5.84c-0.33,0-0.6,0.27-0.6,0.6l0,0c0,0.33,0.27,0.6,0.6,0.6h5.84c0.33,0,0.6-0.27,0.6-0.6
					l0,0C84.79,79.68,84.52,79.41,84.19,79.41z"/>
				<path class="st2" d="M89.23,74.69h-8.28c-0.33,0-0.6,0.27-0.6,0.6l0,0c0,0.33,0.27,0.6,0.6,0.6h8.28c0.33,0,0.6-0.27,0.6-0.6
					l0,0C89.83,74.96,89.56,74.69,89.23,74.69z"/>
				<path class="st2" d="M97.79,84.25h-12.4c-0.33,0-0.6,0.27-0.6,0.6l0,0c0,0.33,0.27,0.6,0.6,0.6h12.4c0.33,0,0.6-0.27,0.6-0.6
					l0,0C98.39,84.52,98.12,84.25,97.79,84.25z"/>
				<path class="st2" d="M73.63,79.41h-12.4c-0.33,0-0.6,0.27-0.6,0.6l0,0c0,0.33,0.27,0.6,0.6,0.6h12.4c0.33,0,0.6-0.27,0.6-0.6
					l0,0C74.23,79.68,73.96,79.41,73.63,79.41z"/>
			</g>
			<g id="mail_1_">
				<path class="st2" d="M51.84,81.49c0.52,0.5,0.96,0,0.96,0l4.11-3.81h-9.19L51.84,81.49z"/>
				<path class="st2" d="M52.96,81.92l0.8-0.7l3.15,2.89h-9.19l3.15-2.89l0.75,0.69C51.62,81.9,52.28,82.51,52.96,81.92z"/>
				<polygon class="st2" points="47.36,78.02 50.51,80.89 47.36,83.8 				"/>
				<polygon class="st2" points="57.22,78.02 54.07,80.89 57.22,83.8 				"/>
			</g>
		</g>
	</g>
	<text transform="matrix(1 0 0 1 107.8326 160.7939)" class="st2 st128 st129">Quest</text>
	<g>
		<path class="st52" d="M137.87,202.24v13.72c-5.19,2.53-10.74,3.4-16.56,3.69c0-1.22,0.03-2.37,0-3.52
			c-0.2-7.86-3.91-13.39-11.06-16.63c-0.49-0.22-1-0.39-1.51-0.59c3.19-4.14,3.19-4.14,4.4-9.88c0.05-0.03,0.1-0.1,0.15-0.1
			c3.98,0.05,7.99-0.17,11.95,0.22c6.21,0.61,11.54,6.08,12.45,12.26C137.71,201.69,137.8,201.97,137.87,202.24z"/>
		<path class="st52" d="M99.27,238.93c0.01,0.65-0.21,0.97-0.79,1.23c-3.85,1.75-7.93,2.61-12.11,3.04
			c-8.91,0.91-17.57-0.35-26.09-2.94c-0.68-0.21-0.89-0.51-0.88-1.21c0.04-3.77-0.02-7.53,0.02-11.3
			c0.09-7.95,5.78-14.32,13.69-14.92c4.35-0.33,8.77-0.28,13.11,0.08c7.09,0.59,12.79,6.95,12.99,14.04
			c0.05,1.93,0.01,3.86,0.01,5.79h0.03C99.25,234.81,99.22,236.87,99.27,238.93z"/>
		<path class="st52" d="M56.71,231.32c-6.21-0.33-12.02-1.59-17.6-3.36c0-4.92-0.32-9.77,0.08-14.56
			c0.57-6.85,7.01-12.53,13.9-12.69c3.89-0.09,7.79-0.02,11.8-0.02c0.2,3.87,1.66,7.18,4.37,9.92
			C59.76,214.28,55.94,221.36,56.71,231.32z"/>
		<path class="st52" d="M117.57,228.22c-3.48,1.52-7.14,2.35-10.89,2.81c-1.49,0.18-2.99,0.28-4.61,0.42c0-1.11,0-2.1,0-3.09
			c-0.01-8.32-4.4-14.62-12.2-17.52c-0.12-0.04-0.23-0.1-0.24-0.11c0.98-1.56,2.16-3.03,2.9-4.7c0.73-1.64,1.02-3.48,1.54-5.39
			c0.86,0,1.92-0.02,2.97,0c3.05,0.06,6.13-0.08,9.16,0.27c5.94,0.69,11.35,6.1,12.11,12.03c0.32,2.48,0.22,5.01,0.27,7.51
			c0.04,2.06-0.04,4.12,0.03,6.18C118.64,227.52,118.32,227.9,117.57,228.22z"/>
		<path class="st52" d="M91.46,165.57c-0.04,6.97-5.77,12.67-12.71,12.64c-6.99-0.03-12.64-5.69-12.64-12.69
			c0-6.99,5.65-12.66,12.64-12.69C85.71,152.8,91.5,158.6,91.46,165.57z"/>
		<path class="st52" d="M91.04,200.25c-0.04,6.44-5.27,11.65-11.69,11.65c-6.44,0-11.65-5.2-11.66-11.66
			c-0.01-6.44,5.19-11.68,11.61-11.71C85.75,188.51,91.08,193.83,91.04,200.25z"/>
		<path class="st52" d="M70.5,188.06c0,0.39-0.21,0.89-0.5,1.15c-2.51,2.23-4.16,4.95-4.83,8.26c-0.07,0.32-0.36,0.68-0.65,0.85
			c-1.7,1-3.55,1.47-4.95,1.48c-6.86,0.34-12.4-5.14-12.38-11.67c0.02-6.47,5.21-11.65,11.67-11.64
			C65.28,176.51,70.47,181.64,70.5,188.06z"/>
		<path class="st52" d="M129.67,176.39c-0.04,8.1-8.14,13.79-15.68,11c-0.65-0.24-1.02-0.54-1.14-1.31
			c-0.66-3.93-2.66-7.06-5.91-9.36c-0.48-0.34-0.64-0.69-0.61-1.27c0.31-5.46,5.04-10.26,10.56-10.68c6-0.45,11.36,3.5,12.48,9.23
			C129.52,174.78,129.57,175.59,129.67,176.39z"/>
		<path class="st52" d="M110.37,188.29c-0.15,6.54-5.61,11.83-11.95,11.72c-1.36-0.35-2.74-0.65-4.08-1.07
			c-0.3-0.09-0.63-0.55-0.69-0.88c-0.68-4.01-2.64-7.22-5.96-9.56c-0.66-0.46-0.7-0.98-0.62-1.64c0.66-5.84,5.56-10.28,11.46-10.37
			C105.09,176.4,110.52,181.81,110.37,188.29z"/>
		<path class="st52" d="M87.55,179.28c-1.63,2.43-2.52,4.83-2.67,7.56c-4.16-1.63-8.15-1.46-12.18,0.56
			c-0.13-2.89-0.91-5.5-2.71-8.08C75.92,178.9,81.61,178.97,87.55,179.28z"/>
	</g>
</g>
</svg>
