<?xml version="1.0" encoding="UTF-8"?>
<svg id="Layer_1" data-name="Layer 1" xmlns="http://www.w3.org/2000/svg" viewBox="0 0 256 256">
  <defs>
    <style>
      .cls-1 {
        fill: #fff;
      }

      .cls-2 {
        fill: #5067ab;
      }

      .cls-3 {
        fill: #86a7dd;
      }
    </style>
  </defs>
  <rect class="cls-3" x="31.8" y="48.63" width="192.4" height="158.74" rx="10.33" ry="10.33"/>
  <path class="cls-1" d="m53.08,192.2h24.29c4.01,0,7.28-3.26,7.28-7.28v-14.54c0-4.01-3.26-7.28-7.28-7.28h-24.29c-4.01,0-7.28,3.26-7.28,7.28v14.54c0,4.01,3.26,7.28,7.28,7.28Zm-4.37-21.82c0-2.41,1.96-4.37,4.37-4.37h24.29c2.41,0,4.37,1.96,4.37,4.37v14.54c0,2.41-1.96,4.37-4.37,4.37h-24.29c-2.41,0-4.37-1.96-4.37-4.37v-14.54Zm49.03-48.41h105.98c3.21,0,5.82-2.61,5.82-5.82v-17.45c0-3.21-2.61-5.82-5.82-5.82h-105.98c-3.21,0-5.82,2.61-5.82,5.82v17.45c0,3.21,2.61,5.82,5.82,5.82Zm-2.91-23.28c0-1.61,1.31-2.91,2.91-2.91h105.98c1.6,0,2.91,1.31,2.91,2.91v17.45c0,1.61-1.31,2.91-2.91,2.91h-105.98c-1.6,0-2.91-1.31-2.91-2.91v-17.45Zm5.82,16h100.16c.8,0,1.46-.65,1.46-1.46v-11.63c0-.8-.65-1.46-1.46-1.46h-100.16c-.8,0-1.46.65-1.46,1.46v11.63c0,.8.65,1.46,1.46,1.46Zm1.46-11.63h97.25v8.72h-97.25v-8.72Zm-4.37,54.03h105.98c3.21,0,5.82-2.61,5.82-5.82v-17.45c0-3.21-2.61-5.82-5.82-5.82h-105.98c-3.21,0-5.82,2.61-5.82,5.82v17.45c0,3.21,2.61,5.82,5.82,5.82Zm-2.91-23.28c0-1.61,1.31-2.91,2.91-2.91h105.98c1.6,0,2.91,1.31,2.91,2.91v17.45c0,1.61-1.31,2.91-2.91,2.91h-105.98c-1.6,0-2.91-1.31-2.91-2.91v-17.45Zm5.82,16h100.16c.8,0,1.46-.65,1.46-1.46v-11.63c0-.8-.65-1.46-1.46-1.46h-100.16c-.8,0-1.46.65-1.46,1.46v11.63c0,.8.65,1.46,1.46,1.46Zm1.46-11.63h97.25v8.72h-97.25v-8.72Zm117.62-61.32v118.25c0,4.01-3.26,7.28-7.28,7.28H42.89c-4.01,0-7.28-3.26-7.28-7.28v-103.69c0-.8.65-1.46,1.46-1.46s1.46.65,1.46,1.46v103.69c0,2.41,1.96,4.37,4.37,4.37h169.57c2.41,0,4.37-1.96,4.37-4.37v-118.25c0-.8.65-1.46,1.46-1.46s1.46.65,1.46,1.46Z"/>
  <path class="cls-2" d="m203.73,163.79h-105.98c-3.21,0-5.82,2.55-5.82,5.69v17.04c0,3.14,2.61,5.69,5.82,5.69h105.98c3.21,0,5.82-2.55,5.82-5.69v-17.04c0-3.14-2.61-5.69-5.82-5.69Zm-1.46,19.89c0,.78-.65,1.42-1.46,1.42h-100.16c-.8,0-1.46-.64-1.46-1.42v-11.36c0-.78.65-1.42,1.46-1.42h100.16c.8,0,1.46.64,1.46,1.42v11.36Zm-100.16-9.94h97.25v8.52h-97.25v-8.52Zm-24.74-44.24h-24.29c-4.01,0-7.28,3.19-7.28,7.11v14.2c0,3.92,3.26,7.11,7.28,7.11h24.29c4.01,0,7.28-3.19,7.28-7.11v-14.2c0-3.92-3.26-7.11-7.28-7.11Zm-2.88,9.53l-10.6,10.35c-.27.27-.64.42-1.03.42-.03,0-.06,0-.09,0-.42-.02-.8-.22-1.06-.54l-5.46-6.79c-.5-.62-.39-1.51.25-2s1.55-.38,2.04.24l4.44,5.53,9.44-9.21c.57-.56,1.49-.56,2.06,0s.57,1.45,0,2.01Zm2.88-43.83h-24.29c-4.01,0-7.28,3.19-7.28,7.11v14.2c0,3.92,3.26,7.11,7.28,7.11h24.29c4.01,0,7.28-3.19,7.28-7.11v-14.2c0-3.92-3.26-7.11-7.28-7.11Zm-2.88,9.53l-10.6,10.35c-.27.27-.64.42-1.03.42-.03,0-.06,0-.09,0-.42-.02-.8-.22-1.06-.54l-5.46-6.79c-.5-.62-.39-1.51.25-2,.63-.48,1.55-.38,2.04.24l4.44,5.53,9.44-9.21c.57-.56,1.49-.56,2.06,0s.57,1.45,0,2.01Zm19.17-35.47v3.2c0,.78-.65,1.42-1.46,1.42h-15.56c-.8,0-1.46-.64-1.46-1.42v-3.2c0-.78.65-1.42,1.46-1.42h15.56c.8,0,1.46.64,1.46,1.42Zm29.38,0v3.2c0,.78-.65,1.42-1.46,1.42h-15.56c-.8,0-1.46-.64-1.46-1.42v-3.2c0-.78.65-1.42,1.46-1.42h15.56c.8,0,1.46.64,1.46,1.42Zm-58.76,0v3.2c0,.78-.65,1.42-1.46,1.42h-15.56c-.8,0-1.46-.64-1.46-1.42v-3.2c0-.78.65-1.42,1.46-1.42h15.56c.8,0,1.46.64,1.46,1.42Zm148.18-15.64H42.89c-4.01,0-7.28,3.19-7.28,7.11v25.94c0,.78.65,1.42,1.46,1.42h90.61c.39,0,.76-.15,1.03-.42l14.13-13.8h75.45c.8,0,1.46-.64,1.46-1.42v-11.73c0-3.92-3.26-7.11-7.28-7.11Zm-145.27,18.83c0,2.35-1.96,4.26-4.37,4.26h-15.56c-2.41,0-4.37-1.91-4.37-4.26v-3.2c0-2.35,1.96-4.26,4.37-4.26h15.56c2.41,0,4.37,1.91,4.37,4.26v3.2Zm29.38,0c0,2.35-1.96,4.26-4.37,4.26h-15.56c-2.41,0-4.37-1.91-4.37-4.26v-3.2c0-2.35,1.96-4.26,4.37-4.26h15.56c2.41,0,4.37,1.91,4.37,4.26v3.2Zm29.38,0c0,2.35-1.96,4.26-4.37,4.26h-15.56c-2.41,0-4.37-1.91-4.37-4.26v-3.2c0-2.35,1.96-4.26,4.37-4.26h15.56c2.41,0,4.37,1.91,4.37,4.26v3.2Z"/>
</svg>