<?xml version="1.0" encoding="utf-8"?>
<!-- Generator: Adobe Illustrator 27.3.1, SVG Export Plug-In . SVG Version: 6.00 Build 0)  -->
<svg version="1.1" id="Layer_1" xmlns="http://www.w3.org/2000/svg" xmlns:xlink="http://www.w3.org/1999/xlink" x="0px" y="0px"
	 viewBox="0 0 256 256" style="enable-background:new 0 0 256 256;" xml:space="preserve">
<style type="text/css">
	.st0{fill:#8FDDE7;}
	.st1{fill:none;stroke:#121777;stroke-width:4;stroke-linecap:round;stroke-linejoin:round;stroke-miterlimit:10;}
	.st2{fill:#FFFFFF;}
	.st3{fill:#1AA4CE;}
	.st4{fill:#D3BBDD;}
	.st5{fill:#FBC12C;}
	.st6{fill:#837CB8;}
	.st7{fill:#78BCEF;}
	.st8{fill:#F25555;}
	.st9{fill:#8EE06C;}
	.st10{fill:#84C7EF;}
	.st11{fill:#FCFCFC;}
	.st12{fill:#F8AFA6;}
	.st13{fill:none;stroke:#FFFFFF;stroke-width:11;stroke-linecap:round;stroke-linejoin:round;stroke-miterlimit:10;}
	.st14{fill:#F13049;}
	.st15{fill:#F5A10F;}
	.st16{fill:#F2C700;}
	.st17{fill:#9CD925;}
	.st18{fill:#00D26F;}
	.st19{fill:#EDC30D;}
	.st20{fill:#FED400;}
	.st21{fill:#CCCCCC;}
	.st22{fill:#A2A2A2;}
	.st23{fill:#FF7A43;}
	.st24{fill:#F26636;}
	.st25{fill:#509DFF;}
	.st26{fill:#F4EDED;}
	.st27{fill:#D8D6D6;}
	.st28{fill:#308CEF;}
	.st29{fill:#D3DC5E;}
	.st30{fill:#1B38AB;}
	.st31{fill:#FE515E;}
	.st32{fill:#020202;}
	.st33{fill:#F83B4D;}
	.st34{fill:url(#SVGID_1_);}
	.st35{fill:url(#SVGID_00000111167538677710445620000016771779981917605536_);}
	.st36{fill:url(#SVGID_00000046333064959939539210000007553672077775134651_);}
	.st37{fill:url(#SVGID_00000064334566396454874780000007203803988049654457_);}
	.st38{fill:url(#SVGID_00000147195557121237661260000001057945469115337392_);}
	.st39{fill:url(#SVGID_00000090282913740903734600000010844300452164308883_);}
	.st40{fill:url(#SVGID_00000071560611086572856420000012795657642791446203_);}
	.st41{fill:url(#SVGID_00000134213365140445331900000004481442863882938289_);}
	.st42{fill:url(#SVGID_00000139989287955450725790000015652786378791271052_);}
	.st43{fill:url(#SVGID_00000169527756700609169770000004395465035494967448_);}
	.st44{fill:url(#SVGID_00000005234987885337883600000002190052205394337172_);}
	.st45{fill:url(#SVGID_00000008869444985712261430000005809612577677172894_);}
	.st46{fill:url(#SVGID_00000129188297071476125290000000694832752827352205_);}
	.st47{fill:url(#SVGID_00000124124165474227982290000001499569160495956922_);}
	.st48{fill:url(#SVGID_00000162349020364693593020000016266815672635570621_);}
	.st49{fill:url(#SVGID_00000163768923231103201670000002393821480280993966_);}
	.st50{fill:url(#SVGID_00000041983227008602458630000003973523567315348903_);}
	.st51{fill:url(#SVGID_00000134945720464803445130000016974345592788139927_);}
	.st52{fill:#033270;}
	.st53{fill:#4091C9;}
	.st54{fill:url(#SVGID_00000111166782853120178570000013121637926019230592_);}
	.st55{fill:url(#SVGID_00000001622373867330296270000014350682945550171827_);}
	.st56{fill:url(#SVGID_00000149354724327858751680000017289813463959545486_);}
	.st57{fill:url(#SVGID_00000118372031302588882020000004672017189690296505_);}
	.st58{fill:url(#SVGID_00000170959881506069923840000001893920956381465518_);}
	.st59{fill:url(#SVGID_00000131326252726218434660000010462130362496175783_);}
	.st60{fill:url(#SVGID_00000131342054773277990770000011393210152944657812_);}
	.st61{fill:#DBDBD9;}
	.st62{fill:#3F3F3E;}
	.st63{fill:url(#SVGID_00000008135979248005733910000005188447627271077819_);}
	.st64{fill:url(#SVGID_00000093898986330738267320000003121467207899498650_);}
	.st65{fill:#232F5F;}
	.st66{fill:url(#SVGID_00000111913782061903731990000018361782919280533902_);}
	.st67{fill:url(#SVGID_00000000201533074545788450000006074937734643538822_);}
	.st68{fill:url(#SVGID_00000080177328978653993170000009974419973867256509_);}
	.st69{fill:url(#SVGID_00000063631797938899751720000017392367610806390192_);}
	.st70{fill:#223265;}
	.st71{fill:url(#SVGID_00000029727000445386307530000014247693740155300795_);}
	.st72{fill:url(#SVGID_00000135671792224563268190000010359305492334713744_);}
	.st73{fill:url(#SVGID_00000078753881017613824550000011127994825400370621_);}
	.st74{fill:url(#SVGID_00000074400769757622366160000006554468505715623810_);}
	.st75{fill:url(#SVGID_00000081631493560503802960000017199863995311034302_);}
	.st76{fill:url(#SVGID_00000040533549090178891010000001474451416579306631_);}
	.st77{fill:url(#SVGID_00000173846969333933140820000016646160028118175361_);}
	.st78{fill:url(#SVGID_00000051346610881368219380000011297384372740810675_);}
	.st79{fill:url(#SVGID_00000063620957910661255700000003449580443792219299_);}
	.st80{fill:url(#SVGID_00000039837547265615154360000011461487182895735194_);}
	.st81{fill:url(#SVGID_00000067949947840770806190000011794131602333534392_);}
	.st82{fill:url(#SVGID_00000137128915650880234780000006970661610682092954_);}
	.st83{fill:url(#SVGID_00000016791891967739165250000017910061477905105814_);}
	.st84{fill:url(#SVGID_00000140722575997060116710000014293241044343051700_);}
	.st85{fill:url(#SVGID_00000104677279025111603300000003947673047467480452_);}
	.st86{fill:url(#SVGID_00000003099432941751963150000016640977522993881221_);}
	.st87{fill:url(#SVGID_00000133517775616957096430000010627426987086803646_);}
	.st88{fill:url(#SVGID_00000171681052970161487420000009348072086863008385_);}
	.st89{fill:url(#SVGID_00000007401364642850906460000017848686655115453862_);}
	.st90{fill:url(#SVGID_00000152244455742242834880000014249629788608100763_);}
	.st91{fill:url(#SVGID_00000006709223494237642050000006414387718718102699_);}
	.st92{fill:url(#SVGID_00000138556614343306789020000011433546061479628674_);}
	.st93{fill:url(#SVGID_00000002351340274088579760000006452924586317978546_);}
	.st94{fill:url(#SVGID_00000000219778205230762930000014668823786463852212_);}
	.st95{fill:url(#SVGID_00000099633505824583648540000002291006941819220412_);}
	.st96{fill:url(#SVGID_00000042737106341346458840000015189265810448488618_);}
	.st97{fill:url(#SVGID_00000053532718481997370830000000932405711676421543_);}
	.st98{fill:#AF6838;}
	.st99{fill:url(#SVGID_00000042704059334301931640000000885342869993662648_);}
	.st100{fill:url(#SVGID_00000022549518641326872240000013406003029498159497_);}
	.st101{fill:url(#SVGID_00000062174073310938692220000014311375757144554142_);}
	.st102{fill:url(#SVGID_00000017504230741741183390000007222338572818713227_);}
	.st103{fill:#242F5F;}
	.st104{fill:#9DCEE2;}
	.st105{fill:url(#SVGID_00000001653782361032751610000015634075433063416713_);}
	.st106{fill:url(#SVGID_00000015342251130034897980000013487907661261590680_);}
	.st107{fill:url(#SVGID_00000175296330841218123330000002030898762052605370_);}
	.st108{fill:url(#SVGID_00000089570738664448344660000015328232243022863780_);}
	.st109{fill:url(#SVGID_00000167396389896953035850000003234601634164381574_);}
	.st110{fill:url(#SVGID_00000008116686865240896880000014479253056902540165_);}
	.st111{fill:url(#SVGID_00000104667829978100473860000012404923055074984629_);}
	.st112{fill:url(#SVGID_00000067219909171710932770000011729839676947117997_);}
	.st113{fill:url(#SVGID_00000143596851205698223810000008737241549652121278_);}
	.st114{fill:url(#SVGID_00000085964341784239592280000008789493404451586711_);}
	.st115{fill:url(#SVGID_00000008148104764424919240000003069643762395472531_);}
	.st116{fill:url(#SVGID_00000031184434555764863200000014346602050253055879_);}
	.st117{fill:url(#SVGID_00000098194892620999648620000010105632469292858018_);}
	.st118{fill:url(#SVGID_00000176038697133595435620000016032030973634890170_);}
	.st119{fill:url(#SVGID_00000076570683112851170380000008833223993377984143_);}
	.st120{fill:url(#SVGID_00000129206497710782264560000000923035190408364722_);}
	.st121{fill:url(#SVGID_00000159438347795180798560000011671932358318029696_);}
	.st122{fill:url(#SVGID_00000094596062099535582220000011962613669406504107_);}
	.st123{fill:url(#SVGID_00000116193819647323861370000015983040100671224992_);}
	.st124{fill:url(#SVGID_00000034062836333761576100000008074211039179754895_);}
	.st125{fill:#EF702D;}
	.st126{fill:#FDC058;}
	.st127{fill:#55A550;}
</style>
<g>
	<g>
		<path class="st23" d="M204.76,194.29L98.41,220.51c-4.12,1.02-8.29-1.51-9.31-5.64l-1.22-4.93L63.21,109.81l-8.04-32.57
			c-1.02-4.12,1.51-8.29,5.64-9.31l12.67-3.13l93.68-23.09c4.12-1.02,8.31,1.51,9.33,5.64l11.51,46.75l22.41,90.86
			C211.43,189.1,208.92,193.27,204.76,194.29z"/>
	</g>
	<g>
		<path class="st24" d="M72.04,71.15c-1.99,1.14-4.6,0.29-6.7,1.24c-1.89,0.87-2.9,3.05-3.01,5.14c-0.12,2.09,0.5,4.13,0.99,6.16
			c0.5,2.03,0.89,4.17,0.35,6.18c-0.37,1.29-1.08,2.49-1.29,3.81c-0.33,2.01,0.54,4.02,1.56,5.8c1.02,1.76,2.22,3.48,2.63,5.49
			c0.33,1.76-0.17,3.88-1.8,4.64c-0.48,0.21-1.02,0.29-1.55,0.21l-8.04-32.57c-1.02-4.12,1.51-8.29,5.64-9.31l12.67-3.13
			c0.29,0.56,0.48,1.16,0.58,1.8C74.34,68.35,73.58,70.28,72.04,71.15z"/>
	</g>
	<g>
		<path class="st24" d="M66.23,116.19c-0.56,0-1.16-0.05-1.79-0.17c-0.39-0.07-0.66-0.44-0.59-0.84c0.07-0.39,0.43-0.65,0.84-0.59
			c1.75,0.31,3.12,0.12,4.18-0.55c2.24-1.41,2.61-4.75,1.82-7.33c-0.54-1.74-1.45-3.31-2.42-4.97c-0.57-0.97-1.15-1.97-1.65-3
			c-1.31-2.72-1.52-5.05-0.64-6.94c0.31-0.66,0.73-1.23,1.14-1.77c0.42-0.56,0.82-1.09,1.05-1.67c0.4-1.03,0.33-2.34-0.23-4.01
			c-0.12-0.37-0.25-0.73-0.39-1.09c-0.4-1.09-0.82-2.23-0.94-3.45c-0.18-1.58,0.22-3.66,1.87-4.74c1.31-0.85,2.79-0.72,4.22-0.6
			c0.93,0.08,1.8,0.16,2.58-0.03c1.74-0.38,3.11-2.28,3.13-4.3c0.02-1.83-0.98-3.8-2.65-5.26c-0.29-0.26-0.44-0.79-0.19-1.09
			c0.24-0.3,0.57-0.45,0.89-0.21c0.01,0.01,0.12,0.1,0.14,0.11c2.11,1.83,3.28,4.21,3.26,6.46c-0.02,2.72-1.86,5.17-4.26,5.7
			c-1,0.23-2.03,0.14-3.03,0.06c-1.25-0.11-2.42-0.21-3.31,0.37c-1.1,0.72-1.35,2.26-1.22,3.37c0.11,1.05,0.47,2.05,0.86,3.11
			c0.14,0.38,0.28,0.75,0.4,1.13c0.67,2,0.73,3.64,0.2,5c-0.3,0.77-0.78,1.4-1.24,2.01c-0.38,0.51-0.74,0.98-0.98,1.51
			c-0.86,1.84-0.13,4.12,0.63,5.7c0.47,0.98,1.05,1.96,1.6,2.9c0.97,1.66,1.97,3.37,2.56,5.28c0.92,3.01,0.55,7.1-2.43,8.98
			C68.68,115.89,67.55,116.19,66.23,116.19z"/>
	</g>
	<g>
		<path class="st24" d="M204.77,194.29L98.42,220.51c-4.12,1.02-8.3-1.51-9.32-5.65l-1.22-4.92c7.09,3.3,16.27,1.15,21.48-4.63
			l83.88-20.66c2.75-0.69,4.41-3.43,3.74-6.18l-17.58-71.34c1.59-2.5,3.76-4.74,5.6-7.15c1.31-1.73,2.46-3.79,3.01-5.89l22.41,90.87
			C211.43,189.09,208.91,193.27,204.77,194.29z"/>
	</g>
	<g>
		<path d="M96.56,221.46c-1.51,0-3.01-0.41-4.34-1.22c-1.93-1.17-3.29-3.02-3.83-5.21l-1.22-4.91L54.47,77.42
			c-0.54-2.18-0.19-4.44,0.97-6.37c1.17-1.93,3.01-3.29,5.2-3.83L167,41c2.18-0.54,4.44-0.19,6.37,0.97
			c1.93,1.17,3.29,3.02,3.83,5.21l12.88,52.27c0.1,0.39-0.14,0.78-0.53,0.88c-0.4,0.1-0.78-0.14-0.88-0.53l-12.88-52.28
			c-0.45-1.81-1.57-3.35-3.17-4.31c-1.6-0.97-3.47-1.25-5.27-0.8L60.99,68.63c-1.81,0.45-3.35,1.57-4.31,3.17
			c-0.97,1.6-1.25,3.47-0.81,5.28L89.8,214.69c0.45,1.82,1.57,3.35,3.17,4.31c1.6,0.97,3.47,1.25,5.27,0.8l45.92-11.32
			c0.39-0.1,0.78,0.14,0.88,0.53c0.1,0.39-0.14,0.78-0.53,0.88l-45.92,11.32C97.92,221.38,97.24,221.46,96.56,221.46z"/>
	</g>
	<g>
		<circle class="st25" cx="112.33" cy="48.08" r="12.81"/>
	</g>
	<g>
		<circle class="st2" cx="112.33" cy="48.08" r="5.38"/>
	</g>
	<g>
		<path d="M112.32,54.18c-1.1,0-2.18-0.3-3.15-0.88c-1.4-0.84-2.38-2.18-2.77-3.76c-0.05-0.19-0.08-0.38-0.11-0.57
			c-0.06-0.4,0.22-0.76,0.61-0.82c0.41-0.05,0.76,0.22,0.82,0.61c0.02,0.14,0.05,0.29,0.08,0.43c0.3,1.21,1.05,2.23,2.11,2.87
			c1.06,0.64,2.31,0.84,3.52,0.54c1.21-0.3,2.23-1.05,2.87-2.11c0.64-1.06,0.83-2.32,0.54-3.52c-0.62-2.49-3.15-4.03-5.64-3.41
			c-0.4,0.09-0.78-0.14-0.88-0.53c-0.1-0.39,0.14-0.78,0.53-0.88c3.27-0.81,6.58,1.2,7.39,4.47c0.39,1.58,0.14,3.22-0.7,4.62
			c-0.84,1.4-2.18,2.38-3.76,2.77C113.3,54.13,112.81,54.18,112.32,54.18z"/>
	</g>
	<g>
		<path d="M112.3,61.62c-2.44,0-4.84-0.66-6.98-1.96c-3.09-1.87-5.27-4.83-6.14-8.34c-0.87-3.51-0.31-7.15,1.56-10.24
			c1.87-3.09,4.83-5.27,8.34-6.14c3.21-0.79,6.59-0.38,9.52,1.15c0.35,0.19,0.49,0.62,0.31,0.98c-0.19,0.35-0.62,0.49-0.98,0.3
			c-2.61-1.37-5.64-1.74-8.5-1.03c-3.14,0.77-5.78,2.72-7.45,5.48c-1.67,2.76-2.16,6.01-1.39,9.15c0.77,3.13,2.72,5.78,5.48,7.45
			c2.76,1.67,6.01,2.16,9.15,1.39c6.47-1.59,10.44-8.16,8.84-14.63c-0.1-0.39,0.14-0.78,0.53-0.88c0.39-0.1,0.78,0.14,0.88,0.53
			c1.78,7.25-2.66,14.6-9.9,16.38C114.49,61.49,113.39,61.62,112.3,61.62z"/>
	</g>
	<g>
		<path class="st26" d="M193.23,184.65l-83.87,20.67l-5.22,1.28c-2.72,0.7-5.49-0.99-6.14-3.71l-20.17-81.84L69.2,86.01
			c-0.7-2.74,0.99-5.49,3.71-6.16l28.21-6.96l60.88-14.99c2.74-0.7,5.49,0.99,6.18,3.71l11.22,45.54l17.58,71.35
			C197.63,181.23,195.97,183.98,193.23,184.65z"/>
	</g>
	<g>
		<path class="st27" d="M101.81,76.81c-0.35,1.91-1.93,3.63-3.88,3.77c-0.93,0.06-1.85-0.21-2.76-0.1
			c-2.36,0.33-3.61,3.07-3.46,5.45c0.14,2.36,1.24,4.56,1.66,6.88c0.43,2.34-0.08,5.16-2.16,6.26c-0.85,0.46-1.87,0.56-2.74,0.99
			c-2.16,1.02-2.96,3.79-2.69,6.16c0.29,2.38,1.39,4.56,2.05,6.86c0.68,2.3,0.85,4.97-0.58,6.9c-1.51,2.05-4.44,2.65-6.92,2.03
			c-0.87-0.21-1.7-0.54-2.49-0.95L69.2,86.01c-0.7-2.74,0.99-5.49,3.71-6.16l28.21-6.96C101.75,74.11,102.06,75.48,101.81,76.81z"/>
	</g>
	<g>
		<path class="st27" d="M87.48,128.89c-3.06,0-5.97-0.98-8.66-2.04c-0.37-0.15-0.55-0.57-0.41-0.94c0.15-0.37,0.57-0.56,0.94-0.41
			c2.58,1.02,5.39,1.91,8.21,1.94c3.02-0.02,6.84-1.5,8.1-4.72c0.91-2.27,0.37-4.87-0.2-6.88c-0.17-0.59-0.36-1.18-0.55-1.78
			c-0.58-1.81-1.17-3.68-1.28-5.65c-0.15-2.45,0.61-5.63,3.21-7.17c0.82-0.48,1.73-0.74,2.61-0.99c1.12-0.32,2.17-0.61,2.87-1.33
			c1.16-1.21,0.98-3.23,0.42-4.73c-0.31-0.81-0.72-1.58-1.16-2.39c-0.49-0.91-1-1.86-1.35-2.88c-0.66-1.84-0.8-4.58,0.99-6.22
			c1.37-1.24,3.18-1.31,4.92-1.38c1.49-0.06,2.89-0.11,3.9-0.87c1.71-1.31,1.53-4.12,0.58-6.32c-0.41-1-0.96-1.98-1.62-2.92
			c-0.23-0.33-0.16-0.78,0.17-1.01c0.32-0.23,0.78-0.16,1.01,0.17c0.73,1.03,1.33,2.1,1.78,3.2c1.16,2.71,1.29,6.25-1.04,8.04
			c-1.38,1.04-3.08,1.1-4.72,1.17c-1.55,0.06-3.02,0.11-4,1c-1.26,1.16-1.11,3.24-0.6,4.67c0.32,0.92,0.78,1.77,1.26,2.67
			c0.44,0.82,0.9,1.67,1.24,2.57c0.71,1.91,0.89,4.55-0.73,6.25c-0.97,1-2.26,1.37-3.51,1.72c-0.82,0.23-1.6,0.45-2.26,0.84
			c-2.04,1.21-2.62,3.9-2.5,5.84c0.1,1.78,0.64,3.49,1.21,5.29c0.19,0.6,0.38,1.21,0.56,1.82c0.63,2.23,1.22,5.14,0.15,7.81
			c-1.51,3.86-5.83,5.61-9.44,5.63C87.54,128.89,87.51,128.89,87.48,128.89z"/>
	</g>
	<g>
		<path class="st27" d="M193.23,184.66l-83.88,20.66c0.97-1.06,1.79-2.24,2.46-3.54c2.68-5.34,2.83-12.13,7.22-16.23
			c7.42-6.91,20.7-0.66,29.14-6.33c5.89-3.94,7.04-11.96,7.82-19.02c0.75-7.04,2.37-15.12,8.59-18.51
			c3.83-2.06,8.79-1.95,11.91-4.94c3.19-3.06,3.17-8.15,2.3-12.47c-0.84-4.34-2.3-8.79-1.22-13.06c0.38-1.46,1.02-2.79,1.82-4.07
			l17.58,71.34C197.64,181.23,195.98,183.97,193.23,184.66z"/>
	</g>
	<g>
		<path d="M125.14,202.15c-0.33,0-0.62-0.22-0.7-0.55c-0.1-0.39,0.14-0.78,0.53-0.88l68.09-16.77c2.38-0.59,3.79-2.92,3.21-5.3
			L167.46,61.79c-0.59-2.34-2.95-3.77-5.3-3.19L73.08,80.54c-2.34,0.59-3.77,2.97-3.19,5.3L86.2,152c0.1,0.39-0.14,0.78-0.53,0.88
			c-0.4,0.09-0.78-0.14-0.88-0.53L68.48,86.19c-0.77-3.1,1.13-6.27,4.25-7.05l89.08-21.94c3.09-0.78,6.27,1.13,7.05,4.25
			l28.81,116.87c0.75,3.11-1.16,6.28-4.27,7.05l-68.09,16.77C125.26,202.15,125.2,202.15,125.14,202.15z"/>
	</g>
	<g>
		<path class="st25" d="M141.05,65.91l-45.86,11.3c-2.14,0.54-4.35-0.66-5.06-2.72c-0.08-0.14-0.12-0.29-0.15-0.44l-1.97-8
			l-1.06-4.33c-0.58-2.32,0.83-4.68,3.15-5.22l15.09-3.73l30.78-7.59c0.56-0.14,1.14-0.15,1.66-0.08c1.68,0.23,3.13,1.49,3.57,3.25
			l3.03,12.33C144.77,63.02,143.36,65.35,141.05,65.91z"/>
	</g>
	<g>
		<path class="st28" d="M106.17,56.78c-0.48,1.22-1.8,1.93-3.09,2.13c-1.31,0.21-2.63-0.02-3.94-0.12c-1.31-0.12-2.7-0.08-3.84,0.56
			c-1.33,0.75-2.11,2.16-2.88,3.48c-0.79,1.29-1.74,2.67-3.21,3.11c-0.41,0.12-0.81,0.15-1.22,0.12l-1.06-4.33
			c-0.58-2.32,0.83-4.68,3.15-5.22l15.09-3.73C106.1,53.92,106.72,55.42,106.17,56.78z"/>
	</g>
	<g>
		<path class="st28" d="M90.82,68.78c-0.91,0.03-1.87-0.18-2.75-0.56c-0.37-0.16-0.54-0.59-0.38-0.95c0.16-0.37,0.59-0.53,0.95-0.38
			c0.69,0.3,1.39,0.43,2.16,0.44c1.6,0,3.17-0.73,4.23-1.95c0.34-0.4,0.64-0.87,0.94-1.32c0.67-1.04,1.37-2.11,2.58-2.7
			c1.5-0.74,3.07-0.39,4.6-0.04c0.79,0.18,1.54,0.35,2.27,0.37c2.28,0.07,4.44-1.62,4.98-3.8c0.48-1.95-0.44-4.25-2.15-5.36
			c-0.33-0.22-0.43-0.67-0.21-1c0.22-0.34,0.67-0.43,1-0.21c2.23,1.45,3.39,4.37,2.76,6.92c-0.7,2.81-3.57,4.91-6.42,4.9
			c-0.87-0.02-1.72-0.22-2.55-0.41c-1.33-0.3-2.59-0.59-3.64-0.07c-0.85,0.42-1.41,1.28-2,2.19c-0.33,0.51-0.67,1.02-1.05,1.48
			C94.81,67.87,92.82,68.78,90.82,68.78z"/>
	</g>
	<g>
		<path class="st28" d="M141.04,65.91L95.18,77.22c-2.15,0.53-4.34-0.66-5.07-2.72c1.9,1.42,4.78,1.33,7.02,0.27
			c2.52-1.2,4.43-3.3,6.49-5.2c2.04-1.88,4.45-3.68,7.22-3.85c1.86-0.13,3.7,0.47,5.51,0.84c1.84,0.38,3.85,0.51,5.45-0.47
			c3.41-2.08,3.06-7.86,6.6-9.65c2.28-1.15,5.16-0.09,7.51-1.11c2.44-1.04,3.45-4.14,2.99-6.75c-0.22-1.22-0.69-2.37-1.28-3.45
			c1.68,0.22,3.12,1.48,3.56,3.23l3.03,12.33C144.78,63.01,143.37,65.35,141.04,65.91z"/>
	</g>
	<g>
		<path d="M124.07,70.82c-0.33,0-0.62-0.22-0.7-0.55c-0.1-0.39,0.14-0.78,0.53-0.88l16.97-4.19c0.94-0.22,1.72-0.79,2.22-1.61
			c0.5-0.82,0.65-1.8,0.42-2.74l-3.03-12.33c-0.36-1.42-1.55-2.5-2.95-2.69c-0.46-0.08-0.94-0.06-1.4,0.05L90.26,57.2
			c-0.94,0.22-1.72,0.79-2.22,1.61c-0.5,0.82-0.65,1.8-0.42,2.74l2.02,8.22c0.1,0.39-0.14,0.78-0.53,0.88
			c-0.4,0.09-0.78-0.14-0.88-0.53l-2.02-8.21c-0.33-1.32-0.12-2.68,0.59-3.84c0.7-1.15,1.81-1.95,3.11-2.27l45.85-11.31
			c0.65-0.16,1.32-0.18,1.95-0.08c1.97,0.26,3.64,1.78,4.15,3.77l3.04,12.34c0.33,1.32,0.12,2.68-0.59,3.84
			c-0.7,1.15-1.81,1.95-3.11,2.26l-16.96,4.18C124.19,70.81,124.13,70.82,124.07,70.82z"/>
	</g>
	<g>
		<path class="st29" d="M114.5,142.78l-14.52,3.58c-2.12,0.52-4.27-0.77-4.79-2.9l-3.58-14.52c-0.52-2.12,0.77-4.27,2.9-4.79
			l14.52-3.58c2.12-0.52,4.27,0.77,4.79,2.9l3.58,14.52C117.91,140.12,116.62,142.26,114.5,142.78z"/>
	</g>
	<g>
		<path d="M126.19,121.72c-0.33,0-0.62-0.22-0.7-0.55c-0.1-0.39,0.14-0.78,0.53-0.88l32.48-8.01c0.39-0.1,0.78,0.14,0.88,0.53
			c0.1,0.39-0.14,0.78-0.53,0.88l-32.48,8.01C126.31,121.71,126.25,121.72,126.19,121.72z"/>
	</g>
	<g>
		<path d="M129.2,133.93c-0.33,0-0.62-0.22-0.7-0.55c-0.1-0.39,0.14-0.78,0.53-0.88l32.48-8.01c0.39-0.1,0.78,0.14,0.88,0.53
			c0.1,0.39-0.14,0.78-0.53,0.88l-32.48,8.01C129.32,133.92,129.26,133.93,129.2,133.93z"/>
	</g>
	<g>
		<path class="st2" d="M103.75,138.05c-0.58,0-1.05-0.27-1.34-0.44l-4.22-2.45c-0.46-0.27-0.62-0.86-0.35-1.32
			c0.27-0.47,0.86-0.62,1.32-0.35l4.22,2.45c0.09,0.05,0.3,0.17,0.38,0.18c-0.01-0.01,0.11-0.1,0.36-0.56l4.03-7.57
			c0.25-0.47,0.84-0.64,1.31-0.4c0.47,0.25,0.65,0.84,0.4,1.31l-4.03,7.57c-0.24,0.45-0.8,1.49-1.93,1.58
			C103.84,138.05,103.79,138.05,103.75,138.05z"/>
	</g>
	<g>
		<path class="st29" d="M123.17,177.97l-14.52,3.58c-2.12,0.52-4.27-0.77-4.79-2.9l-3.58-14.52c-0.52-2.12,0.77-4.27,2.9-4.79
			l14.52-3.58c2.12-0.52,4.27,0.77,4.79,2.9l3.58,14.52C126.59,175.3,125.29,177.45,123.17,177.97z"/>
	</g>
	<g>
		<path d="M134.86,156.9c-0.33,0-0.62-0.22-0.7-0.55c-0.1-0.39,0.14-0.78,0.53-0.88l32.48-8.01c0.39-0.1,0.78,0.14,0.88,0.53
			c0.1,0.39-0.14,0.78-0.53,0.88l-32.48,8.01C134.98,156.9,134.92,156.9,134.86,156.9z"/>
	</g>
	<g>
		<path d="M137.87,169.11c-0.33,0-0.62-0.22-0.7-0.55c-0.1-0.39,0.14-0.78,0.53-0.88l32.48-8.01c0.39-0.1,0.78,0.14,0.88,0.53
			c0.1,0.39-0.14,0.78-0.53,0.88l-32.48,8.01C137.99,169.1,137.93,169.11,137.87,169.11z"/>
	</g>
	<g>
		<path class="st2" d="M112.42,173.23c-0.58,0-1.05-0.27-1.34-0.44l-4.22-2.45c-0.46-0.27-0.62-0.86-0.35-1.32
			c0.27-0.46,0.86-0.62,1.32-0.35l4.22,2.45c0.09,0.05,0.3,0.17,0.38,0.18c-0.01-0.01,0.11-0.1,0.36-0.56l4.03-7.57
			c0.25-0.47,0.84-0.65,1.31-0.4c0.47,0.25,0.65,0.83,0.4,1.31l-4.03,7.57c-0.22,0.41-0.79,1.49-1.93,1.58
			C112.51,173.23,112.47,173.23,112.42,173.23z"/>
	</g>
	<g>
		<rect x="189.9" y="144.96" class="st30" width="5.84" height="5.84"/>
	</g>
	<g>
		<circle class="st30" cx="192.75" cy="138.92" r="8.52"/>
	</g>
	<g>
		<circle class="st23" cx="192.75" cy="138.92" r="4.63"/>
	</g>
	<g>
		<path class="st31" d="M223.5,179.9c0,16.74-13.57,30.29-30.29,30.29c-10.72,0-20.13-5.56-25.51-13.95
			c-3.06-4.69-4.8-10.32-4.8-16.34c0-16.72,13.57-30.29,30.31-30.29c11.8,0,22.05,6.78,27.04,16.65
			C222.33,170.35,223.5,175,223.5,179.9z"/>
	</g>
	<g>
		<path class="st32" d="M72.99,70.82c0,11.18-9.07,20.24-20.24,20.24c-7.16,0-13.45-3.71-17.04-9.32
			c-2.04-3.14-3.21-6.89-3.21-10.92c0-11.17,9.07-20.24,20.25-20.24c7.88,0,14.73,4.53,18.06,11.12
			C72.2,64.44,72.99,67.55,72.99,70.82z"/>
	</g>
	<g>
		<path class="st31" d="M71.83,70.82c0,10.54-8.55,19.08-19.08,19.08c-6.75,0-12.68-3.5-16.07-8.79c-1.92-2.96-3.03-6.5-3.03-10.29
			c0-10.53,8.55-19.08,19.09-19.08c7.43,0,13.89,4.27,17.03,10.49C71.09,64.81,71.83,67.74,71.83,70.82z"/>
	</g>
	<g>
		<path class="st33" d="M223.5,179.9c0,16.74-13.57,30.29-30.29,30.29c-10.72,0-20.13-5.56-25.51-13.95
			c3.57,3.43,9.41,4.52,13.91,2.32c3.37,2.1,7.35,3.32,11.6,3.32c12.09,0,21.9-9.74,21.99-21.83c0.4-0.18,0.78-0.38,1.15-0.62
			c3.23-2.01,4.63-6.16,4.41-9.96c-0.07-1.08-0.24-2.15-0.51-3.21C222.33,170.35,223.5,175,223.5,179.9z"/>
	</g>
	<g>
		<path d="M193.21,210.91c-10.62,0-20.38-5.34-26.12-14.28c-3.22-4.95-4.92-10.73-4.92-16.73c0-17.1,13.92-31.02,31.04-31.02
			c4.35,0,8.55,0.88,12.5,2.63c0.37,0.16,0.53,0.59,0.37,0.95c-0.16,0.37-0.59,0.53-0.95,0.37c-3.76-1.66-7.77-2.51-11.92-2.51
			c-16.32,0-29.59,13.26-29.59,29.57c0,5.72,1.62,11.23,4.69,15.95c5.47,8.53,14.78,13.62,24.9,13.62c12.5,0,23.71-7.91,27.88-19.69
			c0.13-0.38,0.55-0.57,0.92-0.44c0.38,0.13,0.58,0.55,0.44,0.92C218.07,202.61,206.32,210.91,193.21,210.91z"/>
	</g>
	<g>
		<path class="st26" d="M215.2,179.9v0.16c-0.09,12.09-9.9,21.83-21.99,21.83c-4.25,0-8.24-1.22-11.6-3.32
			c-6.24-3.85-10.41-10.76-10.41-18.67c0-12.13,9.85-21.99,22.01-21.99C205.34,157.91,215.2,167.76,215.2,179.9z"/>
	</g>
	<g>
		<path class="st27" d="M215.2,180.05c-0.09,12.09-9.9,21.83-21.99,21.83c-4.25,0-8.24-1.22-11.6-3.32
			c0.24-0.11,0.49-0.24,0.73-0.38c1.55-0.91,2.9-2.17,4.63-2.7c2.81-0.89,5.78,0.4,8.53,1.48c2.72,1.11,5.98,1.99,8.5,0.47
			c2.41-1.46,3.21-4.54,3.65-7.33c0.44-2.81,0.91-5.87,3.03-7.73C211.96,181.27,213.65,180.78,215.2,180.05z"/>
	</g>
	<g>
		<path d="M174.79,192.66c-0.24,0-0.47-0.12-0.61-0.33c-2.42-3.69-3.71-7.99-3.71-12.43c0-12.52,10.2-22.71,22.73-22.71
			c12.52,0,22.71,10.19,22.71,22.71c-0.02,2.44-0.37,4.69-1.05,6.84c-0.12,0.38-0.52,0.6-0.91,0.47c-0.38-0.12-0.59-0.53-0.47-0.91
			c0.64-2.02,0.97-4.12,0.98-6.26c0-11.87-9.54-21.41-21.26-21.41c-11.74,0-21.28,9.54-21.28,21.26c0,4.16,1.2,8.19,3.47,11.64
			c0.22,0.33,0.13,0.78-0.21,1C175.06,192.62,174.92,192.66,174.79,192.66z"/>
	</g>
	<g>
		<path class="st25" d="M197.07,181.35c0,2.29-1.86,4.15-4.15,4.15c-2.29,0-4.15-1.86-4.15-4.15c0-1.78,2.51-10.01,3.63-13.57
			c0.16-0.51,0.88-0.51,1.04,0C194.55,171.33,197.07,179.56,197.07,181.35z"/>
	</g>
	<g>
		<circle class="st2" cx="192.83" cy="180.84" r="1.96"/>
	</g>
	<g>
		<g>
			<g>
				<path d="M193.2,162.63c-0.4,0-0.72-0.32-0.72-0.72v-2.99c0-0.4,0.32-0.72,0.72-0.72s0.72,0.32,0.72,0.72v2.99
					C193.92,162.31,193.6,162.63,193.2,162.63z"/>
			</g>
			<g>
				<path d="M193.2,201.61c-0.4,0-0.72-0.32-0.72-0.72v-2.99c0-0.4,0.32-0.72,0.72-0.72s0.72,0.32,0.72,0.72v2.99
					C193.92,201.28,193.6,201.61,193.2,201.61z"/>
			</g>
		</g>
		<g>
			<g>
				<path d="M180.47,167.9c-0.18,0-0.37-0.07-0.51-0.21l-2.11-2.11c-0.28-0.28-0.28-0.74,0-1.02c0.28-0.28,0.74-0.28,1.03,0
					l2.11,2.11c0.28,0.28,0.28,0.74,0,1.02C180.85,167.83,180.66,167.9,180.47,167.9z"/>
			</g>
			<g>
				<path d="M208.04,195.46c-0.18,0-0.37-0.07-0.51-0.21l-2.11-2.11c-0.28-0.28-0.28-0.74,0-1.02c0.28-0.28,0.74-0.28,1.03,0
					l2.11,2.11c0.28,0.28,0.28,0.74,0,1.02C208.41,195.39,208.22,195.46,208.04,195.46z"/>
			</g>
		</g>
		<g>
			<g>
				<path d="M175.2,180.63h-2.99c-0.4,0-0.72-0.32-0.72-0.72s0.32-0.72,0.72-0.72h2.99c0.4,0,0.72,0.32,0.72,0.72
					S175.6,180.63,175.2,180.63z"/>
			</g>
			<g>
				<path d="M214.18,180.63h-2.99c-0.4,0-0.72-0.32-0.72-0.72s0.32-0.72,0.72-0.72h2.99c0.4,0,0.72,0.32,0.72,0.72
					S214.58,180.63,214.18,180.63z"/>
			</g>
		</g>
		<g>
			<g>
				<path d="M178.36,195.46c-0.18,0-0.37-0.07-0.51-0.21c-0.28-0.28-0.28-0.74,0-1.02l2.11-2.11c0.28-0.28,0.74-0.28,1.03,0
					c0.28,0.28,0.28,0.74,0,1.02l-2.11,2.11C178.73,195.39,178.55,195.46,178.36,195.46z"/>
			</g>
			<g>
				<path d="M205.92,167.9c-0.18,0-0.37-0.07-0.51-0.21c-0.28-0.28-0.28-0.74,0-1.02l2.11-2.11c0.28-0.28,0.74-0.28,1.03,0
					c0.28,0.28,0.28,0.74,0,1.02l-2.11,2.11C206.29,167.83,206.11,167.9,205.92,167.9z"/>
			</g>
		</g>
	</g>
	<g>
		<g>
			<path class="st31" d="M119.88,102.12c0.33,0.25,0.56,0.58,0.65,0.94c0.12,0.48,0.01,1.01-0.28,1.41
				c-0.24,0.36-0.61,0.57-0.97,0.66c-0.45,0.11-0.97,0.03-1.41-0.28l-0.95-0.72c-1.2,1.31-2.78,2.26-4.6,2.71
				c-5.19,1.28-10.48-2.09-11.81-7.5c-1.33-5.41,1.79-10.85,6.97-12.13c5.19-1.28,10.51,2.08,11.84,7.49
				c0.57,2.3,0.31,4.62-0.54,6.62L119.88,102.12z M114.2,102.12l-1.6-1.18c-0.33-0.25-0.57-0.6-0.66-0.97
				c-0.12-0.48-0.03-0.97,0.28-1.38c0.25-0.33,0.58-0.56,0.94-0.65c0.47-0.12,1.01-0.01,1.41,0.28l1.38,1.03
				c0.37-1.16,0.41-2.45,0.09-3.74c-0.89-3.62-4.36-5.86-7.75-5.02c-3.37,0.83-5.39,4.42-4.5,8.04c0.89,3.62,4.36,5.86,7.72,5.03
				C112.55,103.3,113.44,102.81,114.2,102.12z"/>
		</g>
		<g>
			<path class="st31" d="M123.87,99.94c-1.21-1.52-1.64-3.16-1.69-3.36l-2.62-10.63c-0.22-0.9,0.33-1.81,1.22-2.03
				c0.9-0.22,1.81,0.33,2.03,1.23l2.62,10.63c0.1,0.42,1.34,4.01,4.71,3.18c3.2-0.79,2.83-4.35,2.67-5l-2.62-10.63
				c-0.22-0.9,0.33-1.81,1.22-2.03c0.9-0.22,1.81,0.33,2.03,1.23l2.62,10.63c0.05,0.2,0.46,1.85,0.09,3.75
				c-0.54,2.75-2.4,4.64-5.2,5.33C128.15,102.93,125.63,102.13,123.87,99.94z"/>
		</g>
		<g>
			<path class="st31" d="M139.73,98.35l-4.04-16.38c-0.22-0.9,0.33-1.81,1.22-2.03c0.9-0.22,1.81,0.33,2.03,1.23l4.04,16.38
				c0.22,0.9-0.33,1.81-1.23,2.03C140.86,99.8,139.95,99.25,139.73,98.35z"/>
		</g>
		<g>
			<path class="st31" d="M147.26,98.22c-0.87,0.21-1.81-0.33-2.03-1.25c-0.07-0.28-0.08-0.57,0.02-0.87l4.91-15.93l-6.93,1.71
				c-0.9,0.22-1.81-0.33-2.03-1.23c-0.23-0.92,0.32-1.83,1.22-2.05l9.82-2.42c0.84-0.21,1.8,0.3,2.03,1.23
				c0.08,0.31,0.09,0.6-0.02,0.9l-4.91,15.93l6.93-1.71c0.9-0.22,1.83,0.32,2.06,1.25c0.22,0.9-0.36,1.81-1.25,2.03L147.26,98.22z"
				/>
		</g>
	</g>
	<g>
		<path class="st2" d="M154.03,177.91c-1.32,0-2.52,0.63-3.38,1.66c-0.87,1.03-1.41,2.44-1.41,4c0-3.12-2.13-5.66-4.77-5.66
			c1.32,0,2.51-0.63,3.38-1.65c0.86-1.03,1.39-2.44,1.39-4c0,1.56,0.54,2.97,1.41,4C151.51,177.28,152.72,177.91,154.03,177.91z"/>
	</g>
	<g>
		<path class="st2" d="M129.92,61.22c-1.32,0-2.52,0.63-3.38,1.66c-0.87,1.03-1.41,2.44-1.41,4c0-3.12-2.13-5.66-4.77-5.66
			c1.32,0,2.51-0.63,3.38-1.65c0.86-1.03,1.39-2.44,1.39-4c0,1.56,0.54,2.97,1.41,4C127.4,60.59,128.6,61.22,129.92,61.22z"/>
	</g>
	<g>
		<path class="st2" d="M49.5,77.37c-0.87,0-1.67,0.42-2.23,1.1c-0.58,0.68-0.93,1.61-0.93,2.64c0-2.07-1.41-3.74-3.15-3.74
			c0.87,0,1.66-0.42,2.23-1.09c0.57-0.68,0.92-1.61,0.92-2.64c0,1.03,0.35,1.96,0.93,2.64C47.83,76.95,48.63,77.37,49.5,77.37z"/>
	</g>
	<g>
		<path class="st2" d="M157.12,167.94c-0.83,0-1.59,0.4-2.12,1.05c-0.55,0.65-0.88,1.53-0.88,2.51c0-1.96-1.34-3.56-3-3.56
			c0.83,0,1.58-0.4,2.12-1.04c0.54-0.65,0.88-1.53,0.88-2.51c0,0.98,0.34,1.87,0.88,2.51C155.53,167.54,156.29,167.94,157.12,167.94
			z"/>
	</g>
	<g>
		<g>
			<path class="st2" d="M173.13,59.58c-0.65,0.26-1.68-0.79-3.03-2.31c-1.35-1.51-3.15-3.55-5.33-4.75
				c-2.16-1.19-4.32-1.16-6.41-0.92c-2.01,0.22-3.5,0.31-3.8-0.34c-0.28-0.61,0.58-1.82,2.66-3.03c1.04-0.59,2.43-1.17,4.25-1.34
				c1.78-0.17,3.89,0.21,5.7,1.21c3.64,2.07,5.31,5.24,6.04,7.44C173.93,57.83,173.76,59.33,173.13,59.58z"/>
		</g>
		<g>
			<path class="st2" d="M176.44,69.65c-0.57,0.22-1.61-1.22-2.2-3.2c-0.59-1.97-0.61-3.67-0.04-3.86c0.58-0.19,1.55,1.27,2.14,3.22
				C176.92,67.75,177.01,69.43,176.44,69.65z"/>
		</g>
	</g>
	<g>
		<g>
			<path class="st2" d="M84.86,175.01c1.33-0.42,3.63,3.18,5.16,8.04c1.52,4.86,1.68,9.13,0.36,9.54c-1.33,0.42-3.63-3.18-5.16-8.04
				C83.7,179.7,83.54,175.42,84.86,175.01z"/>
		</g>
		<g>
			<path class="st2" d="M82.42,167.21c0.58-0.18,1.43,0.89,1.9,2.4c0.47,1.5,0.39,2.87-0.19,3.05c-0.58,0.18-1.43-0.89-1.9-2.4
				C81.75,168.75,81.84,167.39,82.42,167.21z"/>
		</g>
	</g>
	<g>
		<path class="st2" d="M52.12,76.4c-0.18-0.56-0.13-1.1,0.14-1.62c0.28-0.52,0.68-0.87,1.22-1.05l0.46-0.15
			c0.79-0.26,1.47-0.64,2.05-1.15c0.58-0.51,1.04-1.08,1.38-1.72c0.34-0.63,0.55-1.29,0.62-1.97c0.07-0.68,0-1.34-0.2-1.98
			c-0.22-0.69-0.56-1.29-1.01-1.8c-0.45-0.51-0.97-0.92-1.58-1.21c-0.6-0.3-1.25-0.48-1.95-0.54c-0.7-0.07-1.4,0.01-2.11,0.25
			c-1.09,0.36-1.95,0.97-2.57,1.85c-0.63,0.88-0.99,1.85-1.09,2.92c-0.05,0.44-0.22,0.82-0.51,1.14c-0.29,0.32-0.61,0.54-0.97,0.65
			c-0.61,0.2-1.16,0.15-1.65-0.15c-0.49-0.3-0.82-0.71-0.99-1.22c-0.11-0.33-0.16-0.62-0.16-0.87c0.06-0.94,0.26-1.85,0.6-2.72
			c0.35-0.87,0.8-1.68,1.37-2.43c0.57-0.75,1.25-1.4,2.03-1.97c0.78-0.56,1.64-1,2.58-1.31c1.24-0.41,2.5-0.55,3.77-0.43
			c1.27,0.12,2.45,0.45,3.53,1c1.08,0.55,2.04,1.3,2.89,2.26c0.85,0.96,1.48,2.06,1.88,3.3c0.34,1.04,0.49,2.14,0.44,3.29
			c-0.05,1.15-0.29,2.26-0.73,3.34c-0.44,1.07-1.07,2.04-1.9,2.92c-0.83,0.87-1.84,1.55-3.03,2.02c-0.02,0.45-0.16,0.86-0.42,1.22
			c-0.26,0.36-0.61,0.62-1.04,0.76c-0.56,0.18-1.1,0.14-1.62-0.14c-0.53-0.28-0.88-0.69-1.06-1.25L52.12,76.4z M54.16,82.65
			c-0.18-0.56-0.14-1.1,0.14-1.63c0.28-0.53,0.68-0.88,1.22-1.05c0.58-0.19,1.14-0.15,1.66,0.11c0.52,0.27,0.88,0.68,1.06,1.24
			l0.34,1.03c0.19,0.58,0.15,1.14-0.13,1.67c-0.28,0.53-0.7,0.88-1.26,1.06c-0.56,0.18-1.1,0.14-1.62-0.12
			c-0.52-0.27-0.88-0.69-1.07-1.27L54.16,82.65z"/>
	</g>
</g>
</svg>
