<?xml version="1.0" encoding="UTF-8"?>
<svg id="Layer_1" data-name="Layer 1" xmlns="http://www.w3.org/2000/svg" viewBox="0 0 256 256">
  <defs>
    <style>
      .cls-1 {
        fill: #85ada2;
      }
    </style>
  </defs>
  <path class="cls-1" d="m220.67,167.96c-3.87-3.86-10.14-3.86-14.01,0l-25.12,25.13v-121.41c0-5.47-4.44-9.91-9.91-9.91s-9.91,4.44-9.91,9.91v145.33c0,5.34,4.23,9.72,9.56,9.89.12.01.23.02.35.02.11,0,.23,0,.34-.02,1.18-.04,2.35-.29,3.44-.74,1.2-.5,2.3-1.22,3.22-2.14l42.04-42.04c3.86-3.87,3.86-10.14,0-14.01h0Z"/>
  <path class="cls-1" d="m153.45,41.46c-2.1-5.06-7.91-7.45-12.96-5.34-1.19.5-2.27,1.22-3.19,2.13l-42.05,42.04c-3.87,3.87-3.87,10.14,0,14.01,3.87,3.87,10.14,3.87,14.01,0l25.12-25.13v121.41c0,5.47,4.44,9.91,9.91,9.91s9.91-4.44,9.91-9.91V45.25c0-1.3-.26-2.59-.76-3.79h0Z"/>
  <path class="cls-1" d="m81.54,88.19h-46.24c-1.82,0-3.3-1.48-3.3-3.3v-46.24c0-1.82,1.48-3.3,3.3-3.3h46.24c1.82,0,3.3,1.48,3.3,3.3v46.24c0,1.82-1.48,3.3-3.3,3.3Zm-42.94-6.61h39.64v-39.64h-39.64v39.64Z"/>
  <path class="cls-1" d="m81.54,157.55h-46.24c-1.82,0-3.3-1.48-3.3-3.3v-46.24c0-1.82,1.48-3.3,3.3-3.3h46.24c1.82,0,3.3,1.48,3.3,3.3v46.24c0,1.82-1.48,3.3-3.3,3.3Zm-42.94-6.61h39.64v-39.64h-39.64v39.64Z"/>
  <path class="cls-1" d="m81.54,226.91h-46.24c-1.82,0-3.3-1.48-3.3-3.3v-46.24c0-1.82,1.48-3.3,3.3-3.3h46.24c1.82,0,3.3,1.48,3.3,3.3v46.24c0,1.82-1.48,3.3-3.3,3.3Zm-42.94-6.61h39.64v-39.64h-39.64v39.64Z"/>
</svg>