<?xml version="1.0" encoding="utf-8"?>
<!-- Generator: Adobe Illustrator 27.3.1, SVG Export Plug-In . SVG Version: 6.00 Build 0)  -->
<svg version="1.1" id="Layer_1" xmlns="http://www.w3.org/2000/svg" xmlns:xlink="http://www.w3.org/1999/xlink" x="0px" y="0px"
	 viewBox="0 0 256 256" style="enable-background:new 0 0 256 256;" xml:space="preserve">
<style type="text/css">
	.st0{fill:#8FDDE7;}
	.st1{fill:none;stroke:#121777;stroke-width:4;stroke-linecap:round;stroke-linejoin:round;stroke-miterlimit:10;}
	.st2{fill:#FFFFFF;}
	.st3{fill:#1AA4CE;}
	.st4{fill:#D3BBDD;}
	.st5{fill:#FBC12C;}
	.st6{fill:#837CB8;}
	.st7{fill:#78BCEF;}
	.st8{fill:#F25555;}
	.st9{fill:#8EE06C;}
	.st10{fill:#84C7EF;}
	.st11{fill:#FCFCFC;}
	.st12{fill:#F8AFA6;}
	.st13{fill:none;stroke:#FFFFFF;stroke-width:11;stroke-linecap:round;stroke-linejoin:round;stroke-miterlimit:10;}
	.st14{fill:#F13049;}
	.st15{fill:#F5A10F;}
	.st16{fill:#F2C700;}
	.st17{fill:#9CD925;}
	.st18{fill:#00D26F;}
	.st19{fill:#EDC30D;}
	.st20{fill:#FED400;}
	.st21{fill:#CCCCCC;}
	.st22{fill:#A2A2A2;}
	.st23{font-family:'Duepuntozero-Bold';}
	.st24{font-size:27.7684px;}
	.st25{fill:#FF7A43;}
	.st26{fill:#F26636;}
	.st27{fill:#509DFF;}
	.st28{fill:#F4EDED;}
	.st29{fill:#D8D6D6;}
	.st30{fill:#308CEF;}
	.st31{fill:#D3DC5E;}
	.st32{fill:#1B38AB;}
	.st33{fill:#FE515E;}
	.st34{fill:#020202;}
	.st35{fill:#F83B4D;}
	.st36{fill:url(#SVGID_1_);}
	.st37{fill:url(#SVGID_00000168837368231686274540000012001856925355289769_);}
	.st38{fill:url(#SVGID_00000031188224910814394980000015269815447783493302_);}
	.st39{fill:url(#SVGID_00000079488434032861198330000007151404863299607740_);}
	.st40{fill:url(#SVGID_00000162354697733363369180000007149329203166139803_);}
	.st41{fill:url(#SVGID_00000119112222851738119240000015230402191340716208_);}
	.st42{fill:url(#SVGID_00000051362899606556048670000006213436420305116850_);}
	.st43{fill:url(#SVGID_00000179632937243932872630000001883277175317598382_);}
	.st44{fill:url(#SVGID_00000022525749104442048400000009293804621395714720_);}
	.st45{fill:url(#SVGID_00000039814970539564112820000011885779889457967523_);}
	.st46{fill:url(#SVGID_00000127037494032068795070000010120261655619305888_);}
	.st47{fill:url(#SVGID_00000112602916265534140710000001650364511331982771_);}
	.st48{fill:url(#SVGID_00000082370161829719808410000014925860557799562653_);}
	.st49{fill:url(#SVGID_00000016055144820053861530000011342883855932147898_);}
	.st50{fill:url(#SVGID_00000134208795749181071520000005027701899292689322_);}
	.st51{fill:url(#SVGID_00000143579831929719615690000012679908868199899787_);}
	.st52{fill:url(#SVGID_00000044897165845510484270000017572151704194919614_);}
	.st53{fill:url(#SVGID_00000065050594668031179900000011213960198049338547_);}
	.st54{fill:#033270;}
	.st55{fill:#4091C9;}
	.st56{fill:url(#SVGID_00000115501227914378799110000007976703514875579577_);}
	.st57{fill:url(#SVGID_00000072266559062685384100000010122575458889675945_);}
	.st58{fill:url(#SVGID_00000099659557637717470420000013383423267516921010_);}
	.st59{fill:url(#SVGID_00000064345194669354193020000007882384853906072722_);}
	.st60{fill:url(#SVGID_00000082352630839347614870000014402164229755252366_);}
	.st61{fill:url(#SVGID_00000114051064938054927210000017275900136011014321_);}
	.st62{fill:url(#SVGID_00000051344890168144539130000002635891759948846256_);}
	.st63{fill:#DBDBD9;}
	.st64{fill:#3F3F3E;}
	.st65{fill:url(#SVGID_00000181062524485781236030000007073014130980356770_);}
	.st66{fill:url(#SVGID_00000030445480199870997420000001432437010115838910_);}
	.st67{fill:#232F5F;}
	.st68{fill:url(#SVGID_00000029007115775878339400000013771894507798283910_);}
	.st69{fill:url(#SVGID_00000142172017481856227100000017222059647318949513_);}
	.st70{fill:url(#SVGID_00000145750991564904970350000004990877187424471717_);}
	.st71{fill:url(#SVGID_00000145020399210853104490000014308788969663951788_);}
	.st72{fill:#223265;}
	.st73{fill:url(#SVGID_00000093896157814508333460000013454554891519572671_);}
	.st74{fill:url(#SVGID_00000162346480630897711990000002950252302466348717_);}
	.st75{fill:url(#SVGID_00000100347277985316854630000003149653228562068120_);}
	.st76{fill:url(#SVGID_00000108301955732017776970000007245337933517279671_);}
	.st77{fill:url(#SVGID_00000167356768534488314230000015791669425923309751_);}
	.st78{fill:url(#SVGID_00000000920476644747863120000013347930694241323447_);}
	.st79{fill:url(#SVGID_00000111164182384364622550000014612382454379139984_);}
	.st80{fill:url(#SVGID_00000044135612730324333540000000800825418268693398_);}
	.st81{fill:url(#SVGID_00000029751866034956532100000017168746043245212824_);}
	.st82{fill:url(#SVGID_00000180348765498394957910000004717948922138444479_);}
	.st83{fill:url(#SVGID_00000152238172299905698070000008567968145600498097_);}
	.st84{fill:url(#SVGID_00000002363448180570975800000004255422828576226730_);}
	.st85{fill:url(#SVGID_00000102536751875974962840000003906501135730450352_);}
	.st86{fill:url(#SVGID_00000145016161429001557290000002213546623464728461_);}
	.st87{fill:url(#SVGID_00000067945338141151353240000000333057817562483586_);}
	.st88{fill:url(#SVGID_00000041283097621782717270000009907880715353274784_);}
	.st89{fill:url(#SVGID_00000127761022108415425040000006632823847897053829_);}
	.st90{fill:url(#SVGID_00000092446006526158451670000005513068821131808176_);}
	.st91{fill:url(#SVGID_00000036954354015734607520000010619826570690049414_);}
	.st92{fill:url(#SVGID_00000127731148867353492130000015764681815766790276_);}
	.st93{fill:url(#SVGID_00000183250007012630002810000018126272015459926927_);}
	.st94{fill:url(#SVGID_00000039118704329285847180000018098774437028746167_);}
	.st95{fill:url(#SVGID_00000088113134808954278140000017052105885429853591_);}
	.st96{fill:url(#SVGID_00000001642822926446574330000002130480180392739738_);}
	.st97{fill:url(#SVGID_00000029763396476303556880000008647391877658675623_);}
	.st98{fill:url(#SVGID_00000037683305738818969600000014338924643584831406_);}
	.st99{fill:url(#SVGID_00000090296633101964752390000017152903371984293504_);}
	.st100{fill:#AF6838;}
	.st101{fill:url(#SVGID_00000093870308810246837200000001659301575254574991_);}
	.st102{fill:url(#SVGID_00000060031352006772374010000010228101247763568013_);}
	.st103{fill:url(#SVGID_00000101784763904135280910000015993540700656985518_);}
	.st104{fill:url(#SVGID_00000081608692175967749020000008414318093605911716_);}
	.st105{fill:#242F5F;}
	.st106{fill:#9DCEE2;}
	.st107{fill:url(#SVGID_00000137842800726263096260000014742179144527399608_);}
	.st108{fill:url(#SVGID_00000163780028078597094810000011067605455336901301_);}
	.st109{fill:url(#SVGID_00000098194639717786318350000009200068979002827412_);}
	.st110{fill:url(#SVGID_00000038400389313575999590000015753948935012007580_);}
	.st111{fill:url(#SVGID_00000050637993645630927780000016385216349926150303_);}
	.st112{fill:url(#SVGID_00000090272835018038060150000008931922805550442891_);}
	.st113{fill:url(#SVGID_00000128458550089975916140000010486804011679089337_);}
	.st114{fill:url(#SVGID_00000047028951745739311850000005694836292145720207_);}
	.st115{fill:url(#SVGID_00000125588917199946966160000016448513344729662364_);}
	.st116{fill:url(#SVGID_00000032606809122008828830000010918792131282652836_);}
	.st117{fill:url(#SVGID_00000019671246695214366920000013775341171581929858_);}
	.st118{fill:url(#SVGID_00000074419905803553886100000003187931931956560034_);}
	.st119{fill:url(#SVGID_00000103256121598117118790000005198878171585229708_);}
	.st120{fill:url(#SVGID_00000090995024087906199660000000341647341278517905_);}
	.st121{fill:url(#SVGID_00000169522477148022072410000004151664941234642329_);}
	.st122{fill:url(#SVGID_00000121991104318649692150000000567655241191324567_);}
	.st123{fill:url(#SVGID_00000093178139941159825120000017775848263435325880_);}
	.st124{fill:url(#SVGID_00000158030996518659217330000017288997137627997325_);}
	.st125{fill:url(#SVGID_00000003814262560233363180000000418997648277857674_);}
	.st126{fill:url(#SVGID_00000021810330940463904340000002542807528109012636_);}
	.st127{fill:#EF702D;}
	.st128{fill:#FDC058;}
	.st129{fill:#55A550;}
</style>
<g>
	<g>
		<path class="st14" d="M75.28,110.35H33.57c0.08-10,1.69-19.83,4.81-29.24c3.01-9.09,7.37-17.66,12.96-25.47l33.75,24.52
			C78.81,89.04,75.43,99.45,75.28,110.35z"/>
		<path class="st15" d="M97.33,67.73c-4.33,3.16-8.15,6.94-11.36,11.22L60.31,60.31l-8.09-5.88C58,46.62,64.91,39.75,72.76,34.02
			c7.95-5.81,16.69-10.32,25.99-13.42l7.95,24.46l4.95,15.22C106.53,62.03,101.72,64.53,97.33,67.73z"/>
		<path class="st16" d="M113.07,59.82l-10.93-33.65l-1.96-6.04c9.27-2.93,18.95-4.42,28.77-4.42c9.82,0,19.49,1.48,28.77,4.41
			l-12.89,39.69c-5.12-1.58-10.46-2.39-15.87-2.39C123.53,57.44,118.2,58.24,113.07,59.82z"/>
		<path class="st17" d="M160.56,67.73c-4.39-3.2-9.2-5.71-14.31-7.45l11.3-34.77l1.6-4.91c9.3,3.1,18.04,7.61,25.99,13.42
			c7.85,5.73,14.76,12.6,20.54,20.41l-23.1,16.78l-10.66,7.74C168.71,74.67,164.89,70.89,160.56,67.73z"/>
		<path class="st18" d="M182.61,110.35c-0.15-10.9-3.53-21.31-9.81-30.19l33.75-24.52c5.59,7.81,9.95,16.38,12.96,25.47
			c3.11,9.41,4.73,19.24,4.81,29.24H182.61z"/>
		<path class="st2" d="M50.86,83.95c0.01,0,0.03,0,0.04,0c0.02,0,0.05-0.01,0.07-0.01C50.94,83.94,50.9,83.94,50.86,83.95z
			 M51.98,83.94c0.02,0,0.05,0.01,0.07,0.01c0.01,0,0.03,0,0.04,0.01C52.05,83.95,52.01,83.94,51.98,83.94z M51.98,83.94
			c0.02,0,0.05,0.01,0.07,0.01c0.01,0,0.03,0,0.04,0.01C52.05,83.95,52.01,83.94,51.98,83.94z M50.86,83.95c0.01,0,0.03,0,0.04,0
			c0.02,0,0.05-0.01,0.07-0.01C50.94,83.94,50.9,83.94,50.86,83.95z M50.86,83.95c0.01,0,0.03,0,0.04,0c0.02,0,0.05-0.01,0.07-0.01
			C50.94,83.94,50.9,83.94,50.86,83.95z M51.98,83.94c0.02,0,0.05,0.01,0.07,0.01c0.01,0,0.03,0,0.04,0.01
			C52.05,83.95,52.01,83.94,51.98,83.94z M52.05,83.95c0.01,0,0.03,0,0.04,0.01c-0.04-0.01-0.08-0.01-0.11-0.02
			C52,83.94,52.02,83.94,52.05,83.95z M50.9,83.94c0.02,0,0.05-0.01,0.07-0.01c-0.04,0.01-0.08,0.01-0.11,0.02
			C50.87,83.95,50.89,83.95,50.9,83.94z M66.97,78.68c-2.6-2.6-6.06-4.03-9.73-4.03s-7.13,1.43-9.73,4.03
			c-2.6,2.6-4.03,6.06-4.03,9.73s1.43,7.13,4.03,9.73c2.6,2.6,6.06,4.03,9.73,4.03s7.13-1.43,9.73-4.03c2.6-2.6,4.03-6.06,4.03-9.73
			S69.56,81.28,66.97,78.68z M51.02,86.28c0-1.09,0.55-2,1.31-2.28c-0.09-0.02-0.18-0.04-0.28-0.05c-0.38-0.05-0.76-0.05-1.15,0
			c-0.12,0.02-0.23,0.04-0.35,0.07c-0.23,0.06-0.45-0.07-0.53-0.3c-0.07-0.22,0.08-0.48,0.3-0.53c0.39-0.09,0.79-0.14,1.19-0.13
			c1.39,0.01,2.79,0.61,3.72,1.65c0.16,0.18,0.16,0.43,0,0.61c-0.15,0.16-0.46,0.17-0.61,0c-0.09-0.11-0.19-0.21-0.3-0.3
			c0.18,0.37,0.28,0.81,0.28,1.28c0,1.31-0.8,2.37-1.8,2.37C51.82,88.65,51.02,87.59,51.02,86.28z M62.35,95.65
			c-0.2,0.07-0.4,0.05-0.58-0.01c-0.31-0.1-0.6-0.22-0.9-0.32c-2.1-0.71-4.39-0.74-6.51-0.09c-0.43,0.13-0.84,0.3-1.27,0.44
			c-0.61,0.19-1.18-0.42-0.96-1.01c0.81-2.12,3.17-3.3,5.35-3.27c1.66-0.01,3.4,0.63,4.51,1.9c0.35,0.41,0.66,0.86,0.84,1.37
			C62.97,95.05,62.76,95.5,62.35,95.65z M64.92,83.71c-0.05,0.23-0.31,0.35-0.53,0.3c-0.11-0.03-0.23-0.05-0.35-0.07
			c-0.38-0.05-0.77-0.05-1.15,0c-0.17,0.03-0.34,0.06-0.51,0.11c0.69,0.33,1.17,1.21,1.17,2.23c0,1.31-0.8,2.37-1.8,2.37
			c-0.99,0-1.8-1.06-1.8-2.37c0-0.3,0.04-0.59,0.12-0.85c-0.13,0.02-0.28-0.03-0.37-0.12c-0.18-0.16-0.15-0.44,0-0.61
			c0.27-0.29,0.57-0.55,0.9-0.78c1.16-0.78,2.65-1.06,4.01-0.74C64.85,83.24,64.97,83.49,64.92,83.71z M51.98,83.94
			c0.02,0,0.05,0.01,0.07,0.01c0.01,0,0.03,0,0.04,0.01C52.05,83.95,52.01,83.94,51.98,83.94z M50.86,83.95c0.01,0,0.03,0,0.04,0
			c0.02,0,0.05-0.01,0.07-0.01C50.94,83.94,50.9,83.94,50.86,83.95z M50.86,83.95c0.01,0,0.03,0,0.04,0c0.02,0,0.05-0.01,0.07-0.01
			C50.94,83.94,50.9,83.94,50.86,83.95z M51.98,83.94c0.02,0,0.05,0.01,0.07,0.01c0.01,0,0.03,0,0.04,0.01
			C52.05,83.95,52.01,83.94,51.98,83.94z M51.98,83.94c0.02,0,0.05,0.01,0.07,0.01c0.01,0,0.03,0,0.04,0.01
			C52.05,83.95,52.01,83.94,51.98,83.94z M50.86,83.95c0.01,0,0.03,0,0.04,0c0.02,0,0.05-0.01,0.07-0.01
			C50.94,83.94,50.9,83.94,50.86,83.95z"/>
		<path class="st14" d="M42.62,151.62c0.01,0,0.03,0,0.04-0.01c0.02,0,0.05-0.01,0.07-0.01C42.7,151.6,42.66,151.61,42.62,151.62z
			 M43.74,151.6c0.02,0,0.05,0.01,0.07,0.01c0.01,0,0.03,0,0.04,0.01C43.81,151.61,43.77,151.61,43.74,151.6z M43.74,151.6
			c0.02,0,0.05,0.01,0.07,0.01c0.01,0,0.03,0,0.04,0.01C43.81,151.61,43.77,151.61,43.74,151.6z M42.62,151.62
			c0.01,0,0.03,0,0.04-0.01c0.02,0,0.05-0.01,0.07-0.01C42.7,151.6,42.66,151.61,42.62,151.62z M42.62,151.62
			c0.01,0,0.03,0,0.04-0.01c0.02,0,0.05-0.01,0.07-0.01C42.7,151.6,42.66,151.61,42.62,151.62z M43.74,151.6
			c0.02,0,0.05,0.01,0.07,0.01c0.01,0,0.03,0,0.04,0.01C43.81,151.61,43.77,151.61,43.74,151.6z M43.81,151.61
			c0.01,0,0.03,0,0.04,0.01c-0.04-0.01-0.08-0.01-0.11-0.02C43.76,151.6,43.78,151.61,43.81,151.61z M42.66,151.61
			c0.02,0,0.05-0.01,0.07-0.01c-0.04,0.01-0.08,0.01-0.12,0.02C42.63,151.61,42.65,151.61,42.66,151.61z M58.73,146.34
			c-2.6-2.6-6.06-4.03-9.73-4.03s-7.13,1.43-9.73,4.03c-2.6,2.6-4.03,6.06-4.03,9.73s1.43,7.13,4.03,9.73
			c2.6,2.6,6.06,4.03,9.73,4.03s7.13-1.43,9.73-4.03c2.6-2.6,4.03-6.06,4.03-9.73S61.33,148.94,58.73,146.34z M42.78,153.95
			c0-1.09,0.55-2,1.31-2.28c-0.09-0.02-0.18-0.04-0.28-0.05c-0.38-0.05-0.76-0.05-1.15,0c-0.12,0.02-0.23,0.04-0.35,0.07
			c-0.23,0.06-0.45-0.07-0.53-0.3c-0.07-0.22,0.08-0.48,0.3-0.53c0.39-0.09,0.79-0.14,1.19-0.13c1.39,0.01,2.79,0.61,3.72,1.65
			c0.16,0.18,0.16,0.43,0,0.61c-0.15,0.16-0.46,0.17-0.61,0c-0.09-0.11-0.19-0.21-0.3-0.3c0.18,0.37,0.28,0.81,0.28,1.28
			c0,1.31-0.8,2.37-1.8,2.37C43.58,156.32,42.78,155.26,42.78,153.95z M54.11,163.31c-0.2,0.07-0.4,0.05-0.58-0.01
			c-0.31-0.1-0.6-0.22-0.9-0.32c-2.1-0.71-4.39-0.74-6.51-0.09c-0.43,0.13-0.84,0.3-1.27,0.44c-0.61,0.19-1.18-0.42-0.96-1.01
			c0.81-2.12,3.17-3.3,5.35-3.27c1.66-0.01,3.4,0.63,4.51,1.9c0.35,0.41,0.66,0.86,0.84,1.37
			C54.73,162.72,54.52,163.17,54.11,163.31z M56.68,151.38c-0.05,0.23-0.31,0.35-0.53,0.3c-0.11-0.03-0.23-0.05-0.35-0.07
			c-0.38-0.05-0.77-0.05-1.15,0c-0.17,0.03-0.34,0.06-0.51,0.11c0.69,0.33,1.17,1.21,1.17,2.23c0,1.31-0.8,2.37-1.8,2.37
			s-1.8-1.06-1.8-2.37c0-0.3,0.04-0.59,0.12-0.85c-0.13,0.02-0.28-0.03-0.37-0.12c-0.18-0.16-0.15-0.44,0-0.61
			c0.27-0.29,0.57-0.55,0.9-0.78c1.16-0.78,2.65-1.06,4.01-0.74C56.61,150.91,56.73,151.16,56.68,151.38z M43.74,151.6
			c0.02,0,0.05,0.01,0.07,0.01c0.01,0,0.03,0,0.04,0.01C43.81,151.61,43.77,151.61,43.74,151.6z M42.62,151.62
			c0.01,0,0.03,0,0.04-0.01c0.02,0,0.05-0.01,0.07-0.01C42.7,151.6,42.66,151.61,42.62,151.62z M42.62,151.62
			c0.01,0,0.03,0,0.04-0.01c0.02,0,0.05-0.01,0.07-0.01C42.7,151.6,42.66,151.61,42.62,151.62z M43.74,151.6
			c0.02,0,0.05,0.01,0.07,0.01c0.01,0,0.03,0,0.04,0.01C43.81,151.61,43.77,151.61,43.74,151.6z M43.74,151.6
			c0.02,0,0.05,0.01,0.07,0.01c0.01,0,0.03,0,0.04,0.01C43.81,151.61,43.77,151.61,43.74,151.6z M42.62,151.62
			c0.01,0,0.03,0,0.04-0.01c0.02,0,0.05-0.01,0.07-0.01C42.7,151.6,42.66,151.61,42.62,151.62z"/>
		<path class="st2" d="M87.82,46.7c0.01,0,0.02-0.01,0.04-0.01c0.02-0.01,0.04-0.02,0.07-0.03C87.89,46.68,87.86,46.69,87.82,46.7z
			 M89.32,46.29c0.02,0,0.04,0,0.06-0.01c0.02,0,0.03-0.01,0.05-0.01L89.32,46.29z M89.32,46.29c0.02,0,0.04,0,0.06-0.01
			c0.02,0,0.03-0.01,0.05-0.01L89.32,46.29z M87.82,46.7c0.01,0,0.02-0.01,0.04-0.01c0.02-0.01,0.04-0.02,0.07-0.03
			C87.89,46.68,87.86,46.69,87.82,46.7z M79.06,46.28c0.02,0,0.04,0.01,0.05,0.01c0.02,0,0.04,0,0.06,0.01
			C79.13,46.29,79.1,46.28,79.06,46.28z M80.56,46.66c0.02,0.01,0.05,0.02,0.07,0.03c0.01,0,0.02,0.01,0.04,0.01
			C80.63,46.69,80.6,46.68,80.56,46.66z M87.82,46.7c0.01,0,0.02-0.01,0.04-0.01c0.02-0.01,0.04-0.02,0.07-0.03
			C87.89,46.68,87.86,46.69,87.82,46.7z M89.32,46.29c0.02,0,0.04,0,0.06-0.01c0.02,0,0.03-0.01,0.05-0.01L89.32,46.29z
			 M89.32,46.29c0.02,0,0.04,0,0.06-0.01c0.02,0,0.03-0.01,0.05-0.01L89.32,46.29z M87.86,46.69c0.02-0.01,0.04-0.02,0.07-0.03
			c-0.03,0.01-0.07,0.03-0.1,0.04C87.84,46.7,87.85,46.69,87.86,46.69z M80.56,46.66c0.02,0.01,0.05,0.02,0.07,0.03
			c0.01,0,0.02,0.01,0.04,0.01C80.63,46.69,80.6,46.68,80.56,46.66z M79.11,46.29c0.02,0,0.04,0,0.06,0.01
			c-0.04,0-0.08-0.01-0.11-0.01C79.07,46.28,79.09,46.28,79.11,46.29z M93.92,41.84c-2.6-2.6-6.05-4.03-9.73-4.03
			c-3.68,0-7.13,1.43-9.73,4.03c-2.6,2.6-4.03,6.06-4.03,9.73c0,3.68,1.43,7.13,4.03,9.73c2.6,2.6,6.06,4.03,9.73,4.03
			c3.68,0,7.13-1.43,9.73-4.03c2.6-2.6,4.03-6.05,4.03-9.73C97.96,47.9,96.52,44.44,93.92,41.84z M77.32,46.29
			c-0.12,0.02-0.22,0.01-0.33-0.04c-0.1-0.05-0.16-0.15-0.2-0.26c-0.03-0.1-0.01-0.24,0.04-0.33c0.05-0.08,0.16-0.18,0.26-0.2
			c0.39-0.06,0.78-0.1,1.18-0.09c0.67,0,1.35,0.1,1.99,0.28c0.58,0.17,1.16,0.42,1.66,0.78c0.1,0.07,0.16,0.14,0.2,0.26
			c0.04,0.11,0.01,0.23-0.04,0.33c-0.05,0.09-0.16,0.17-0.26,0.2c-0.1,0.03-0.25,0.02-0.33-0.04c-0.27-0.2-0.56-0.36-0.86-0.49
			c-0.49-0.2-1-0.33-1.52-0.4c-0.56-0.07-1.13-0.07-1.69-0.01C77.38,46.28,77.35,46.29,77.32,46.29z M77.79,49.44
			c0-1.31,0.8-2.37,1.8-2.37s1.8,1.06,1.8,2.37c0,1.31-0.8,2.37-1.8,2.37S77.79,50.76,77.79,49.44z M89.59,57.89
			c-0.14,0.18-0.35,0.28-0.57,0.28c-0.15,0-0.31-0.05-0.44-0.15c-1.16-0.89-2.63-1.35-4.38-1.35c-1.75,0-3.23,0.45-4.38,1.35
			c-0.31,0.24-0.77,0.19-1.01-0.13c-0.24-0.31-0.19-0.77,0.13-1.01c1.41-1.1,3.19-1.65,5.26-1.65c2.08,0,3.85,0.56,5.26,1.65
			C89.77,57.13,89.83,57.58,89.59,57.89z M88.53,51.82c-0.99,0-1.8-1.06-1.8-2.37c0-1.31,0.8-2.37,1.8-2.37s1.8,1.06,1.8,2.37
			C90.33,50.76,89.52,51.82,88.53,51.82z M91.69,45.99c-0.02,0.1-0.11,0.2-0.2,0.26c-0.11,0.06-0.21,0.06-0.33,0.04
			c-0.03,0-0.06-0.01-0.09-0.01c-0.56-0.07-1.13-0.07-1.69,0.01c-0.52,0.07-1.03,0.2-1.52,0.4c-0.3,0.13-0.59,0.29-0.86,0.49
			c-0.19,0.14-0.47,0.03-0.59-0.15c-0.06-0.09-0.07-0.23-0.04-0.33c0.03-0.12,0.1-0.19,0.2-0.26c0.26-0.19,0.53-0.34,0.82-0.47
			c1.25-0.56,2.65-0.71,4-0.5c0.11,0.02,0.2,0.11,0.26,0.2C91.71,45.76,91.72,45.88,91.69,45.99z M89.32,46.29
			c0.02,0,0.04,0,0.06-0.01c0.02,0,0.03-0.01,0.05-0.01L89.32,46.29z M87.82,46.7c0.01,0,0.02-0.01,0.04-0.01
			c0.02-0.01,0.04-0.02,0.07-0.03C87.89,46.68,87.86,46.69,87.82,46.7z M80.56,46.66c0.02,0.01,0.05,0.02,0.07,0.03
			c0.01,0,0.02,0.01,0.04,0.01C80.63,46.69,80.6,46.68,80.56,46.66z M79.06,46.28c0.02,0,0.04,0.01,0.05,0.01
			c0.02,0,0.04,0,0.06,0.01C79.13,46.29,79.1,46.28,79.06,46.28z M79.06,46.28c0.02,0,0.04,0.01,0.05,0.01c0.02,0,0.04,0,0.06,0.01
			C79.13,46.29,79.1,46.28,79.06,46.28z M80.56,46.66c0.02,0.01,0.05,0.02,0.07,0.03c0.01,0,0.02,0.01,0.04,0.01
			C80.63,46.69,80.6,46.68,80.56,46.66z M87.82,46.7c0.01,0,0.02-0.01,0.04-0.01c0.02-0.01,0.04-0.02,0.07-0.03
			C87.89,46.68,87.86,46.69,87.82,46.7z M89.32,46.29c0.02,0,0.04,0,0.06-0.01c0.02,0,0.03-0.01,0.05-0.01L89.32,46.29z
			 M89.32,46.29c0.02,0,0.04,0,0.06-0.01c0.02,0,0.03-0.01,0.05-0.01L89.32,46.29z M87.82,46.7c0.01,0,0.02-0.01,0.04-0.01
			c0.02-0.01,0.04-0.02,0.07-0.03C87.89,46.68,87.86,46.69,87.82,46.7z M80.56,46.66c0.02,0.01,0.05,0.02,0.07,0.03
			c0.01,0,0.02,0.01,0.04,0.01C80.63,46.69,80.6,46.68,80.56,46.66z M79.06,46.28c0.02,0,0.04,0.01,0.05,0.01
			c0.02,0,0.04,0,0.06,0.01C79.13,46.29,79.1,46.28,79.06,46.28z M87.82,46.7c0.01,0,0.02-0.01,0.04-0.01
			c0.02-0.01,0.04-0.02,0.07-0.03C87.89,46.68,87.86,46.69,87.82,46.7z M89.32,46.29c0.02,0,0.04,0,0.06-0.01
			c0.02,0,0.03-0.01,0.05-0.01L89.32,46.29z M89.32,46.29c0.02,0,0.04,0,0.06-0.01c0.02,0,0.03-0.01,0.05-0.01L89.32,46.29z
			 M87.82,46.7c0.01,0,0.02-0.01,0.04-0.01c0.02-0.01,0.04-0.02,0.07-0.03C87.89,46.68,87.86,46.69,87.82,46.7z"/>
		<path class="st15" d="M91.94,151.21c0.01,0,0.02-0.01,0.04-0.01c0.02-0.01,0.04-0.02,0.07-0.03
			C92.01,151.18,91.98,151.19,91.94,151.21z M93.44,150.8c0.02,0,0.04,0,0.06-0.01c0.02,0,0.03-0.01,0.05-0.01L93.44,150.8z
			 M93.44,150.8c0.02,0,0.04,0,0.06-0.01c0.02,0,0.03-0.01,0.05-0.01L93.44,150.8z M91.94,151.21c0.01,0,0.02-0.01,0.04-0.01
			c0.02-0.01,0.04-0.02,0.07-0.03C92.01,151.18,91.98,151.19,91.94,151.21z M83.18,150.78c0.02,0,0.03,0,0.05,0.01
			c0.02,0,0.04,0,0.06,0.01C83.25,150.79,83.22,150.79,83.18,150.78z M84.68,151.16c0.02,0.01,0.04,0.02,0.07,0.03
			c0.01,0,0.02,0.01,0.03,0.01C84.75,151.19,84.72,151.18,84.68,151.16z M91.94,151.21c0.01,0,0.02-0.01,0.04-0.01
			c0.02-0.01,0.04-0.02,0.07-0.03C92.01,151.18,91.98,151.19,91.94,151.21z M93.44,150.8c0.02,0,0.04,0,0.06-0.01
			c0.02,0,0.03-0.01,0.05-0.01L93.44,150.8z M93.44,150.8c0.02,0,0.04,0,0.06-0.01c0.02,0,0.03-0.01,0.05-0.01L93.44,150.8z
			 M91.98,151.19c0.02-0.01,0.04-0.02,0.07-0.03c-0.03,0.01-0.07,0.03-0.1,0.04C91.96,151.2,91.97,151.2,91.98,151.19z
			 M84.68,151.16c0.02,0.01,0.04,0.02,0.07,0.03c0.01,0,0.02,0.01,0.03,0.01C84.75,151.19,84.72,151.18,84.68,151.16z M83.23,150.79
			c0.02,0,0.04,0,0.06,0.01c-0.04,0-0.08-0.01-0.11-0.01C83.19,150.78,83.21,150.79,83.23,150.79z M98.04,146.34
			c-2.6-2.6-6.05-4.03-9.73-4.03c-3.68,0-7.13,1.43-9.73,4.03c-2.6,2.6-4.03,6.06-4.03,9.73c0,3.68,1.43,7.13,4.03,9.73
			c2.6,2.6,6.06,4.03,9.73,4.03c3.68,0,7.13-1.43,9.73-4.03c2.6-2.6,4.03-6.05,4.03-9.73C102.08,152.4,100.64,148.94,98.04,146.34z
			 M81.44,150.8c-0.12,0.02-0.22,0.01-0.33-0.04c-0.1-0.05-0.16-0.15-0.2-0.26c-0.03-0.1-0.01-0.24,0.04-0.33
			c0.05-0.08,0.16-0.18,0.26-0.2c0.39-0.06,0.78-0.1,1.18-0.1c0.67,0,1.35,0.1,1.99,0.28c0.58,0.17,1.16,0.42,1.66,0.78
			c0.09,0.07,0.16,0.14,0.2,0.26c0.04,0.11,0.01,0.23-0.04,0.33c-0.05,0.09-0.16,0.17-0.26,0.2c-0.1,0.03-0.25,0.02-0.33-0.04
			c-0.27-0.2-0.56-0.36-0.86-0.49c-0.49-0.2-1-0.33-1.52-0.4c-0.56-0.07-1.13-0.07-1.69-0.01C81.5,150.79,81.47,150.79,81.44,150.8z
			 M81.91,153.95c0-1.31,0.8-2.37,1.8-2.37s1.8,1.06,1.8,2.37s-0.8,2.37-1.8,2.37S81.91,155.26,81.91,153.95z M93.71,162.4
			c-0.14,0.18-0.35,0.28-0.57,0.28c-0.15,0-0.31-0.05-0.44-0.15c-1.16-0.89-2.63-1.35-4.38-1.35c-1.75,0-3.23,0.45-4.38,1.35
			c-0.31,0.24-0.77,0.19-1.01-0.13c-0.24-0.31-0.19-0.77,0.13-1.01c1.41-1.1,3.19-1.65,5.26-1.65c2.08,0,3.85,0.56,5.26,1.65
			C93.89,161.63,93.95,162.08,93.71,162.4z M92.65,156.32c-0.99,0-1.8-1.06-1.8-2.37s0.8-2.37,1.8-2.37s1.8,1.06,1.8,2.37
			S93.64,156.32,92.65,156.32z M95.81,150.5c-0.02,0.1-0.11,0.2-0.2,0.26c-0.11,0.06-0.21,0.06-0.33,0.04
			c-0.03-0.01-0.06-0.01-0.09-0.01c-0.56-0.07-1.13-0.07-1.69,0.01c-0.52,0.07-1.03,0.2-1.52,0.4c-0.3,0.13-0.59,0.29-0.86,0.49
			c-0.19,0.14-0.47,0.03-0.59-0.15c-0.06-0.09-0.07-0.23-0.04-0.33c0.03-0.12,0.1-0.19,0.2-0.26c0.26-0.19,0.53-0.34,0.82-0.47
			c1.25-0.56,2.65-0.71,4-0.5c0.11,0.02,0.2,0.11,0.26,0.2C95.83,150.26,95.84,150.39,95.81,150.5z M93.44,150.8
			c0.02,0,0.04,0,0.06-0.01c0.02,0,0.03-0.01,0.05-0.01L93.44,150.8z M91.94,151.21c0.01,0,0.02-0.01,0.04-0.01
			c0.02-0.01,0.04-0.02,0.07-0.03C92.01,151.18,91.98,151.19,91.94,151.21z M84.68,151.16c0.02,0.01,0.04,0.02,0.07,0.03
			c0.01,0,0.02,0.01,0.03,0.01C84.75,151.19,84.72,151.18,84.68,151.16z M83.18,150.78c0.02,0,0.03,0,0.05,0.01
			c0.02,0,0.04,0,0.06,0.01C83.25,150.79,83.22,150.79,83.18,150.78z M83.18,150.78c0.02,0,0.03,0,0.05,0.01
			c0.02,0,0.04,0,0.06,0.01C83.25,150.79,83.22,150.79,83.18,150.78z M84.68,151.16c0.02,0.01,0.04,0.02,0.07,0.03
			c0.01,0,0.02,0.01,0.03,0.01C84.75,151.19,84.72,151.18,84.68,151.16z M91.94,151.21c0.01,0,0.02-0.01,0.04-0.01
			c0.02-0.01,0.04-0.02,0.07-0.03C92.01,151.18,91.98,151.19,91.94,151.21z M93.44,150.8c0.02,0,0.04,0,0.06-0.01
			c0.02,0,0.03-0.01,0.05-0.01L93.44,150.8z M93.44,150.8c0.02,0,0.04,0,0.06-0.01c0.02,0,0.03-0.01,0.05-0.01L93.44,150.8z
			 M91.94,151.21c0.01,0,0.02-0.01,0.04-0.01c0.02-0.01,0.04-0.02,0.07-0.03C92.01,151.18,91.98,151.19,91.94,151.21z M84.68,151.16
			c0.02,0.01,0.04,0.02,0.07,0.03c0.01,0,0.02,0.01,0.03,0.01C84.75,151.19,84.72,151.18,84.68,151.16z M83.18,150.78
			c0.02,0,0.03,0,0.05,0.01c0.02,0,0.04,0,0.06,0.01C83.25,150.79,83.22,150.79,83.18,150.78z M91.94,151.21
			c0.01,0,0.02-0.01,0.04-0.01c0.02-0.01,0.04-0.02,0.07-0.03C92.01,151.18,91.98,151.19,91.94,151.21z M93.44,150.8
			c0.02,0,0.04,0,0.06-0.01c0.02,0,0.03-0.01,0.05-0.01L93.44,150.8z M93.44,150.8c0.02,0,0.04,0,0.06-0.01
			c0.02,0,0.03-0.01,0.05-0.01L93.44,150.8z M91.94,151.21c0.01,0,0.02-0.01,0.04-0.01c0.02-0.01,0.04-0.02,0.07-0.03
			C92.01,151.18,91.98,151.19,91.94,151.21z"/>
		<path class="st2" d="M138.68,27.83c-2.6-2.6-6.06-4.03-9.73-4.03c-3.68,0-7.13,1.43-9.73,4.03c-2.6,2.6-4.03,6.06-4.03,9.73
			c0,3.68,1.43,7.13,4.03,9.73c2.6,2.6,6.06,4.03,9.73,4.03c3.68,0,7.13-1.43,9.73-4.03c2.6-2.6,4.03-6.05,4.03-9.73
			C142.71,33.89,141.28,30.43,138.68,27.83z M122.05,31.87c-0.01-0.23,0.2-0.43,0.43-0.43h3.71c0.24,0,0.42,0.2,0.43,0.43
			c0.01,0.23-0.2,0.43-0.43,0.43h-3.71C122.24,32.3,122.07,32.1,122.05,31.87z M124.34,37.81c-0.99,0-1.8-1.06-1.8-2.37
			c0-1.31,0.8-2.37,1.8-2.37c0.99,0,1.8,1.06,1.8,2.37C126.14,36.75,125.33,37.81,124.34,37.81z M131.34,43.42h-4.79
			c-0.4,0-0.72-0.32-0.72-0.72c0-0.4,0.32-0.72,0.72-0.72h4.79c0.4,0,0.72,0.32,0.72,0.72C132.06,43.09,131.74,43.42,131.34,43.42z
			 M133.29,37.81c-0.99,0-1.8-1.06-1.8-2.37c0-1.31,0.8-2.37,1.8-2.37c0.99,0,1.8,1.06,1.8,2.37
			C135.08,36.75,134.28,37.81,133.29,37.81z M135.14,32.3h-3.71c-0.24,0-0.42-0.2-0.43-0.43c-0.01-0.23,0.2-0.43,0.43-0.43h3.71
			c0.24,0,0.42,0.2,0.43,0.43C135.58,32.1,135.37,32.3,135.14,32.3z"/>
		<path class="st16" d="M137.27,146.34c-2.6-2.6-6.06-4.03-9.73-4.03s-7.13,1.43-9.73,4.03c-2.6,2.6-4.03,6.06-4.03,9.73
			c0,3.68,1.43,7.13,4.03,9.73c2.6,2.6,6.06,4.03,9.73,4.03s7.13-1.43,9.73-4.03c2.6-2.6,4.03-6.05,4.03-9.73
			C141.3,152.4,139.87,148.94,137.27,146.34z M120.64,150.38c-0.01-0.23,0.2-0.43,0.43-0.43h3.71c0.24,0,0.42,0.2,0.43,0.43
			c0.01,0.23-0.2,0.43-0.43,0.43h-3.71C120.83,150.81,120.65,150.62,120.64,150.38z M122.93,156.32c-0.99,0-1.8-1.06-1.8-2.37
			s0.8-2.37,1.8-2.37c0.99,0,1.8,1.06,1.8,2.37S123.92,156.32,122.93,156.32z M129.93,161.93h-4.79c-0.4,0-0.72-0.32-0.72-0.72
			c0-0.4,0.32-0.72,0.72-0.72h4.79c0.4,0,0.72,0.32,0.72,0.72C130.65,161.6,130.33,161.93,129.93,161.93z M131.87,156.32
			c-0.99,0-1.8-1.06-1.8-2.37s0.8-2.37,1.8-2.37c0.99,0,1.8,1.06,1.8,2.37S132.87,156.32,131.87,156.32z M133.73,150.81h-3.71
			c-0.24,0-0.42-0.2-0.43-0.43c-0.01-0.23,0.21-0.43,0.43-0.43h3.71c0.24,0,0.42,0.2,0.43,0.43
			C134.17,150.61,133.96,150.81,133.73,150.81z"/>
		<path class="st2" d="M167.76,46.7c0.02-0.01,0.03-0.01,0.05-0.02c0.02-0.01,0.04-0.02,0.06-0.02
			C167.83,46.68,167.79,46.69,167.76,46.7z M169.25,46.29c0.02,0,0.04-0.01,0.07-0.01c0.02,0,0.03,0,0.05-0.01
			C169.33,46.28,169.29,46.29,169.25,46.29z M170.96,46.27c0.02,0,0.03,0,0.05,0.01c0.02,0,0.04,0.01,0.07,0.01
			C171.04,46.28,171,46.28,170.96,46.27z M170.96,46.27c0.02,0,0.03,0,0.05,0.01c0.02,0,0.04,0.01,0.07,0.01
			C171.04,46.28,171,46.28,170.96,46.27z M169.25,46.29c0.02,0,0.04-0.01,0.07-0.01c0.02,0,0.03,0,0.05-0.01
			C169.33,46.28,169.29,46.29,169.25,46.29z M167.76,46.7c0.02-0.01,0.03-0.01,0.05-0.02c0.02-0.01,0.04-0.02,0.06-0.02
			C167.83,46.68,167.79,46.69,167.76,46.7z M167.76,46.7c0.02-0.01,0.03-0.01,0.05-0.02c0.02-0.01,0.04-0.02,0.06-0.02
			C167.83,46.68,167.79,46.69,167.76,46.7z M169.25,46.29c0.02,0,0.04-0.01,0.07-0.01c0.02,0,0.03,0,0.05-0.01
			C169.33,46.28,169.29,46.29,169.25,46.29z M170.96,46.27c0.02,0,0.03,0,0.05,0.01c0.02,0,0.04,0.01,0.07,0.01
			C171.04,46.28,171,46.28,170.96,46.27z M170.96,46.27c0.02,0,0.03,0,0.05,0.01c0.02,0,0.04,0.01,0.07,0.01
			C171.04,46.28,171,46.28,170.96,46.27z M169.25,46.29c0.02,0,0.04-0.01,0.07-0.01c0.02,0,0.03,0,0.05-0.01
			C169.33,46.28,169.29,46.29,169.25,46.29z M167.76,46.7c0.02-0.01,0.03-0.01,0.05-0.02c0.02-0.01,0.04-0.02,0.06-0.02
			C167.83,46.68,167.79,46.69,167.76,46.7z M167.76,46.7c0.02-0.01,0.03-0.01,0.05-0.02c0.02-0.01,0.04-0.02,0.06-0.02
			C167.83,46.68,167.79,46.69,167.76,46.7z M169.25,46.29c0.02,0,0.04-0.01,0.07-0.01c0.02,0,0.03,0,0.05-0.01
			C169.33,46.28,169.29,46.29,169.25,46.29z M170.96,46.27c0.02,0,0.03,0,0.05,0.01c0.02,0,0.04,0.01,0.07,0.01
			C171.04,46.28,171,46.28,170.96,46.27z M176.43,46.29c0.02,0,0.05-0.01,0.07-0.01c0.01,0,0.03,0,0.04-0.01
			C176.51,46.28,176.47,46.28,176.43,46.29z M178.14,46.28c0.02,0,0.04,0.01,0.05,0.01c0.02,0,0.04,0,0.06,0.01
			C178.22,46.29,178.18,46.28,178.14,46.28z M179.65,46.66c0.02,0.01,0.04,0.02,0.06,0.02c0.02,0,0.03,0.01,0.05,0.02
			C179.71,46.69,179.68,46.68,179.65,46.66z M179.65,46.66c0.02,0.01,0.04,0.02,0.06,0.02c0.02,0,0.03,0.01,0.05,0.02
			C179.71,46.69,179.68,46.68,179.65,46.66z M178.14,46.28c0.02,0,0.04,0.01,0.05,0.01c0.02,0,0.04,0,0.06,0.01
			C178.22,46.29,178.18,46.28,178.14,46.28z M176.43,46.29c0.02,0,0.05-0.01,0.07-0.01c0.01,0,0.03,0,0.04-0.01
			C176.51,46.28,176.47,46.28,176.43,46.29z M170.96,46.27c0.02,0,0.03,0,0.05,0.01c0.02,0,0.04,0.01,0.07,0.01
			C171.04,46.28,171,46.28,170.96,46.27z M169.25,46.29c0.02,0,0.04-0.01,0.07-0.01c0.02,0,0.03,0,0.05-0.01
			C169.33,46.28,169.29,46.29,169.25,46.29z M167.76,46.7c0.02-0.01,0.03-0.01,0.05-0.02c0.02-0.01,0.04-0.02,0.06-0.02
			C167.83,46.68,167.79,46.69,167.76,46.7z M167.76,46.7c0.02-0.01,0.03-0.01,0.05-0.02c0.02-0.01,0.04-0.02,0.06-0.02
			C167.83,46.68,167.79,46.69,167.76,46.7z M169.25,46.29c0.02,0,0.04-0.01,0.07-0.01c0.02,0,0.03,0,0.05-0.01
			C169.33,46.28,169.29,46.29,169.25,46.29z M170.96,46.27c0.02,0,0.03,0,0.05,0.01c0.02,0,0.04,0.01,0.07,0.01
			C171.04,46.28,171,46.28,170.96,46.27z M176.43,46.29c0.02,0,0.05-0.01,0.07-0.01c0.01,0,0.03,0,0.04-0.01
			C176.51,46.28,176.47,46.28,176.43,46.29z M178.14,46.28c0.02,0,0.04,0.01,0.05,0.01c0.02,0,0.04,0,0.06,0.01
			C178.22,46.29,178.18,46.28,178.14,46.28z M179.65,46.66c0.02,0.01,0.04,0.02,0.06,0.02c0.02,0,0.03,0.01,0.05,0.02
			C179.71,46.69,179.68,46.68,179.65,46.66z M179.65,46.66c0.02,0.01,0.04,0.02,0.06,0.02c0.02,0,0.03,0.01,0.05,0.02
			C179.71,46.69,179.68,46.68,179.65,46.66z M178.14,46.28c0.02,0,0.04,0.01,0.05,0.01c0.02,0,0.04,0,0.06,0.01
			C178.22,46.29,178.18,46.28,178.14,46.28z M176.43,46.29c0.02,0,0.05-0.01,0.07-0.01c0.01,0,0.03,0,0.04-0.01
			C176.51,46.28,176.47,46.28,176.43,46.29z M170.96,46.27c0.02,0,0.03,0,0.05,0.01c0.02,0,0.04,0.01,0.07,0.01
			C171.04,46.28,171,46.28,170.96,46.27z M169.25,46.29c0.02,0,0.04-0.01,0.07-0.01c0.02,0,0.03,0,0.05-0.01
			C169.33,46.28,169.29,46.29,169.25,46.29z M167.76,46.7c0.02-0.01,0.03-0.01,0.05-0.02c0.02-0.01,0.04-0.02,0.06-0.02
			C167.83,46.68,167.79,46.69,167.76,46.7z M167.76,46.7c0.02-0.01,0.03-0.01,0.05-0.02c0.02-0.01,0.04-0.02,0.06-0.02
			C167.83,46.68,167.79,46.69,167.76,46.7z M169.25,46.29c0.02,0,0.04-0.01,0.07-0.01c0.02,0,0.03,0,0.05-0.01
			C169.33,46.28,169.29,46.29,169.25,46.29z M170.96,46.27c0.02,0,0.03,0,0.05,0.01c0.02,0,0.04,0.01,0.07,0.01
			C171.04,46.28,171,46.28,170.96,46.27z M176.43,46.29c0.02,0,0.05-0.01,0.07-0.01c0.01,0,0.03,0,0.04-0.01
			C176.51,46.28,176.47,46.28,176.43,46.29z M178.14,46.28c0.02,0,0.04,0.01,0.05,0.01c0.02,0,0.04,0,0.06,0.01
			C178.22,46.29,178.18,46.28,178.14,46.28z M179.65,46.66c0.02,0.01,0.04,0.02,0.06,0.02c0.02,0,0.03,0.01,0.05,0.02
			C179.71,46.69,179.68,46.68,179.65,46.66z M179.65,46.66c0.02,0.01,0.04,0.02,0.06,0.02c0.02,0,0.03,0.01,0.05,0.02
			C179.71,46.69,179.68,46.68,179.65,46.66z M178.19,46.29c0.02,0,0.04,0,0.06,0.01c-0.04,0-0.08-0.01-0.11-0.01
			C178.16,46.28,178.18,46.28,178.19,46.29z M176.5,46.28c0.01,0,0.03,0,0.04-0.01c-0.04,0.01-0.08,0.01-0.11,0.01
			C176.46,46.29,176.48,46.28,176.5,46.28z M170.96,46.27c0.02,0,0.03,0,0.05,0.01c0.02,0,0.04,0.01,0.07,0.01
			C171.04,46.28,171,46.28,170.96,46.27z M169.32,46.28c0.02,0,0.03,0,0.05-0.01c-0.04,0.01-0.08,0.01-0.11,0.01
			C169.27,46.29,169.29,46.29,169.32,46.28z M167.81,46.69c0.02-0.01,0.04-0.02,0.06-0.02c-0.03,0.01-0.07,0.03-0.1,0.04
			C167.77,46.7,167.79,46.69,167.81,46.69z M183.43,41.84c-2.6-2.6-6.05-4.03-9.73-4.03c-3.68,0-7.13,1.43-9.73,4.03
			c-2.6,2.6-4.03,6.06-4.03,9.73c0,3.68,1.43,7.13,4.03,9.73c2.6,2.6,6.05,4.03,9.73,4.03c3.68,0,7.13-1.43,9.73-4.03
			c2.6-2.6,4.03-6.05,4.03-9.73C187.47,47.9,186.03,44.44,183.43,41.84z M166.35,47.02c-0.06-0.09-0.07-0.23-0.04-0.33
			c0.03-0.12,0.1-0.19,0.2-0.26c0.26-0.19,0.53-0.34,0.83-0.47c1.25-0.56,2.65-0.71,4-0.5c0.11,0.02,0.2,0.11,0.26,0.2
			c0.06,0.1,0.07,0.22,0.04,0.33c-0.02,0.1-0.11,0.2-0.2,0.26c-0.11,0.06-0.21,0.06-0.33,0.04c-0.03,0-0.06-0.01-0.09-0.01
			c-0.56-0.07-1.13-0.07-1.69,0c-0.52,0.07-1.03,0.2-1.51,0.4c-0.31,0.13-0.6,0.29-0.87,0.49C166.74,47.32,166.46,47.2,166.35,47.02
			z M167.3,49.44c0-1.31,0.8-2.37,1.8-2.37s1.8,1.06,1.8,2.37c0,1.31-0.8,2.37-1.8,2.37S167.3,50.76,167.3,49.44z M178.97,56.52
			c-1.41,1.1-3.19,1.65-5.26,1.65c-2.08,0-3.85-0.55-5.26-1.65c-0.31-0.24-0.37-0.7-0.13-1.01c0.24-0.31,0.7-0.37,1.01-0.13
			c1.16,0.9,2.63,1.35,4.38,1.35c1.75,0,3.23-0.45,4.38-1.35c0.13-0.1,0.29-0.15,0.44-0.15c0.21,0,0.43,0.1,0.57,0.28
			C179.34,55.83,179.28,56.28,178.97,56.52z M178.04,51.82c-0.99,0-1.8-1.06-1.8-2.37c0-1.31,0.8-2.37,1.8-2.37
			c0.99,0,1.8,1.06,1.8,2.37C179.84,50.76,179.03,51.82,178.04,51.82z M181.16,47.02c-0.05,0.09-0.16,0.17-0.26,0.2
			c-0.1,0.03-0.25,0.02-0.33-0.04c-0.27-0.2-0.56-0.36-0.87-0.49c-0.48-0.2-0.99-0.33-1.51-0.4c-0.56-0.07-1.13-0.07-1.69-0.01
			c-0.03,0-0.06,0.01-0.1,0.01c-0.12,0.02-0.22,0.01-0.33-0.04c-0.1-0.05-0.16-0.15-0.2-0.26c-0.03-0.1-0.01-0.24,0.04-0.33
			c0.05-0.08,0.16-0.18,0.26-0.2c0.39-0.06,0.78-0.1,1.18-0.09c0.67,0,1.35,0.1,1.99,0.28c0.59,0.17,1.16,0.42,1.66,0.78
			c0.1,0.07,0.16,0.14,0.2,0.26C181.24,46.8,181.21,46.92,181.16,47.02z M179.65,46.66c0.02,0.01,0.04,0.02,0.06,0.02
			c0.02,0,0.03,0.01,0.05,0.02C179.71,46.69,179.68,46.68,179.65,46.66z M178.14,46.28c0.02,0,0.04,0.01,0.05,0.01
			c0.02,0,0.04,0,0.06,0.01C178.22,46.29,178.18,46.28,178.14,46.28z M176.43,46.29c0.02,0,0.05-0.01,0.07-0.01
			c0.01,0,0.03,0,0.04-0.01C176.51,46.28,176.47,46.28,176.43,46.29z M170.96,46.27c0.02,0,0.03,0,0.05,0.01
			c0.02,0,0.04,0.01,0.07,0.01C171.04,46.28,171,46.28,170.96,46.27z M169.25,46.29c0.02,0,0.04-0.01,0.07-0.01
			c0.02,0,0.03,0,0.05-0.01C169.33,46.28,169.29,46.29,169.25,46.29z M167.76,46.7c0.02-0.01,0.03-0.01,0.05-0.02
			c0.02-0.01,0.04-0.02,0.06-0.02C167.83,46.68,167.79,46.69,167.76,46.7z M167.76,46.7c0.02-0.01,0.03-0.01,0.05-0.02
			c0.02-0.01,0.04-0.02,0.06-0.02C167.83,46.68,167.79,46.69,167.76,46.7z M169.25,46.29c0.02,0,0.04-0.01,0.07-0.01
			c0.02,0,0.03,0,0.05-0.01C169.33,46.28,169.29,46.29,169.25,46.29z M170.96,46.27c0.02,0,0.03,0,0.05,0.01
			c0.02,0,0.04,0.01,0.07,0.01C171.04,46.28,171,46.28,170.96,46.27z M176.43,46.29c0.02,0,0.05-0.01,0.07-0.01
			c0.01,0,0.03,0,0.04-0.01C176.51,46.28,176.47,46.28,176.43,46.29z M178.14,46.28c0.02,0,0.04,0.01,0.05,0.01
			c0.02,0,0.04,0,0.06,0.01C178.22,46.29,178.18,46.28,178.14,46.28z M179.65,46.66c0.02,0.01,0.04,0.02,0.06,0.02
			c0.02,0,0.03,0.01,0.05,0.02C179.71,46.69,179.68,46.68,179.65,46.66z M179.65,46.66c0.02,0.01,0.04,0.02,0.06,0.02
			c0.02,0,0.03,0.01,0.05,0.02C179.71,46.69,179.68,46.68,179.65,46.66z M178.14,46.28c0.02,0,0.04,0.01,0.05,0.01
			c0.02,0,0.04,0,0.06,0.01C178.22,46.29,178.18,46.28,178.14,46.28z M176.43,46.29c0.02,0,0.05-0.01,0.07-0.01
			c0.01,0,0.03,0,0.04-0.01C176.51,46.28,176.47,46.28,176.43,46.29z M170.96,46.27c0.02,0,0.03,0,0.05,0.01
			c0.02,0,0.04,0.01,0.07,0.01C171.04,46.28,171,46.28,170.96,46.27z M169.25,46.29c0.02,0,0.04-0.01,0.07-0.01
			c0.02,0,0.03,0,0.05-0.01C169.33,46.28,169.29,46.29,169.25,46.29z M167.76,46.7c0.02-0.01,0.03-0.01,0.05-0.02
			c0.02-0.01,0.04-0.02,0.06-0.02C167.83,46.68,167.79,46.69,167.76,46.7z M167.76,46.7c0.02-0.01,0.03-0.01,0.05-0.02
			c0.02-0.01,0.04-0.02,0.06-0.02C167.83,46.68,167.79,46.69,167.76,46.7z M169.25,46.29c0.02,0,0.04-0.01,0.07-0.01
			c0.02,0,0.03,0,0.05-0.01C169.33,46.28,169.29,46.29,169.25,46.29z M170.96,46.27c0.02,0,0.03,0,0.05,0.01
			c0.02,0,0.04,0.01,0.07,0.01C171.04,46.28,171,46.28,170.96,46.27z M176.43,46.29c0.02,0,0.05-0.01,0.07-0.01
			c0.01,0,0.03,0,0.04-0.01C176.51,46.28,176.47,46.28,176.43,46.29z M178.14,46.28c0.02,0,0.04,0.01,0.05,0.01
			c0.02,0,0.04,0,0.06,0.01C178.22,46.29,178.18,46.28,178.14,46.28z M179.65,46.66c0.02,0.01,0.04,0.02,0.06,0.02
			c0.02,0,0.03,0.01,0.05,0.02C179.71,46.69,179.68,46.68,179.65,46.66z M179.65,46.66c0.02,0.01,0.04,0.02,0.06,0.02
			c0.02,0,0.03,0.01,0.05,0.02C179.71,46.69,179.68,46.68,179.65,46.66z M178.14,46.28c0.02,0,0.04,0.01,0.05,0.01
			c0.02,0,0.04,0,0.06,0.01C178.22,46.29,178.18,46.28,178.14,46.28z M176.43,46.29c0.02,0,0.05-0.01,0.07-0.01
			c0.01,0,0.03,0,0.04-0.01C176.51,46.28,176.47,46.28,176.43,46.29z M170.96,46.27c0.02,0,0.03,0,0.05,0.01
			c0.02,0,0.04,0.01,0.07,0.01C171.04,46.28,171,46.28,170.96,46.27z M169.25,46.29c0.02,0,0.04-0.01,0.07-0.01
			c0.02,0,0.03,0,0.05-0.01C169.33,46.28,169.29,46.29,169.25,46.29z M167.76,46.7c0.02-0.01,0.03-0.01,0.05-0.02
			c0.02-0.01,0.04-0.02,0.06-0.02C167.83,46.68,167.79,46.69,167.76,46.7z M167.76,46.7c0.02-0.01,0.03-0.01,0.05-0.02
			c0.02-0.01,0.04-0.02,0.06-0.02C167.83,46.68,167.79,46.69,167.76,46.7z M169.25,46.29c0.02,0,0.04-0.01,0.07-0.01
			c0.02,0,0.03,0,0.05-0.01C169.33,46.28,169.29,46.29,169.25,46.29z M170.96,46.27c0.02,0,0.03,0,0.05,0.01
			c0.02,0,0.04,0.01,0.07,0.01C171.04,46.28,171,46.28,170.96,46.27z M176.43,46.29c0.02,0,0.05-0.01,0.07-0.01
			c0.01,0,0.03,0,0.04-0.01C176.51,46.28,176.47,46.28,176.43,46.29z M178.14,46.28c0.02,0,0.04,0.01,0.05,0.01
			c0.02,0,0.04,0,0.06,0.01C178.22,46.29,178.18,46.28,178.14,46.28z M179.65,46.66c0.02,0.01,0.04,0.02,0.06,0.02
			c0.02,0,0.03,0.01,0.05,0.02C179.71,46.69,179.68,46.68,179.65,46.66z M179.65,46.66c0.02,0.01,0.04,0.02,0.06,0.02
			c0.02,0,0.03,0.01,0.05,0.02C179.71,46.69,179.68,46.68,179.65,46.66z M178.14,46.28c0.02,0,0.04,0.01,0.05,0.01
			c0.02,0,0.04,0,0.06,0.01C178.22,46.29,178.18,46.28,178.14,46.28z M176.43,46.29c0.02,0,0.05-0.01,0.07-0.01
			c0.01,0,0.03,0,0.04-0.01C176.51,46.28,176.47,46.28,176.43,46.29z M170.96,46.27c0.02,0,0.03,0,0.05,0.01
			c0.02,0,0.04,0.01,0.07,0.01C171.04,46.28,171,46.28,170.96,46.27z M169.25,46.29c0.02,0,0.04-0.01,0.07-0.01
			c0.02,0,0.03,0,0.05-0.01C169.33,46.28,169.29,46.29,169.25,46.29z M167.76,46.7c0.02-0.01,0.03-0.01,0.05-0.02
			c0.02-0.01,0.04-0.02,0.06-0.02C167.83,46.68,167.79,46.69,167.76,46.7z M167.76,46.7c0.02-0.01,0.03-0.01,0.05-0.02
			c0.02-0.01,0.04-0.02,0.06-0.02C167.83,46.68,167.79,46.69,167.76,46.7z M169.25,46.29c0.02,0,0.04-0.01,0.07-0.01
			c0.02,0,0.03,0,0.05-0.01C169.33,46.28,169.29,46.29,169.25,46.29z M170.96,46.27c0.02,0,0.03,0,0.05,0.01
			c0.02,0,0.04,0.01,0.07,0.01C171.04,46.28,171,46.28,170.96,46.27z M170.96,46.27c0.02,0,0.03,0,0.05,0.01
			c0.02,0,0.04,0.01,0.07,0.01C171.04,46.28,171,46.28,170.96,46.27z M169.25,46.29c0.02,0,0.04-0.01,0.07-0.01
			c0.02,0,0.03,0,0.05-0.01C169.33,46.28,169.29,46.29,169.25,46.29z M167.76,46.7c0.02-0.01,0.03-0.01,0.05-0.02
			c0.02-0.01,0.04-0.02,0.06-0.02C167.83,46.68,167.79,46.69,167.76,46.7z"/>
		<path class="st17" d="M160.58,151.21c0.02-0.01,0.03-0.01,0.05-0.02c0.02-0.01,0.04-0.02,0.06-0.02
			C160.65,151.18,160.61,151.19,160.58,151.21z M162.07,150.8c0.02,0,0.04-0.01,0.07-0.01c0.02,0,0.03,0,0.05-0.01
			C162.15,150.79,162.11,150.79,162.07,150.8z M163.78,150.78c0.02,0,0.03,0,0.05,0.01c0.02,0,0.04,0.01,0.07,0.01
			C163.86,150.79,163.82,150.78,163.78,150.78z M163.78,150.78c0.02,0,0.03,0,0.05,0.01c0.02,0,0.04,0.01,0.07,0.01
			C163.86,150.79,163.82,150.78,163.78,150.78z M162.07,150.8c0.02,0,0.04-0.01,0.07-0.01c0.02,0,0.03,0,0.05-0.01
			C162.15,150.79,162.11,150.79,162.07,150.8z M160.58,151.21c0.02-0.01,0.03-0.01,0.05-0.02c0.02-0.01,0.04-0.02,0.06-0.02
			C160.65,151.18,160.61,151.19,160.58,151.21z M160.58,151.21c0.02-0.01,0.03-0.01,0.05-0.02c0.02-0.01,0.04-0.02,0.06-0.02
			C160.65,151.18,160.61,151.19,160.58,151.21z M162.07,150.8c0.02,0,0.04-0.01,0.07-0.01c0.02,0,0.03,0,0.05-0.01
			C162.15,150.79,162.11,150.79,162.07,150.8z M163.78,150.78c0.02,0,0.03,0,0.05,0.01c0.02,0,0.04,0.01,0.07,0.01
			C163.86,150.79,163.82,150.78,163.78,150.78z M163.78,150.78c0.02,0,0.03,0,0.05,0.01c0.02,0,0.04,0.01,0.07,0.01
			C163.86,150.79,163.82,150.78,163.78,150.78z M162.07,150.8c0.02,0,0.04-0.01,0.07-0.01c0.02,0,0.03,0,0.05-0.01
			C162.15,150.79,162.11,150.79,162.07,150.8z M160.58,151.21c0.02-0.01,0.03-0.01,0.05-0.02c0.02-0.01,0.04-0.02,0.06-0.02
			C160.65,151.18,160.61,151.19,160.58,151.21z M160.58,151.21c0.02-0.01,0.03-0.01,0.05-0.02c0.02-0.01,0.04-0.02,0.06-0.02
			C160.65,151.18,160.61,151.19,160.58,151.21z M162.07,150.8c0.02,0,0.04-0.01,0.07-0.01c0.02,0,0.03,0,0.05-0.01
			C162.15,150.79,162.11,150.79,162.07,150.8z M163.78,150.78c0.02,0,0.03,0,0.05,0.01c0.02,0,0.04,0.01,0.07,0.01
			C163.86,150.79,163.82,150.78,163.78,150.78z M169.25,150.79c0.02,0,0.05-0.01,0.07-0.01c0.01,0,0.03-0.01,0.04-0.01
			C169.33,150.78,169.29,150.79,169.25,150.79z M170.96,150.78c0.02,0,0.04,0,0.05,0.01c0.02,0,0.04,0,0.06,0.01
			C171.04,150.79,171,150.79,170.96,150.78z M172.47,151.16c0.02,0.01,0.04,0.02,0.06,0.02c0.02,0,0.03,0.01,0.05,0.02
			C172.53,151.19,172.5,151.18,172.47,151.16z M172.47,151.16c0.02,0.01,0.04,0.02,0.06,0.02c0.02,0,0.03,0.01,0.05,0.02
			C172.53,151.19,172.5,151.18,172.47,151.16z M170.96,150.78c0.02,0,0.04,0,0.05,0.01c0.02,0,0.04,0,0.06,0.01
			C171.04,150.79,171,150.79,170.96,150.78z M169.25,150.79c0.02,0,0.05-0.01,0.07-0.01c0.01,0,0.03-0.01,0.04-0.01
			C169.33,150.78,169.29,150.79,169.25,150.79z M163.78,150.78c0.02,0,0.03,0,0.05,0.01c0.02,0,0.04,0.01,0.07,0.01
			C163.86,150.79,163.82,150.78,163.78,150.78z M162.07,150.8c0.02,0,0.04-0.01,0.07-0.01c0.02,0,0.03,0,0.05-0.01
			C162.15,150.79,162.11,150.79,162.07,150.8z M160.58,151.21c0.02-0.01,0.03-0.01,0.05-0.02c0.02-0.01,0.04-0.02,0.06-0.02
			C160.65,151.18,160.61,151.19,160.58,151.21z M160.58,151.21c0.02-0.01,0.03-0.01,0.05-0.02c0.02-0.01,0.04-0.02,0.06-0.02
			C160.65,151.18,160.61,151.19,160.58,151.21z M162.07,150.8c0.02,0,0.04-0.01,0.07-0.01c0.02,0,0.03,0,0.05-0.01
			C162.15,150.79,162.11,150.79,162.07,150.8z M163.78,150.78c0.02,0,0.03,0,0.05,0.01c0.02,0,0.04,0.01,0.07,0.01
			C163.86,150.79,163.82,150.78,163.78,150.78z M169.25,150.79c0.02,0,0.05-0.01,0.07-0.01c0.01,0,0.03-0.01,0.04-0.01
			C169.33,150.78,169.29,150.79,169.25,150.79z M170.96,150.78c0.02,0,0.04,0,0.05,0.01c0.02,0,0.04,0,0.06,0.01
			C171.04,150.79,171,150.79,170.96,150.78z M172.47,151.16c0.02,0.01,0.04,0.02,0.06,0.02c0.02,0,0.03,0.01,0.05,0.02
			C172.53,151.19,172.5,151.18,172.47,151.16z M172.47,151.16c0.02,0.01,0.04,0.02,0.06,0.02c0.02,0,0.03,0.01,0.05,0.02
			C172.53,151.19,172.5,151.18,172.47,151.16z M170.96,150.78c0.02,0,0.04,0,0.05,0.01c0.02,0,0.04,0,0.06,0.01
			C171.04,150.79,171,150.79,170.96,150.78z M169.25,150.79c0.02,0,0.05-0.01,0.07-0.01c0.01,0,0.03-0.01,0.04-0.01
			C169.33,150.78,169.29,150.79,169.25,150.79z M163.78,150.78c0.02,0,0.03,0,0.05,0.01c0.02,0,0.04,0.01,0.07,0.01
			C163.86,150.79,163.82,150.78,163.78,150.78z M162.07,150.8c0.02,0,0.04-0.01,0.07-0.01c0.02,0,0.03,0,0.05-0.01
			C162.15,150.79,162.11,150.79,162.07,150.8z M160.58,151.21c0.02-0.01,0.03-0.01,0.05-0.02c0.02-0.01,0.04-0.02,0.06-0.02
			C160.65,151.18,160.61,151.19,160.58,151.21z M160.58,151.21c0.02-0.01,0.03-0.01,0.05-0.02c0.02-0.01,0.04-0.02,0.06-0.02
			C160.65,151.18,160.61,151.19,160.58,151.21z M162.07,150.8c0.02,0,0.04-0.01,0.07-0.01c0.02,0,0.03,0,0.05-0.01
			C162.15,150.79,162.11,150.79,162.07,150.8z M163.78,150.78c0.02,0,0.03,0,0.05,0.01c0.02,0,0.04,0.01,0.07,0.01
			C163.86,150.79,163.82,150.78,163.78,150.78z M169.25,150.79c0.02,0,0.05-0.01,0.07-0.01c0.01,0,0.03-0.01,0.04-0.01
			C169.33,150.78,169.29,150.79,169.25,150.79z M170.96,150.78c0.02,0,0.04,0,0.05,0.01c0.02,0,0.04,0,0.06,0.01
			C171.04,150.79,171,150.79,170.96,150.78z M172.47,151.16c0.02,0.01,0.04,0.02,0.06,0.02c0.02,0,0.03,0.01,0.05,0.02
			C172.53,151.19,172.5,151.18,172.47,151.16z M172.47,151.16c0.02,0.01,0.04,0.02,0.06,0.02c0.02,0,0.03,0.01,0.05,0.02
			C172.53,151.19,172.5,151.18,172.47,151.16z M171.01,150.79c0.02,0,0.04,0,0.06,0.01c-0.04,0-0.08-0.01-0.11-0.01
			C170.98,150.78,171,150.79,171.01,150.79z M169.32,150.78c0.01,0,0.03-0.01,0.04-0.01c-0.04,0.01-0.08,0.01-0.12,0.01
			C169.28,150.79,169.3,150.79,169.32,150.78z M163.78,150.78c0.02,0,0.03,0,0.05,0.01c0.02,0,0.04,0.01,0.07,0.01
			C163.86,150.79,163.82,150.78,163.78,150.78z M162.14,150.79c0.02,0,0.03,0,0.05-0.01c-0.04,0-0.08,0.01-0.11,0.01
			C162.09,150.79,162.11,150.79,162.14,150.79z M160.63,151.19c0.02-0.01,0.04-0.02,0.06-0.02c-0.03,0.01-0.07,0.03-0.1,0.04
			C160.59,151.2,160.61,151.19,160.63,151.19z M176.25,146.34c-2.6-2.6-6.05-4.03-9.73-4.03c-3.68,0-7.13,1.43-9.73,4.03
			c-2.6,2.6-4.03,6.06-4.03,9.73c0,3.68,1.43,7.13,4.03,9.73c2.6,2.6,6.05,4.03,9.73,4.03c3.68,0,7.13-1.43,9.73-4.03
			c2.6-2.6,4.03-6.05,4.03-9.73C180.29,152.4,178.85,148.94,176.25,146.34z M159.17,151.53c-0.06-0.09-0.07-0.23-0.04-0.33
			c0.03-0.12,0.1-0.19,0.2-0.26c0.26-0.19,0.53-0.34,0.83-0.47c1.25-0.56,2.65-0.71,4-0.5c0.11,0.02,0.2,0.11,0.26,0.2
			c0.06,0.1,0.07,0.22,0.04,0.33c-0.02,0.1-0.11,0.2-0.2,0.26c-0.11,0.06-0.21,0.06-0.33,0.04c-0.03-0.01-0.06-0.01-0.09-0.01
			c-0.56-0.07-1.13-0.07-1.69,0c-0.52,0.07-1.03,0.2-1.51,0.4c-0.31,0.13-0.6,0.29-0.87,0.49
			C159.56,151.82,159.28,151.71,159.17,151.53z M160.12,153.95c0-1.31,0.8-2.37,1.8-2.37c0.99,0,1.8,1.06,1.8,2.37
			s-0.8,2.37-1.8,2.37C160.92,156.32,160.12,155.26,160.12,153.95z M171.79,161.03c-1.41,1.1-3.19,1.65-5.26,1.65
			c-2.08,0-3.85-0.55-5.26-1.65c-0.31-0.24-0.37-0.7-0.13-1.01c0.24-0.31,0.7-0.37,1.01-0.13c1.16,0.9,2.63,1.35,4.38,1.35
			c1.75,0,3.23-0.45,4.38-1.35c0.13-0.1,0.29-0.15,0.44-0.15c0.21,0,0.43,0.1,0.57,0.28C172.16,160.33,172.1,160.78,171.79,161.03z
			 M170.86,156.32c-0.99,0-1.8-1.06-1.8-2.37s0.8-2.37,1.8-2.37c0.99,0,1.8,1.06,1.8,2.37S171.85,156.32,170.86,156.32z
			 M173.98,151.53c-0.05,0.09-0.16,0.17-0.26,0.2c-0.1,0.03-0.25,0.02-0.33-0.04c-0.27-0.2-0.56-0.36-0.87-0.49
			c-0.48-0.2-0.99-0.33-1.51-0.4c-0.56-0.07-1.13-0.07-1.69-0.01c-0.03,0-0.06,0.01-0.1,0.01c-0.12,0.02-0.22,0.01-0.33-0.04
			c-0.1-0.05-0.16-0.15-0.2-0.26c-0.03-0.1-0.01-0.24,0.04-0.33c0.05-0.08,0.16-0.18,0.26-0.2c0.39-0.06,0.78-0.1,1.18-0.1
			c0.67,0,1.35,0.1,1.99,0.28c0.59,0.17,1.16,0.42,1.66,0.78c0.09,0.07,0.16,0.14,0.2,0.26
			C174.06,151.31,174.03,151.43,173.98,151.53z M172.47,151.16c0.02,0.01,0.04,0.02,0.06,0.02c0.02,0,0.03,0.01,0.05,0.02
			C172.53,151.19,172.5,151.18,172.47,151.16z M170.96,150.78c0.02,0,0.04,0,0.05,0.01c0.02,0,0.04,0,0.06,0.01
			C171.04,150.79,171,150.79,170.96,150.78z M169.25,150.79c0.02,0,0.05-0.01,0.07-0.01c0.01,0,0.03-0.01,0.04-0.01
			C169.33,150.78,169.29,150.79,169.25,150.79z M163.78,150.78c0.02,0,0.03,0,0.05,0.01c0.02,0,0.04,0.01,0.07,0.01
			C163.86,150.79,163.82,150.78,163.78,150.78z M162.07,150.8c0.02,0,0.04-0.01,0.07-0.01c0.02,0,0.03,0,0.05-0.01
			C162.15,150.79,162.11,150.79,162.07,150.8z M160.58,151.21c0.02-0.01,0.03-0.01,0.05-0.02c0.02-0.01,0.04-0.02,0.06-0.02
			C160.65,151.18,160.61,151.19,160.58,151.21z M160.58,151.21c0.02-0.01,0.03-0.01,0.05-0.02c0.02-0.01,0.04-0.02,0.06-0.02
			C160.65,151.18,160.61,151.19,160.58,151.21z M162.07,150.8c0.02,0,0.04-0.01,0.07-0.01c0.02,0,0.03,0,0.05-0.01
			C162.15,150.79,162.11,150.79,162.07,150.8z M163.78,150.78c0.02,0,0.03,0,0.05,0.01c0.02,0,0.04,0.01,0.07,0.01
			C163.86,150.79,163.82,150.78,163.78,150.78z M169.25,150.79c0.02,0,0.05-0.01,0.07-0.01c0.01,0,0.03-0.01,0.04-0.01
			C169.33,150.78,169.29,150.79,169.25,150.79z M170.96,150.78c0.02,0,0.04,0,0.05,0.01c0.02,0,0.04,0,0.06,0.01
			C171.04,150.79,171,150.79,170.96,150.78z M172.47,151.16c0.02,0.01,0.04,0.02,0.06,0.02c0.02,0,0.03,0.01,0.05,0.02
			C172.53,151.19,172.5,151.18,172.47,151.16z M172.47,151.16c0.02,0.01,0.04,0.02,0.06,0.02c0.02,0,0.03,0.01,0.05,0.02
			C172.53,151.19,172.5,151.18,172.47,151.16z M170.96,150.78c0.02,0,0.04,0,0.05,0.01c0.02,0,0.04,0,0.06,0.01
			C171.04,150.79,171,150.79,170.96,150.78z M169.25,150.79c0.02,0,0.05-0.01,0.07-0.01c0.01,0,0.03-0.01,0.04-0.01
			C169.33,150.78,169.29,150.79,169.25,150.79z M163.78,150.78c0.02,0,0.03,0,0.05,0.01c0.02,0,0.04,0.01,0.07,0.01
			C163.86,150.79,163.82,150.78,163.78,150.78z M162.07,150.8c0.02,0,0.04-0.01,0.07-0.01c0.02,0,0.03,0,0.05-0.01
			C162.15,150.79,162.11,150.79,162.07,150.8z M160.58,151.21c0.02-0.01,0.03-0.01,0.05-0.02c0.02-0.01,0.04-0.02,0.06-0.02
			C160.65,151.18,160.61,151.19,160.58,151.21z M160.58,151.21c0.02-0.01,0.03-0.01,0.05-0.02c0.02-0.01,0.04-0.02,0.06-0.02
			C160.65,151.18,160.61,151.19,160.58,151.21z M162.07,150.8c0.02,0,0.04-0.01,0.07-0.01c0.02,0,0.03,0,0.05-0.01
			C162.15,150.79,162.11,150.79,162.07,150.8z M163.78,150.78c0.02,0,0.03,0,0.05,0.01c0.02,0,0.04,0.01,0.07,0.01
			C163.86,150.79,163.82,150.78,163.78,150.78z M169.25,150.79c0.02,0,0.05-0.01,0.07-0.01c0.01,0,0.03-0.01,0.04-0.01
			C169.33,150.78,169.29,150.79,169.25,150.79z M170.96,150.78c0.02,0,0.04,0,0.05,0.01c0.02,0,0.04,0,0.06,0.01
			C171.04,150.79,171,150.79,170.96,150.78z M172.47,151.16c0.02,0.01,0.04,0.02,0.06,0.02c0.02,0,0.03,0.01,0.05,0.02
			C172.53,151.19,172.5,151.18,172.47,151.16z M172.47,151.16c0.02,0.01,0.04,0.02,0.06,0.02c0.02,0,0.03,0.01,0.05,0.02
			C172.53,151.19,172.5,151.18,172.47,151.16z M170.96,150.78c0.02,0,0.04,0,0.05,0.01c0.02,0,0.04,0,0.06,0.01
			C171.04,150.79,171,150.79,170.96,150.78z M169.25,150.79c0.02,0,0.05-0.01,0.07-0.01c0.01,0,0.03-0.01,0.04-0.01
			C169.33,150.78,169.29,150.79,169.25,150.79z M163.78,150.78c0.02,0,0.03,0,0.05,0.01c0.02,0,0.04,0.01,0.07,0.01
			C163.86,150.79,163.82,150.78,163.78,150.78z M162.07,150.8c0.02,0,0.04-0.01,0.07-0.01c0.02,0,0.03,0,0.05-0.01
			C162.15,150.79,162.11,150.79,162.07,150.8z M160.58,151.21c0.02-0.01,0.03-0.01,0.05-0.02c0.02-0.01,0.04-0.02,0.06-0.02
			C160.65,151.18,160.61,151.19,160.58,151.21z M160.58,151.21c0.02-0.01,0.03-0.01,0.05-0.02c0.02-0.01,0.04-0.02,0.06-0.02
			C160.65,151.18,160.61,151.19,160.58,151.21z M162.07,150.8c0.02,0,0.04-0.01,0.07-0.01c0.02,0,0.03,0,0.05-0.01
			C162.15,150.79,162.11,150.79,162.07,150.8z M163.78,150.78c0.02,0,0.03,0,0.05,0.01c0.02,0,0.04,0.01,0.07,0.01
			C163.86,150.79,163.82,150.78,163.78,150.78z M169.25,150.79c0.02,0,0.05-0.01,0.07-0.01c0.01,0,0.03-0.01,0.04-0.01
			C169.33,150.78,169.29,150.79,169.25,150.79z M170.96,150.78c0.02,0,0.04,0,0.05,0.01c0.02,0,0.04,0,0.06,0.01
			C171.04,150.79,171,150.79,170.96,150.78z M172.47,151.16c0.02,0.01,0.04,0.02,0.06,0.02c0.02,0,0.03,0.01,0.05,0.02
			C172.53,151.19,172.5,151.18,172.47,151.16z M172.47,151.16c0.02,0.01,0.04,0.02,0.06,0.02c0.02,0,0.03,0.01,0.05,0.02
			C172.53,151.19,172.5,151.18,172.47,151.16z M170.96,150.78c0.02,0,0.04,0,0.05,0.01c0.02,0,0.04,0,0.06,0.01
			C171.04,150.79,171,150.79,170.96,150.78z M169.25,150.79c0.02,0,0.05-0.01,0.07-0.01c0.01,0,0.03-0.01,0.04-0.01
			C169.33,150.78,169.29,150.79,169.25,150.79z M163.78,150.78c0.02,0,0.03,0,0.05,0.01c0.02,0,0.04,0.01,0.07,0.01
			C163.86,150.79,163.82,150.78,163.78,150.78z M162.07,150.8c0.02,0,0.04-0.01,0.07-0.01c0.02,0,0.03,0,0.05-0.01
			C162.15,150.79,162.11,150.79,162.07,150.8z M160.58,151.21c0.02-0.01,0.03-0.01,0.05-0.02c0.02-0.01,0.04-0.02,0.06-0.02
			C160.65,151.18,160.61,151.19,160.58,151.21z M160.58,151.21c0.02-0.01,0.03-0.01,0.05-0.02c0.02-0.01,0.04-0.02,0.06-0.02
			C160.65,151.18,160.61,151.19,160.58,151.21z M162.07,150.8c0.02,0,0.04-0.01,0.07-0.01c0.02,0,0.03,0,0.05-0.01
			C162.15,150.79,162.11,150.79,162.07,150.8z M163.78,150.78c0.02,0,0.03,0,0.05,0.01c0.02,0,0.04,0.01,0.07,0.01
			C163.86,150.79,163.82,150.78,163.78,150.78z M163.78,150.78c0.02,0,0.03,0,0.05,0.01c0.02,0,0.04,0.01,0.07,0.01
			C163.86,150.79,163.82,150.78,163.78,150.78z M162.07,150.8c0.02,0,0.04-0.01,0.07-0.01c0.02,0,0.03,0,0.05-0.01
			C162.15,150.79,162.11,150.79,162.07,150.8z M160.58,151.21c0.02-0.01,0.03-0.01,0.05-0.02c0.02-0.01,0.04-0.02,0.06-0.02
			C160.65,151.18,160.61,151.19,160.58,151.21z"/>
		<path class="st2" d="M205.71,81.72c0.01,0,0.03,0,0.04,0.01c0.02,0,0.05,0.01,0.07,0.01C205.78,81.73,205.75,81.73,205.71,81.72z
			 M206.75,82c0.01,0,0.02,0.01,0.04,0.02c0.02,0.01,0.05,0.02,0.07,0.03C206.82,82.02,206.79,82.01,206.75,82z M206.79,82.01
			c0.02,0.01,0.05,0.02,0.07,0.03c-0.03-0.01-0.07-0.03-0.1-0.04C206.77,82,206.78,82.01,206.79,82.01z M205.75,81.73
			c0.02,0,0.05,0.01,0.07,0.01c-0.04-0.01-0.08-0.01-0.11-0.02C205.72,81.72,205.73,81.73,205.75,81.73z M210.39,78.68
			c-2.6-2.6-6.06-4.03-9.73-4.03s-7.13,1.43-9.73,4.03c-2.6,2.6-4.03,6.06-4.03,9.73s1.43,7.13,4.03,9.73
			c2.6,2.6,6.06,4.03,9.73,4.03s7.13-1.43,9.73-4.03c2.6-2.6,4.03-6.06,4.03-9.73S212.99,81.28,210.39,78.68z M194.13,82.58
			c0.01,0,0.01-0.01,0.01-0.01c0.01,0,0.01-0.01,0.01-0.01c-0.01,0-0.03,0.02-0.04,0.03C194.12,82.59,194.12,82.59,194.13,82.58
			c-0.02,0.02-0.03,0.03-0.05,0.04c-0.04,0.03-0.07,0.06-0.11,0.09c-0.07,0.06-0.15,0.13-0.22,0.2c-0.14,0.14-0.27,0.28-0.39,0.43
			c-0.07,0.09-0.2,0.12-0.3,0.13c-0.11,0-0.22-0.05-0.3-0.13c-0.08-0.07-0.13-0.2-0.13-0.3c0-0.12,0.05-0.21,0.13-0.3
			c0.17-0.22,0.36-0.42,0.57-0.6c0.39-0.34,0.82-0.64,1.3-0.85c0.51-0.23,1.03-0.37,1.58-0.43c0.24-0.03,0.42,0.22,0.43,0.43
			c0.01,0.11-0.05,0.23-0.13,0.3c-0.09,0.09-0.19,0.11-0.3,0.13c-0.02,0-0.04,0.01-0.06,0.01c-0.36,0.05-0.7,0.15-1.04,0.28
			C194.76,82.16,194.44,82.35,194.13,82.58z M195.47,87.79c-0.06-0.1-0.08-0.24-0.05-0.35c0.03-0.12,0.11-0.2,0.21-0.27
			c0.04-0.03,0.08-0.06,0.12-0.09c0.03-0.02,0.06-0.05,0.09-0.07c0.3-0.24,0.61-0.48,0.9-0.72c-0.32-0.26-0.64-0.52-0.96-0.77
			c-0.01-0.01-0.02-0.02-0.03-0.03c-0.04-0.03-0.08-0.06-0.12-0.09c-0.1-0.07-0.17-0.15-0.21-0.27c-0.04-0.12-0.01-0.24,0.05-0.35
			c0.05-0.1,0.17-0.18,0.27-0.21c0.1-0.03,0.26-0.02,0.35,0.05c0.57,0.43,1.14,0.88,1.68,1.35c0.18,0.15,0.18,0.49,0,0.64
			c-0.54,0.47-1.11,0.91-1.68,1.35c-0.09,0.07-0.24,0.07-0.35,0.05C195.63,87.97,195.54,87.89,195.47,87.79z M206.3,92.43
			c-0.19,0.51-0.49,0.96-0.84,1.37c-1.11,1.26-2.85,1.91-4.51,1.9c-2.18,0.03-4.54-1.15-5.35-3.27c-0.22-0.59,0.35-1.2,0.96-1.01
			c0.43,0.14,0.85,0.31,1.27,0.44c2.11,0.65,4.41,0.62,6.51-0.09c0.3-0.1,0.6-0.22,0.9-0.32c0.19-0.07,0.38-0.09,0.58-0.01
			C206.24,91.58,206.44,92.02,206.3,92.43z M206.42,87.79c-0.05,0.1-0.17,0.18-0.27,0.21c-0.1,0.03-0.26,0.02-0.35-0.05
			c-0.57-0.43-1.14-0.88-1.68-1.35c-0.18-0.15-0.18-0.49,0-0.64c0.54-0.47,1.11-0.91,1.68-1.35c0.09-0.07,0.24-0.07,0.35-0.05
			c0.12,0.03,0.21,0.11,0.27,0.21c0.06,0.1,0.08,0.24,0.05,0.35c-0.03,0.12-0.11,0.2-0.21,0.27c-0.05,0.04-0.1,0.08-0.16,0.12
			c-0.32,0.25-0.65,0.5-0.96,0.77c0.3,0.24,0.6,0.48,0.9,0.72c0.02,0.01,0.04,0.03,0.06,0.04c0.05,0.04,0.1,0.08,0.16,0.12
			c0.1,0.08,0.17,0.15,0.21,0.27C206.51,87.56,206.48,87.68,206.42,87.79z M209.14,83.35c-0.07,0.08-0.2,0.13-0.3,0.13
			c-0.1,0-0.24-0.05-0.3-0.13c-0.12-0.15-0.25-0.3-0.39-0.43c-0.07-0.07-0.14-0.14-0.22-0.2c-0.04-0.04-0.08-0.07-0.12-0.1
			c-0.01-0.01-0.02-0.01-0.02-0.02c0,0-0.01-0.01-0.01-0.01c0,0-0.01-0.01-0.01-0.01c0,0,0,0,0.01,0.01
			c-0.3-0.23-0.63-0.42-0.98-0.57c-0.33-0.13-0.68-0.23-1.04-0.28c-0.02,0-0.04-0.01-0.06-0.01c-0.12-0.01-0.22-0.04-0.3-0.13
			c-0.08-0.08-0.12-0.19-0.13-0.3c0-0.11,0.05-0.23,0.13-0.3c0.07-0.07,0.2-0.14,0.3-0.13c0.31,0.03,0.61,0.08,0.91,0.17
			c0.99,0.29,1.9,0.9,2.54,1.71c0.07,0.09,0.12,0.18,0.13,0.3C209.27,83.16,209.22,83.27,209.14,83.35z M206.75,82
			c0.01,0,0.02,0.01,0.04,0.02c0.02,0.01,0.05,0.02,0.07,0.03C206.82,82.02,206.79,82.01,206.75,82z M205.71,81.72
			c0.01,0,0.03,0,0.04,0.01c0.02,0,0.05,0.01,0.07,0.01C205.78,81.73,205.75,81.73,205.71,81.72z M196.08,81.74
			c0.02,0,0.05-0.01,0.07-0.01c0.01,0,0.03,0,0.04-0.01C196.15,81.73,196.11,81.73,196.08,81.74z M195.04,82.04
			c0.02-0.01,0.05-0.02,0.07-0.03l0.03-0.01C195.11,82.01,195.08,82.02,195.04,82.04z"/>
		<path class="st18" d="M210.77,149.39c0.01,0,0.03,0,0.04,0.01c0.02,0,0.05,0.01,0.07,0.01
			C210.85,149.4,210.81,149.39,210.77,149.39z M211.82,149.66c0.01,0.01,0.02,0.01,0.04,0.02c0.02,0.01,0.05,0.02,0.07,0.03
			C211.88,149.69,211.85,149.68,211.82,149.66z M211.85,149.68c0.02,0.01,0.05,0.02,0.07,0.03c-0.03-0.01-0.07-0.03-0.1-0.04
			C211.83,149.67,211.84,149.67,211.85,149.68z M210.81,149.39c0.02,0,0.05,0.01,0.07,0.01c-0.04,0-0.08-0.01-0.11-0.01
			C210.78,149.39,210.8,149.39,210.81,149.39z M215.46,146.34c-2.6-2.6-6.06-4.03-9.73-4.03s-7.13,1.43-9.73,4.03
			c-2.6,2.6-4.03,6.06-4.03,9.73s1.43,7.13,4.03,9.73c2.6,2.6,6.06,4.03,9.73,4.03s7.13-1.43,9.73-4.03c2.6-2.6,4.03-6.06,4.03-9.73
			S218.06,148.94,215.46,146.34z M199.19,150.25c0.01,0,0.01-0.01,0.01-0.01c0.01,0,0.01-0.01,0.01-0.01
			c-0.01,0-0.03,0.02-0.04,0.03C199.18,150.26,199.18,150.26,199.19,150.25c-0.02,0.02-0.03,0.03-0.05,0.04
			c-0.04,0.03-0.07,0.06-0.11,0.1c-0.07,0.06-0.15,0.13-0.22,0.2c-0.14,0.14-0.27,0.28-0.39,0.43c-0.07,0.09-0.2,0.12-0.3,0.13
			c-0.11,0.01-0.22-0.05-0.3-0.13c-0.08-0.07-0.13-0.2-0.13-0.3c0-0.12,0.05-0.21,0.13-0.3c0.17-0.22,0.36-0.42,0.57-0.6
			c0.39-0.34,0.82-0.64,1.3-0.85c0.51-0.23,1.03-0.37,1.58-0.43c0.24-0.02,0.42,0.22,0.43,0.43c0.01,0.11-0.05,0.23-0.13,0.3
			c-0.09,0.09-0.19,0.11-0.3,0.13c-0.02,0-0.04,0.01-0.06,0.01c-0.36,0.05-0.7,0.15-1.04,0.28
			C199.82,149.83,199.5,150.02,199.19,150.25z M200.54,155.46c-0.06-0.1-0.08-0.24-0.05-0.35c0.03-0.12,0.11-0.2,0.21-0.27
			c0.04-0.03,0.08-0.06,0.12-0.09c0.03-0.02,0.06-0.05,0.09-0.07c0.3-0.24,0.61-0.48,0.9-0.72c-0.32-0.26-0.64-0.52-0.96-0.77
			c-0.01-0.01-0.02-0.02-0.03-0.03c-0.04-0.03-0.08-0.06-0.12-0.09c-0.1-0.07-0.17-0.15-0.21-0.27c-0.04-0.12-0.01-0.24,0.05-0.35
			c0.05-0.1,0.17-0.18,0.27-0.21c0.1-0.03,0.26-0.02,0.35,0.05c0.57,0.43,1.14,0.88,1.68,1.35c0.18,0.15,0.18,0.49,0,0.64
			c-0.54,0.47-1.11,0.91-1.68,1.35c-0.09,0.07-0.24,0.07-0.35,0.04C200.69,155.64,200.6,155.55,200.54,155.46z M211.36,160.1
			c-0.19,0.51-0.49,0.96-0.84,1.37c-1.11,1.26-2.85,1.91-4.51,1.9c-2.18,0.03-4.54-1.15-5.35-3.27c-0.22-0.59,0.35-1.2,0.96-1.01
			c0.43,0.13,0.85,0.31,1.27,0.44c2.11,0.65,4.41,0.62,6.51-0.09c0.3-0.1,0.6-0.22,0.9-0.32c0.19-0.07,0.38-0.09,0.58-0.01
			C211.3,159.24,211.51,159.69,211.36,160.1z M211.49,155.46c-0.05,0.1-0.17,0.18-0.27,0.21c-0.1,0.03-0.26,0.02-0.35-0.04
			c-0.57-0.43-1.14-0.88-1.68-1.35c-0.18-0.15-0.18-0.49,0-0.64c0.54-0.47,1.11-0.91,1.68-1.35c0.09-0.07,0.24-0.07,0.35-0.05
			c0.12,0.03,0.21,0.11,0.27,0.21c0.06,0.1,0.08,0.24,0.05,0.35c-0.03,0.12-0.11,0.2-0.21,0.27c-0.05,0.04-0.1,0.08-0.16,0.12
			c-0.32,0.25-0.65,0.5-0.96,0.77c0.3,0.24,0.6,0.48,0.9,0.72c0.02,0.01,0.04,0.03,0.06,0.04c0.05,0.04,0.1,0.08,0.16,0.12
			c0.1,0.07,0.17,0.15,0.21,0.27C211.57,155.22,211.54,155.35,211.49,155.46z M214.2,151.01c-0.07,0.08-0.2,0.13-0.3,0.13
			c-0.1,0-0.24-0.04-0.3-0.13c-0.12-0.15-0.25-0.3-0.39-0.43c-0.07-0.07-0.14-0.14-0.22-0.2c-0.04-0.04-0.08-0.07-0.12-0.1
			c-0.01-0.01-0.02-0.01-0.02-0.02c0,0-0.01-0.01-0.01-0.01c0,0-0.01-0.01-0.01-0.01c0,0,0,0,0.01,0.01
			c-0.3-0.23-0.63-0.42-0.98-0.57c-0.33-0.13-0.68-0.23-1.04-0.28c-0.02,0-0.04,0-0.06-0.01c-0.12-0.01-0.22-0.04-0.3-0.13
			c-0.08-0.08-0.12-0.19-0.13-0.3c-0.01-0.11,0.05-0.23,0.13-0.3c0.07-0.07,0.2-0.14,0.3-0.13c0.31,0.03,0.61,0.08,0.91,0.17
			c0.99,0.29,1.9,0.9,2.54,1.71c0.07,0.09,0.12,0.18,0.13,0.3C214.33,150.83,214.28,150.93,214.2,151.01z M211.82,149.66
			c0.01,0.01,0.02,0.01,0.04,0.02c0.02,0.01,0.05,0.02,0.07,0.03C211.88,149.69,211.85,149.68,211.82,149.66z M210.77,149.39
			c0.01,0,0.03,0,0.04,0.01c0.02,0,0.05,0.01,0.07,0.01C210.85,149.4,210.81,149.39,210.77,149.39z M201.14,149.4
			c0.02,0,0.05-0.01,0.07-0.01c0.01,0,0.03,0,0.04-0.01C201.21,149.39,201.18,149.4,201.14,149.4z M200.1,149.7
			c0.02-0.01,0.05-0.02,0.07-0.03l0.03-0.01C200.17,149.68,200.14,149.69,200.1,149.7z"/>
		<g>
			<path class="st14" d="M70.4,197.78H33.82c-1.19,0-2.15-0.96-2.15-2.15v-3.12c0-1.19,0.96-2.15,2.15-2.15H70.4V197.78z"/>
			<rect x="70.05" y="190.37" class="st15" width="38.73" height="7.42"/>
			<rect x="108.07" y="190.37" class="st16" width="38.73" height="7.42"/>
			<rect x="146.68" y="190.37" class="st17" width="38.73" height="7.42"/>
			<path class="st18" d="M221.16,197.78h-36.58v-7.42h36.58c1.19,0,2.15,0.96,2.15,2.15v3.12
				C223.31,196.82,222.35,197.78,221.16,197.78z"/>
		</g>
		<path class="st19" d="M55.84,229.18c2.56-2.16,5.12-4.32,7.67-6.49c0.09-0.08,0.16-0.2,0.28-0.35c-0.47-0.03-0.86-0.07-1.24-0.09
			c-1.52-0.09-3.03-0.17-4.55-0.26c-1.55-0.09-3.11-0.2-4.66-0.28c-0.34-0.02-0.54-0.13-0.67-0.45c-1.26-3.03-2.54-6.05-3.81-9.07
			c-0.07-0.16-0.14-0.32-0.23-0.51v22.84c0.2-0.07,0.38-0.04,0.6,0.1c1.79,1.09,3.59,2.17,5.39,3.25c1.19,0.72,2.38,1.43,3.65,2.2
			c-0.03-0.17-0.04-0.26-0.06-0.34c-0.86-3.27-1.72-6.54-2.59-9.81C55.53,229.6,55.59,229.39,55.84,229.18z"/>
		<path class="st20" d="M48.57,211.56c-0.48,1.2-0.92,2.32-1.37,3.44c-0.83,2.1-1.67,4.2-2.49,6.31c-0.12,0.3-0.27,0.49-0.64,0.49
			c-0.38,0-0.77,0.05-1.15,0.09c-1.81,0.15-3.62,0.29-5.42,0.44c-1.32,0.11-2.63,0.21-4.01,0.32c0.14,0.13,0.24,0.22,0.34,0.31
			c2.62,2.13,5.24,4.26,7.87,6.37c0.25,0.2,0.32,0.39,0.25,0.69c-0.61,2.51-1.21,5.01-1.82,7.52c-0.21,0.89-0.43,1.78-0.66,2.74
			c0.18-0.11,0.29-0.18,0.4-0.25c2.85-1.8,5.71-3.6,8.56-5.41c0.07-0.05,0.14-0.08,0.21-0.1v-22.84
			C48.61,211.64,48.59,211.6,48.57,211.56z"/>
		<path class="st19" d="M95.39,229.18c2.56-2.16,5.12-4.32,7.67-6.49c0.09-0.08,0.16-0.2,0.28-0.35c-0.47-0.03-0.86-0.07-1.24-0.09
			c-1.52-0.09-3.03-0.17-4.55-0.26c-1.55-0.09-3.11-0.2-4.66-0.28c-0.34-0.02-0.54-0.13-0.67-0.45c-1.26-3.03-2.54-6.05-3.81-9.07
			c-0.07-0.16-0.14-0.32-0.23-0.51v22.84c0.2-0.07,0.38-0.04,0.6,0.1c1.79,1.09,3.59,2.17,5.39,3.25c1.19,0.72,2.38,1.43,3.65,2.2
			c-0.03-0.17-0.04-0.26-0.06-0.34c-0.86-3.27-1.72-6.54-2.59-9.81C95.08,229.6,95.14,229.39,95.39,229.18z"/>
		<path class="st20" d="M88.12,211.56c-0.48,1.2-0.92,2.32-1.37,3.44c-0.83,2.1-1.67,4.2-2.49,6.31c-0.12,0.3-0.27,0.49-0.64,0.49
			c-0.38,0-0.77,0.05-1.15,0.09c-1.81,0.15-3.62,0.29-5.42,0.44c-1.32,0.11-2.63,0.21-4.01,0.32c0.14,0.13,0.24,0.22,0.34,0.31
			c2.62,2.13,5.24,4.26,7.87,6.37c0.25,0.2,0.32,0.39,0.25,0.69c-0.61,2.51-1.21,5.01-1.82,7.52c-0.21,0.89-0.43,1.78-0.66,2.74
			c0.18-0.11,0.29-0.18,0.4-0.25c2.85-1.8,5.71-3.6,8.56-5.41c0.07-0.05,0.14-0.08,0.21-0.1v-22.84
			C88.16,211.64,88.14,211.6,88.12,211.56z"/>
		<path class="st19" d="M134.94,229.18c2.56-2.16,5.12-4.32,7.67-6.49c0.09-0.08,0.16-0.2,0.28-0.35c-0.47-0.03-0.86-0.07-1.24-0.09
			c-1.52-0.09-3.03-0.17-4.55-0.26c-1.55-0.09-3.11-0.2-4.66-0.28c-0.34-0.02-0.54-0.13-0.67-0.45c-1.26-3.03-2.54-6.05-3.81-9.07
			c-0.07-0.16-0.14-0.32-0.23-0.51v22.84c0.2-0.07,0.38-0.04,0.6,0.1c1.79,1.09,3.59,2.17,5.39,3.25c1.19,0.72,2.38,1.43,3.65,2.2
			c-0.03-0.17-0.04-0.26-0.06-0.34c-0.86-3.27-1.72-6.54-2.59-9.81C134.63,229.6,134.69,229.39,134.94,229.18z"/>
		<path class="st20" d="M127.67,211.56c-0.48,1.2-0.92,2.32-1.37,3.44c-0.83,2.1-1.67,4.2-2.49,6.31c-0.12,0.3-0.27,0.49-0.64,0.49
			c-0.38,0-0.77,0.05-1.15,0.09c-1.81,0.15-3.62,0.29-5.42,0.44c-1.32,0.11-2.63,0.21-4.01,0.32c0.14,0.13,0.24,0.22,0.34,0.31
			c2.62,2.13,5.24,4.26,7.87,6.37c0.25,0.2,0.32,0.39,0.25,0.69c-0.61,2.51-1.21,5.01-1.82,7.52c-0.21,0.89-0.43,1.78-0.66,2.74
			c0.18-0.11,0.29-0.18,0.4-0.25c2.85-1.8,5.71-3.6,8.56-5.41c0.07-0.05,0.14-0.08,0.21-0.1v-22.84
			C127.71,211.64,127.69,211.6,127.67,211.56z"/>
		<path class="st19" d="M174.49,229.18c2.56-2.16,5.12-4.32,7.67-6.49c0.09-0.08,0.16-0.2,0.28-0.35c-0.47-0.03-0.86-0.07-1.24-0.09
			c-1.52-0.09-3.03-0.17-4.55-0.26c-1.55-0.09-3.11-0.2-4.66-0.28c-0.34-0.02-0.54-0.13-0.67-0.45c-1.26-3.03-2.54-6.05-3.81-9.07
			c-0.07-0.16-0.14-0.32-0.23-0.51v22.84c0.2-0.07,0.38-0.04,0.6,0.1c1.79,1.09,3.59,2.17,5.39,3.25c1.19,0.72,2.38,1.43,3.65,2.2
			c-0.03-0.17-0.04-0.26-0.06-0.34c-0.86-3.27-1.72-6.54-2.59-9.81C174.18,229.6,174.24,229.39,174.49,229.18z"/>
		<path class="st20" d="M167.22,211.56c-0.48,1.2-0.92,2.32-1.37,3.44c-0.83,2.1-1.67,4.2-2.49,6.31c-0.12,0.3-0.27,0.49-0.64,0.49
			c-0.38,0-0.77,0.05-1.15,0.09c-1.81,0.15-3.62,0.29-5.42,0.44c-1.32,0.11-2.63,0.21-4.01,0.32c0.14,0.13,0.24,0.22,0.34,0.31
			c2.62,2.13,5.24,4.26,7.87,6.37c0.25,0.2,0.32,0.39,0.25,0.69c-0.61,2.51-1.21,5.01-1.82,7.52c-0.21,0.89-0.43,1.78-0.66,2.74
			c0.18-0.11,0.29-0.18,0.4-0.25c2.85-1.8,5.71-3.6,8.56-5.41c0.07-0.05,0.14-0.08,0.21-0.1v-22.84
			C167.26,211.64,167.24,211.6,167.22,211.56z"/>
		<path class="st21" d="M214.04,229.18c2.56-2.16,5.12-4.32,7.67-6.49c0.09-0.08,0.16-0.2,0.28-0.35c-0.47-0.03-0.86-0.07-1.24-0.09
			c-1.52-0.09-3.03-0.17-4.55-0.26c-1.55-0.09-3.11-0.2-4.66-0.28c-0.34-0.02-0.54-0.13-0.67-0.45c-1.26-3.03-2.54-6.05-3.81-9.07
			c-0.07-0.16-0.14-0.32-0.23-0.51v22.84c0.2-0.07,0.38-0.04,0.6,0.1c1.79,1.09,3.59,2.17,5.39,3.25c1.19,0.72,2.38,1.43,3.65,2.2
			c-0.03-0.17-0.04-0.26-0.06-0.34c-0.86-3.27-1.72-6.54-2.59-9.81C213.73,229.6,213.79,229.39,214.04,229.18z"/>
		<path class="st2" d="M206.78,211.56c-0.48,1.2-0.92,2.32-1.37,3.44c-0.83,2.1-1.67,4.2-2.49,6.31c-0.12,0.3-0.27,0.49-0.64,0.49
			c-0.38,0-0.77,0.05-1.15,0.09c-1.81,0.15-3.62,0.29-5.42,0.44c-1.32,0.11-2.63,0.21-4.01,0.32c0.14,0.13,0.24,0.22,0.34,0.31
			c2.62,2.13,5.24,4.26,7.87,6.37c0.25,0.2,0.32,0.39,0.25,0.69c-0.61,2.51-1.21,5.01-1.82,7.52c-0.21,0.89-0.43,1.78-0.66,2.74
			c0.18-0.11,0.29-0.18,0.4-0.25c2.85-1.8,5.71-3.6,8.56-5.41c0.07-0.05,0.14-0.08,0.21-0.1v-22.84
			C206.81,211.64,206.79,211.6,206.78,211.56z"/>
		<path d="M160.53,65.43c-0.12,0.32-0.19,0.67-0.38,0.95c-9.22,13.26-18.46,26.51-27.7,39.76c-0.16,0.23-0.36,0.44-0.56,0.68
			c-0.78-0.61-1.51-1.17-2.37-1.84c2.26-2.92,4.52-5.84,6.79-8.75c7.75-9.96,15.5-19.91,23.26-29.86c0.27-0.35,0.66-0.6,1-0.89
			L160.53,65.43z"/>
		<path class="st22" d="M131.03,110.06c0.03,1.79-1.54,3.41-3.34,3.44c-1.81,0.03-3.42-1.51-3.47-3.32
			c-0.05-1.84,1.46-3.37,3.35-3.4C129.46,106.75,131,108.21,131.03,110.06z"/>
	</g>
	<text transform="matrix(1 0 0 1 91.1806 132.9495)" class="st22 st23 st24">Survey</text>
</g>
</svg>
