<?xml version="1.0" encoding="UTF-8"?>
<svg id="Layer_1" data-name="Layer 1" xmlns="http://www.w3.org/2000/svg" viewBox="0 0 256 256">
  <defs>
    <style>
      .cls-1, .cls-2 {
        fill: #fff;
      }

      .cls-2 {
        opacity: .5;
      }

      .cls-3 {
        fill: #9489af;
      }
    </style>
  </defs>
  <polygon class="cls-3" points="227.64 55.31 198.88 71.92 227.64 88.53 227.64 55.31"/>
  <polygon class="cls-3" points="28.36 190.69 31.71 157.64 58.65 177.07 28.36 190.69"/>
  <rect class="cls-3" x="30.98" y="66.15" width="196.65" height="116.66" rx="13.51" ry="13.51"/>
  <path class="cls-2" d="m136,66.15l-30,116.66h-60.12l-17.52,7.88,2.62-25.85v-85.17c0-7.47,6.05-13.52,13.52-13.52h91.5Z"/>
  <path class="cls-1" d="m66.59,152.69v-19.98l-15.38-23.85c-1.35-2.15-2.3-3.82-2.86-5.03s-.84-2.25-.84-3.14c0-1.46.57-2.72,1.7-3.78,1.13-1.06,2.53-1.59,4.19-1.59,1.75,0,3.07.49,3.97,1.48s2.26,2.96,4.06,5.91l11.77,19.12,11.9-19.12c.72-1.17,1.32-2.16,1.8-2.96.49-.8,1.02-1.55,1.61-2.26.59-.7,1.24-1.24,1.96-1.61.72-.37,1.59-.56,2.62-.56,1.6,0,2.94.52,4.02,1.57,1.07,1.05,1.61,2.26,1.61,3.63,0,1.12-.27,2.23-.82,3.35-.54,1.12-1.48,2.66-2.79,4.64l-15.77,24.19v19.98c0,2.61-.6,4.55-1.8,5.84s-2.74,1.93-4.6,1.93-3.42-.64-4.6-1.91c-1.17-1.27-1.76-3.23-1.76-5.87Z"/>
  <path class="cls-1" d="m181.17,102.98l24.54,37.12v-37.47c0-2.43.52-4.26,1.57-5.48,1.04-1.22,2.46-1.83,4.23-1.83s3.28.61,4.34,1.83c1.06,1.22,1.59,3.04,1.59,5.48v49.54c0,5.53-2.29,8.29-6.88,8.29-1.15,0-2.18-.17-3.09-.49-.92-.33-1.78-.85-2.58-1.57-.8-.72-1.55-1.55-2.23-2.51-.69-.96-1.38-1.94-2.06-2.94l-23.93-36.7v36.91c0,2.41-.56,4.23-1.68,5.46s-2.55,1.85-4.3,1.85-3.25-.62-4.34-1.87c-1.09-1.25-1.63-3.06-1.63-5.44v-48.6c0-2.06.23-3.68.69-4.86.54-1.29,1.45-2.34,2.71-3.16,1.26-.82,2.62-1.22,4.08-1.22,1.15,0,2.13.19,2.94.56.82.37,1.53.87,2.15,1.5.62.63,1.25,1.45,1.89,2.45.64,1,1.31,2.05,2,3.14Z"/>
</svg>