<?xml version="1.0" encoding="utf-8"?>
<!-- Generator: Adobe Illustrator 27.3.1, SVG Export Plug-In . SVG Version: 6.00 Build 0)  -->
<svg version="1.1" id="Layer_1" xmlns="http://www.w3.org/2000/svg" xmlns:xlink="http://www.w3.org/1999/xlink" x="0px" y="0px"
	 viewBox="0 0 1080 1080" style="enable-background:new 0 0 1080 1080;" xml:space="preserve">
<style type="text/css">
	.st0{fill:url(#XMLID_00000084511898762673085080000000772533004336298919_);}
	.st1{fill:#F79945;}
	.st2{fill:#1D4ED8;}
	.st3{display:none;}
	.st4{display:inline;fill:#F79945;stroke:#F79945;stroke-width:13;stroke-miterlimit:10;}
	.st5{fill:none;stroke:url(#SVGID_1_);stroke-width:7.7464;stroke-linecap:round;stroke-linejoin:round;stroke-miterlimit:10;}
	
		.st6{fill:none;stroke:url(#SVGID_00000041988074019470123890000000752031632413203081_);stroke-width:7.7464;stroke-linecap:round;stroke-linejoin:round;stroke-miterlimit:10;}
	
		.st7{fill:none;stroke:url(#SVGID_00000031893847261047020020000013077154035641671046_);stroke-width:7.7464;stroke-linecap:round;stroke-linejoin:round;stroke-miterlimit:10;}
	
		.st8{fill:none;stroke:url(#SVGID_00000011745630740146299990000005777925352615403926_);stroke-width:7.7464;stroke-linecap:round;stroke-linejoin:round;stroke-miterlimit:10;}
	
		.st9{fill:none;stroke:url(#SVGID_00000127730722480501867620000017096034490873782417_);stroke-width:7.7464;stroke-linecap:round;stroke-linejoin:round;stroke-miterlimit:10;}
	.st10{fill:#005398;}
	.st11{fill:url(#SVGID_00000045587457322158863490000004817110809430650043_);}
	.st12{fill:none;stroke:url(#SVGID_00000101781477544059881470000003452905141533578895_);stroke-width:4;stroke-miterlimit:10;}
	.st13{fill:none;stroke:url(#SVGID_00000047766646515020732290000010768856395902248870_);stroke-width:4;stroke-miterlimit:10;}
	.st14{fill:none;stroke:url(#SVGID_00000116955956257526792050000016836753903903286187_);stroke-width:4;stroke-miterlimit:10;}
	
		.st15{fill:none;stroke:url(#SVGID_00000004512458786029102580000003791925948573942686_);stroke-width:4;stroke-linecap:round;stroke-linejoin:round;stroke-miterlimit:10;}
	.st16{fill:none;stroke:url(#SVGID_00000105412117781649182730000013559483758409247625_);stroke-width:4;stroke-miterlimit:10;}
	.st17{fill:url(#SVGID_00000006674081207587787350000011580976463789402760_);}
	.st18{fill:none;stroke:url(#SVGID_00000141419418726612156820000017996645771452419216_);stroke-width:4;stroke-miterlimit:10;}
	.st19{fill:none;stroke:url(#SVGID_00000114063122069814185580000007729446048357902755_);stroke-width:4;stroke-miterlimit:10;}
	.st20{fill:none;stroke:url(#SVGID_00000047024441597885497980000000781324180733918848_);stroke-width:4;stroke-miterlimit:10;}
	
		.st21{fill:none;stroke:url(#SVGID_00000046335306947890597420000014012655360526471347_);stroke-width:4;stroke-linecap:round;stroke-linejoin:round;stroke-miterlimit:10;}
	.st22{fill:none;stroke:url(#SVGID_00000057110452772579962030000003263674239645926064_);stroke-width:4;stroke-miterlimit:10;}
	.st23{fill:url(#SVGID_00000106831319969252462810000006132692111725634207_);}
	.st24{fill:url(#SVGID_00000078007183177708672590000017751825894901092014_);}
	.st25{fill:url(#SVGID_00000039102364670679645830000016910539628725819288_);}
	.st26{fill:url(#SVGID_00000163038187612928869990000004562711988620889777_);}
	.st27{fill:url(#SVGID_00000070110222509586294710000001513007334295492746_);}
	.st28{fill:url(#SVGID_00000032614840714169826910000006949002753457204877_);}
	.st29{fill:url(#SVGID_00000034807403099653411260000001530965776924318352_);}
	.st30{fill:url(#SVGID_00000160872385941953861320000012857494161446660746_);}
	.st31{fill:url(#SVGID_00000128455409147859494740000006898405569140653217_);}
	.st32{fill:url(#SVGID_00000162349017122671383430000007864710590603987086_);}
	.st33{fill:url(#SVGID_00000092433717941398759280000014074652500346918329_);}
	.st34{fill:url(#SVGID_00000066501059746350969830000002342043166798301068_);}
	.st35{fill:url(#SVGID_00000059279812289384414480000010529521218597238434_);}
	.st36{fill:url(#SVGID_00000091701732837978442880000006535592548848994218_);}
	.st37{fill:url(#SVGID_00000093868055943944943230000006172047390683408279_);}
	.st38{fill:url(#SVGID_00000029038392156609642840000006442624638583618479_);}
	.st39{fill:url(#SVGID_00000124137544832092273260000013333732083529960110_);}
	.st40{fill:url(#SVGID_00000102513956980952148690000015394279249825716152_);}
	.st41{fill:url(#SVGID_00000081639862030582159140000001144383301845374644_);}
	.st42{fill:#FFFFFF;}
	.st43{fill:none;stroke:url(#SVGID_00000176725879425970348730000017577386682874103425_);stroke-width:4;stroke-miterlimit:10;}
	.st44{fill:none;stroke:url(#SVGID_00000022545223384829422570000012782700359857416614_);stroke-width:4;stroke-miterlimit:10;}
	.st45{fill:none;stroke:url(#SVGID_00000067198387563920346470000010304241169751009427_);stroke-width:4;stroke-miterlimit:10;}
	
		.st46{fill:none;stroke:url(#SVGID_00000101821100981867083460000013362777496737455804_);stroke-width:4;stroke-linecap:round;stroke-linejoin:round;stroke-miterlimit:10;}
	.st47{fill:none;stroke:url(#SVGID_00000057832321944199965420000006869768567611889582_);stroke-width:4;stroke-miterlimit:10;}
	.st48{fill:url(#SVGID_00000132063602067217212970000007158723758316088731_);}
	.st49{fill:url(#SVGID_00000146500705365825853960000017410974773116058526_);}
	.st50{fill:url(#SVGID_00000083058525163691815020000016528480821490209174_);}
	.st51{fill:url(#SVGID_00000181067842316716157410000004520818877688411561_);}
	.st52{fill:url(#SVGID_00000099621892037197312410000004831038230093374371_);}
	.st53{fill:url(#SVGID_00000064315422954708830440000004162117386969795484_);}
	.st54{fill:url(#SVGID_00000018236792165520370480000014871660619937761193_);}
	.st55{fill:url(#SVGID_00000093165539504087705310000016242579217742908040_);}
	.st56{fill:url(#SVGID_00000112592202258644156720000006339254487959786670_);}
	.st57{fill:url(#SVGID_00000130630224544298936520000016902347470519352484_);}
</style>
<g>
	
		<linearGradient id="SVGID_1_" gradientUnits="userSpaceOnUse" x1="662.8868" y1="926.638" x2="662.8868" y2="122.9826" gradientTransform="matrix(-1 0 0 1 968.478 0)">
		<stop  offset="0" style="stop-color:#1E85BC"/>
		<stop  offset="1" style="stop-color:#252760"/>
	</linearGradient>
	<path class="st5" d="M459.54,922.76c-67.78,0-126.48-38.72-155.3-95.22c-47.34-9.99-82.89-51.99-82.89-102.31
		c0-6.52,0.63-12.89,1.77-19.08C151.51,684.5,99.35,618.02,99.35,539.33c0-72.73,44.56-135.02,107.85-161.14
		c-9.45-15.72-14.9-34.13-14.9-53.81c0-50.32,35.54-92.32,82.89-102.31c28.82-56.5,87.52-95.22,155.3-95.22
		c29.38,0,57.05,7.3,81.33,20.14v182.7v125.58v126.9V766.4v148.38C495.32,919.96,477.76,922.76,459.54,922.76z"/>
	
		<linearGradient id="SVGID_00000039126688313943619540000009726967614215849368_" gradientUnits="userSpaceOnUse" x1="563.2402" y1="918.6471" x2="563.2402" y2="143.1261" gradientTransform="matrix(-1 0 0 1 968.478 0)">
		<stop  offset="0" style="stop-color:#1E85BC"/>
		<stop  offset="1" style="stop-color:#252760"/>
	</linearGradient>
	
		<polyline style="fill:none;stroke:url(#SVGID_00000039126688313943619540000009726967614215849368_);stroke-width:7.7464;stroke-linecap:round;stroke-linejoin:round;stroke-miterlimit:10;" points="
		511.83,147 298.65,514.44 511.83,914.77 	"/>
	
		<linearGradient id="SVGID_00000078746910189533611530000009976931727232358052_" gradientUnits="userSpaceOnUse" x1="664.9069" y1="710.0305" x2="664.9069" y2="218.2003" gradientTransform="matrix(-1 0 0 1 968.478 0)">
		<stop  offset="0" style="stop-color:#1E85BC"/>
		<stop  offset="1" style="stop-color:#252760"/>
	</linearGradient>
	
		<polyline style="fill:none;stroke:url(#SVGID_00000078746910189533611530000009976931727232358052_);stroke-width:7.7464;stroke-linecap:round;stroke-linejoin:round;stroke-miterlimit:10;" points="
		207.2,378.19 298.65,508.63 99.35,539.33 223.12,706.16 507.79,531.87 275.19,222.07 	"/>
	
		<linearGradient id="SVGID_00000114064737379901930100000014070534828553563280_" gradientUnits="userSpaceOnUse" x1="562.4625" y1="831.4202" x2="562.4625" y2="527.9975" gradientTransform="matrix(-1 0 0 1 968.478 0)">
		<stop  offset="0" style="stop-color:#1E85BC"/>
		<stop  offset="1" style="stop-color:#252760"/>
	</linearGradient>
	
		<polyline style="fill:none;stroke:url(#SVGID_00000114064737379901930100000014070534828553563280_);stroke-width:7.7464;stroke-linecap:round;stroke-linejoin:round;stroke-miterlimit:10;" points="
		304.24,827.55 409.03,741.01 507.79,531.87 	"/>
	
		<linearGradient id="SVGID_00000033360202317788647470000011410445146073804197_" gradientUnits="userSpaceOnUse" x1="671.2852" y1="919.1744" x2="671.2852" y2="153.2808" gradientTransform="matrix(-1 0 0 1 968.478 0)">
		<stop  offset="0" style="stop-color:#1E85BC"/>
		<stop  offset="1" style="stop-color:#252760"/>
	</linearGradient>
	
		<polyline style="fill:none;stroke:url(#SVGID_00000033360202317788647470000011410445146073804197_);stroke-width:7.7464;stroke-linecap:round;stroke-linejoin:round;stroke-miterlimit:10;" points="
		475.84,915.3 298.65,833.97 225.06,706.16 101.12,539.62 211.5,414.99 292.84,229.08 493.27,157.15 	"/>
	<path class="st10" d="M467.34,163.04c0,17.65,14.31,31.95,31.95,31.95c17.65,0,31.95-14.31,31.95-31.95
		c0-17.65-14.31-31.95-31.95-31.95C481.64,131.09,467.34,145.4,467.34,163.04z"/>
	<path class="st10" d="M82.94,545.51c0,17.65,14.31,31.95,31.95,31.95c17.65,0,31.95-14.31,31.95-31.95
		c0-17.65-14.31-31.95-31.95-31.95C97.24,513.55,82.94,527.86,82.94,545.51z"/>
	<path class="st10" d="M391.29,734.31c0,12.45,10.09,22.55,22.55,22.55c12.45,0,22.55-10.09,22.55-22.55
		c0-12.45-10.09-22.55-22.55-22.55C401.39,711.77,391.29,721.86,391.29,734.31z"/>
	<circle class="st10" cx="359.84" cy="627.52" r="22.55"/>
	<path class="st10" d="M270.31,231.97c0,12.45,10.09,22.55,22.55,22.55c12.45,0,22.55-10.09,22.55-22.55
		c0-12.45-10.09-22.55-22.55-22.55C280.41,209.43,270.31,219.52,270.31,231.97z"/>
	<path class="st10" d="M198.98,392.33c0,12.45,10.09,22.55,22.55,22.55c12.45,0,22.55-10.09,22.55-22.55
		c0-12.45-10.09-22.55-22.55-22.55C209.07,369.79,198.98,379.88,198.98,392.33z"/>
	<path class="st10" d="M278.98,509.33c0,12.45,10.09,22.55,22.55,22.55c12.45,0,22.55-10.09,22.55-22.55
		c0-12.45-10.09-22.55-22.55-22.55C289.07,486.79,278.98,496.88,278.98,509.33z"/>
	<circle class="st10" cx="223.34" cy="712.05" r="22.55"/>
	<path class="st10" d="M467.86,907.19c0,17.65,14.31,31.95,31.95,31.95c17.65,0,31.95-14.31,31.95-31.95s-14.31-31.95-31.95-31.95
		C482.17,875.24,467.86,889.54,467.86,907.19z"/>
	<path id="XMLID_00000066490283079264875290000007862449727918741384_" class="st1" d="M510.65,485.9l1.47-16.7l1.47,16.7
		c2.06,23.43,20.64,42.01,44.07,44.07l16.7,1.47l-16.7,1.47c-23.43,2.06-42.01,20.64-44.07,44.07l-1.47,16.7l-1.47-16.7
		c-2.06-23.43-20.64-42.01-44.07-44.07l-16.7-1.47l16.7-1.47C490.01,527.91,508.59,509.34,510.65,485.9z"/>
	<path id="XMLID_00000001654172054485884040000013544384155114118537_" class="st1" d="M304.04,800.02l1.08-12.25l1.08,12.25
		c1.51,17.2,15.15,30.83,32.34,32.34l12.25,1.08l-12.25,1.08c-17.2,1.51-30.83,15.15-32.34,32.34l-1.08,12.25l-1.08-12.25
		c-1.51-17.2-15.15-30.83-32.34-32.34l-12.25-1.08l12.25-1.08C288.89,830.85,302.53,817.22,304.04,800.02z"/>
	<path id="XMLID_00000088134910234590512360000005206896498000327054_" class="st1" d="M390.04,336.02l1.08-12.25l1.08,12.25
		c1.51,17.2,15.15,30.83,32.34,32.34l12.25,1.08l-12.25,1.08c-17.2,1.51-30.83,15.15-32.34,32.34l-1.08,12.25l-1.08-12.25
		c-1.51-17.2-15.15-30.83-32.34-32.34l-12.25-1.08l12.25-1.08C374.89,366.85,388.53,353.22,390.04,336.02z"/>
	<g>
		<path id="XMLID_00000170998109860233173090000016102484249707766431_" class="st1" d="M742.75,639.73L951,908.51
			c10.22,12.32,24.23,16.45,36.52,6.2l1.07-0.93c12.39-10.33,10.21-24.17-0.27-36.43L751.45,616.79"/>
		<polyline id="XMLID_00000011709807037725775470000010683803147255217289_" class="st1" points="769.16,634.8 804.92,626.96 
			768.28,596.04 772.98,548.33 732.25,573.62 688.33,554.41 699.8,600.96 667.96,636.79 715.77,640.27 740.01,681.63 753.82,647.72 
			758.4,637.42 		"/>
	</g>
	
		<linearGradient id="SVGID_00000111183071926407486740000005034886836407093417_" gradientUnits="userSpaceOnUse" x1="773.5871" y1="139.0079" x2="773.5871" y2="934.9178">
		<stop  offset="0" style="stop-color:#00ADEE;stop-opacity:0.7"/>
		<stop  offset="0.9438" style="stop-color:#2E3191"/>
	</linearGradient>
	<path style="fill:url(#SVGID_00000111183071926407486740000005034886836407093417_);" d="M979.82,522.44
		c0-49.83-20.92-94.77-54.45-126.51c-19.41-18.4-43.05-32.37-69.31-40.31c0.12-0.65,0.23-1.3,0.34-1.96
		c0.92-5.57,1.42-11.29,1.42-17.12c0-50.32-35.54-92.32-82.88-102.31c-28.83-56.5-87.53-95.22-155.31-95.22
		c-18.22,0-35.78,2.81-52.28,7.99v767.78c24.28,12.84,51.95,20.14,81.33,20.14c67.78,0,126.48-38.71,155.3-95.22
		c19.4-4.09,36.8-13.57,50.6-26.78l-98.46-133.76l-14.6,34.85l-34.97-61.04l-70.11-5.8l47.25-52.12l-16.15-68.47l64.17,28.83
		l60.13-36.52l-7.59,69.94l53.31,45.9l-42.51,9.24l92.07,100.52c-0.12-2.34-0.24-4.71-0.24-7.09c0-19.68-5.44-38.09-14.9-53.81
		C935.27,657.47,979.82,595.17,979.82,522.44z"/>
</g>
</svg>
