<?xml version="1.0" encoding="UTF-8"?>
<svg id="Layer_1" data-name="Layer 1" xmlns="http://www.w3.org/2000/svg" xmlns:xlink="http://www.w3.org/1999/xlink" viewBox="0 0 1940 645.5">
  <defs>
    <style>
      .cls-1 {
        fill: url(#linear-gradient-2);
      }

      .cls-2 {
        fill: url(#linear-gradient-6);
      }

      .cls-3 {
        fill: #00adee;
      }

      .cls-4 {
        fill: url(#linear-gradient-5);
      }

      .cls-5 {
        fill: url(#linear-gradient-7);
      }

      .cls-6 {
        fill: #b0cc5a;
      }

      .cls-7 {
        fill: url(#linear-gradient-3);
      }

      .cls-8 {
        fill: url(#linear-gradient);
      }

      .cls-9 {
        fill: url(#linear-gradient-4);
      }
    </style>
    <linearGradient id="linear-gradient" x1="209.07" y1="380.9" x2="270.28" y2="380.9" gradientUnits="userSpaceOnUse">
      <stop offset="0" stop-color="#5bae52"/>
      <stop offset="1" stop-color="#b0cc5a"/>
    </linearGradient>
    <linearGradient id="linear-gradient-2" x1="237.76" y1="376.02" x2="245.26" y2="376.02" xlink:href="#linear-gradient"/>
    <linearGradient id="linear-gradient-3" x1="250.27" y1="380.51" x2="258.08" y2="380.51" xlink:href="#linear-gradient"/>
    <linearGradient id="linear-gradient-4" x1="225.43" y1="382.91" x2="233.3" y2="382.91" xlink:href="#linear-gradient"/>
    <linearGradient id="linear-gradient-5" x1="79.32" y1="255.5" x2="239.95" y2="255.5" xlink:href="#linear-gradient"/>
    <linearGradient id="linear-gradient-6" x1="73.11" y1="427.73" x2="279.34" y2="198.59" xlink:href="#linear-gradient"/>
    <linearGradient id="linear-gradient-7" x1="96.7" y1="448.95" x2="302.92" y2="219.81" xlink:href="#linear-gradient"/>
  </defs>
  <path class="cls-6" d="m657.03,245.25l-36.75,147.23h-38.62l27.41-109.85h-56.48l-19.52,78.18h-37.07l19.52-78.18h-56.48l-27.41,109.85h-38.62l25.13-100.61c3.39-12.8,10.66-23.81,21.8-33.02,11.9-9.07,24.05-13.6,36.44-13.6h52.64l7.89,25.96,20.77-25.96h99.36Z"/>
  <path class="cls-3" d="m653.4,392.48l25.73-103.06h28.27l-25.73,103.06h-28.27Z"/>
  <path class="cls-3" d="m822.67,351.49l15.41-62.07h28.64l-24.93,100.22h-34.16l-46.37-68.17-17.01,68.17h-28.64l25-100.22h36.99l45.06,62.07Z"/>
  <path class="cls-3" d="m894.55,289.42h79.8c11.77,0,21.37,2.12,28.78,6.36,7.41,4.24,12.43,10.1,15.05,17.59,2.62,7.49,2.71,16.22.29,26.2-1.65,6.49-4.58,12.85-8.79,19.08-4.22,6.23-9.44,11.88-15.66,16.97-6.23,5.09-13.2,9.17-20.93,12.25-7.73,3.08-15.88,4.62-24.46,4.62h-33.22c-6.15,0-11.79-1.17-16.9-3.52-5.11-2.35-9.32-5.73-12.61-10.14-6.64-9.16-8.46-20.13-5.45-32.92l14.1-56.47Zm6.11,81.11h53.27c5.57,0,11-1.43,16.28-4.29,5.28-2.86,9.85-6.61,13.7-11.26,3.85-4.65,6.5-9.81,7.96-15.48,1.89-8.48.58-15.29-3.92-20.42-4.51-5.14-10.93-7.7-19.26-7.7h-53.27l-14.75,59.16Z"/>
  <path class="cls-6" d="m1248.4,245.25l-8.41,33.64h-115.77c-3.39,0-6.71,1.21-9.97,3.63-3.05,2.49-5.02,5.5-5.92,9.03-.83,3.6-.33,6.61,1.51,9.03,1.83,2.42,4.52,3.63,8.05,3.63h81.71c11.63,0,20.9,4.33,27.83,12.98,6.23,8.72,7.85,19.1,4.88,31.15-2.22,8.24-6.14,15.66-11.78,22.27-5.64,6.61-12.3,11.91-19.99,15.88-7.68,3.98-15.61,5.97-23.78,5.97h-124.8l8.41-33.64h121.89c2.84,0,5.52-1,8.05-3.01,2.53-2.01,4.2-4.5,5.04-7.48.62-2.98.19-5.47-1.3-7.48-1.49-2.01-3.69-3.01-6.59-3.01h-81.71c-8.52,0-15.77-2.09-21.75-6.28-5.99-4.19-10.18-9.76-12.56-16.72-2.39-6.96-2.54-14.76-.47-23.41l2.08-8.31-37.9-37.9h213.26Z"/>
  <path class="cls-3" d="m1277.56,359.41l-8.29,33.07h-23.77l25.73-103.06h90.27c6.4,0,12.03,1.39,16.9,4.18,4.87,2.79,8.36,6.78,10.46,11.99,2.11,5.21,2.29,11.47.54,18.79-2.96,11.19-8.02,19.6-15.19,25.22-7.17,5.62-15.41,8.84-24.71,9.67l-71.95.15Zm12.14-48.7l-6.83,27.4h66.28c4.17,0,8.01-1.22,11.52-3.67,3.51-2.45,5.85-5.8,7.01-10.07.97-4.21.3-7.55-2-9.99-2.3-2.45-5.54-3.67-9.7-3.67h-66.28Z"/>
  <path class="cls-3" d="m1537.39,289.42l-5.6,22.68h-93.68l-4.07,16.21h61.49l-5.74,23.18h-61.56l-4.58,18.32h93.76l-5.67,22.68h-74.71c-6.15,0-11.77-1.17-16.86-3.52-5.09-2.35-9.28-5.71-12.57-10.07-6.59-9.16-8.41-20.11-5.45-32.85l14.17-56.62h121.08Z"/>
  <path class="cls-3" d="m1686.74,289.42l-25.66,103.06h-28.93l7.99-32.05h-74.21l-8,32.05h-28.93l16.28-65.34c1.84-7.02,5.15-13.37,9.92-19.04,4.77-5.67,10.44-10.2,17.01-13.59,6.56-3.39,13.31-5.09,20.24-5.09h94.26Zm-114.69,46.51h74.21l5.31-21.3h-74.21l-5.31,21.3Z"/>
  <path class="cls-3" d="m1772.65,359.41h-46.59l-8.29,33.07h-23.77l25.73-103.06h92.37c6.35,0,11.97,1.39,16.86,4.18,4.89,2.79,8.38,6.78,10.47,11.99,2.08,5.21,2.28,11.47.58,18.79-3,11.19-8.08,19.6-15.23,25.22-7.15,5.62-15.37,8.84-24.67,9.67l14.75,33.22h-30.09l-12.14-33.07Zm-34.45-48.7l-6.83,27.4h68.39c4.17,0,8.01-1.22,11.52-3.67,3.51-2.45,5.85-5.8,7.01-10.07.92-4.21.24-7.55-2.03-9.99-2.28-2.45-5.5-3.67-9.67-3.67h-68.39Z"/>
  <g>
    <g>
      <path class="cls-8" d="m239.39,348.21c6.77,0,13.56-.24,20.31.07,5.92.27,10.35,4.91,10.45,10.8.17,10.32.19,20.65-.02,30.97-.14,6.58-5.37,11.57-12.11,11.87-4.64.2-9.3.14-13.94.06-1.58-.03-2.6.51-3.64,1.67-2.53,2.81-5.08,5.62-7.9,8.13-1.19,1.06-3,1.77-4.6,1.94-3.11.34-4.97-1.25-4.81-4.37.24-4.61-.12-7.68-6.05-8.43-4.87-.61-7.76-4.9-7.86-9.96-.21-10.63-.24-21.27.05-31.9.17-6.31,5.04-10.77,11.44-10.95,6.22-.17,12.45-.04,18.67-.04,0,.04,0,.09,0,.13Zm-10.97,59.36c.4.25.8.51,1.19.76.42-.77.7-1.65,1.27-2.28,2.44-2.67,4.86-5.39,7.53-7.82,1.04-.95,2.73-1.57,4.16-1.63,4.48-.2,8.98-.03,13.47-.06,5.49-.04,8.71-3.12,8.76-8.58.07-8.98.05-17.96-.01-26.95-.03-4.58-3.13-7.64-7.78-7.66-11.66-.05-23.32-.06-34.99,0-4.64.02-7.45,2.71-7.49,7.32-.1,9.61-.1,19.23-.02,28.84.04,4.1,2.7,6.67,6.84,6.97.71.05,1.42.03,2.13.06,3.17.15,4.56,1.57,4.67,4.71.07,2.11.18,4.22.28,6.32Z"/>
      <path class="cls-1" d="m245.22,376.36c0,3.54.03,7.08,0,10.61-.03,2.98-1.14,4.34-3.43,4.38-2.66.04-3.91-1.26-3.95-4.42-.07-5.82-.04-11.64-.05-17.46,0-1.65-.08-3.31,0-4.95.13-2.39,1.58-3.87,3.62-3.83,2.33.04,3.75,1.39,3.8,3.88.08,3.93.02,7.86.02,11.79,0,0,0,0-.01,0Z"/>
      <path class="cls-7" d="m258.06,380.31c0,2.21.06,4.42-.01,6.62-.09,2.8-1.59,4.52-3.8,4.52-2.58,0-3.93-1.44-3.96-4.47-.04-4.33-.03-8.67.04-13,.06-3.2,1.31-4.44,4.22-4.4,2.34.03,3.43,1.37,3.49,4.34.04,2.13,0,4.26,0,6.38h.02Z"/>
      <path class="cls-9" d="m233.27,382.68c0,1.57.06,3.15-.01,4.72-.13,2.71-1.48,4.1-3.85,4.11-2.35,0-3.84-1.48-3.91-4.08-.08-3.06-.09-6.13-.02-9.2.06-2.48,1.64-3.92,4.06-3.91,2.39.01,3.62,1.28,3.72,3.88.03.79.02,1.57.02,2.36,0,.71,0,1.42,0,2.12Z"/>
    </g>
    <path class="cls-4" d="m109.58,296.83c.24,11.97-1.75,29.75,13.41,30.58,13.09-.81,11.24-12.23,16.99-22.88,4.2-8.84,12.79-13.95,15.63-15.45,14.63,3.96,30.95-2.38,35.03-18.1,13.92,4.78,34.35-2.46,32.83-19.09,1.66-.02,20.14-11.1,15.81-28.89-2.75-10.7-10.27-16.29-17.75-18.3-6.41-18.02-27.15-26.89-49.54-17.02-8.64-3.92-16.92-4.95-24.68-2.97-4.39,1.11-8.09,3.06-11.13,5.23-.35-.14-.7-.27-1.09-.29-.32-.03-32.75-1.52-40.6,28.44-18.65,6.57-20.01,40.35-4.66,51.73,1.5,1.64,5.54,2.37,5.55,3.86,2.64,13.63,8.62,20.09,14.18,23.14Zm8.45,19.19c-.78-4.65-1.52-10.94-1.39-16.8,1.4.35,4.07.2,4.79.16,1.95-.32,3.29-2.16,2.97-4.11-.31-1.95-2.18-3.28-4.08-2.98-.61.08-12.57,1.39-17.26-17.35,2.24.6,8.93.05,9.53-.1,1.95-.36,3.24-2.23,2.88-4.18-.35-1.95-2.21-3.22-4.17-2.89-9.22,1.61-23.57-2.22-24.52-19.22-2.55-20.54,11.63-27.13,23.6-25.91,4.67.56,5.53-6.54.86-7.13-.3-.03-3.84-.42-8.46.25,5.57-13.83,18.16-17.62,25.77-18.6-1.83,2.25-2.8,3.94-2.9,4.13-2.26,4.08,3.95,7.6,6.27,3.51,7.43-12.74,25.14-19.76,43.78-6.96,3.45,2.22,7.35-2.39,4.54-5.39,13.55-4.71,27.68.52,32.98,11.45-1.12.09-2.2.24-3.2.49-10.91,2.69-15.07,13.4-15.24,13.85-1.63,4.38,5,6.94,6.71,2.54.02-.06,3.05-7.65,10.24-9.42,5.05-1.24,17.23.42,20.58,13.45,2.62,10.2-6.97,17.71-10.17,19.89-.8-2.51-1.66-4.18-1.74-4.33-2.24-4.1-8.54-.7-6.31,3.43,7.55,15.26-4.59,25.02-22.43,20.07-.02-4.9-1.93-9.9-4.81-13.84,10.07-9.21,8.49-22.59-3.7-30.07,1.65-12.05,8.77-13.3,9.09-13.34,4.59-.73,3.66-7.57-.88-7.13-.52.06-11.68,1.58-14.87,16.99-5.5-2.48-16.45-5.32-16.72-9.73-.37-1.95-2.29-3.21-4.2-2.86-1.95.37-3.23,2.25-2.86,4.2,3.25,13.81,23.66,11.73,31.32,22.12,4.4,4.67,1.81,11.01-1.93,14.41-6.79-6.39-14.8-9.76-15.3-9.97-4.34-1.75-7.06,4.83-2.74,6.64.15.06,15.44,6.5,19.46,17.57,3.44,8.49-2.92,21-12.06,23.24-12.8,3.78-29.72-5.72-29.89-5.81-4.09-2.29-7.62,3.88-3.55,6.24.32.18,3.61,2.03,8.45,3.86-8.96,5.39-16.13,19.45-18.68,30.23-1.34,5.08-9.02,4.59-9.79-.58h0Z"/>
    <path class="cls-2" d="m270.43,240.38c-.17-.45-.34-.9-.51-1.35-33.2,30.52-77.66,77.94-121.7,144.95,0,0-41.99-53.04-79.79-53.51,0,0,50.45,45.02,84.78,110.73,0,0,42.88-102.03,121.13-187.93-.13-.53-.26-1.06-.4-1.59-1-3.85-2.16-7.61-3.51-11.28Z"/>
    <path class="cls-5" d="m289.03,173.7s31.21,8.67,43.62,16.24c0,0-17.72,11.17-45.1,35.36.39.86.76,1.73,1.13,2.6,1.34,3.21,2.55,6.46,3.61,9.76,14.22-14.83,29.52-29.02,45.86-41.92,0,0,4.07,18.92-3.31,45.59,0,0,39.69-25.07,45.49-71.16,0,0-38.19-18.56-91.31,3.52Z"/>
    <path class="cls-3" d="m317.54,338.08c-1.34,6.1-5.53,9.45-11.2,11.21-1.71.53-3.51.74-5.25,1.14-2.95.67-3.7,1.92-2.72,4.82.75,2.18,1.84,4.24,2.55,6.43,1.5,4.62.45,8.19-3.39,11.15-1.98,1.53-2.44,2.7-.89,5.02,2.75,4.11,2.02,10.04-2.01,13.31-4.5,3.64-4.79,7.82-3.55,12.85,1.47,5.95,1.44,11.91-1.22,17.59-4.38,9.37-12.27,14.01-22.16,14.02-10.41.02-20.82-1.34-31.23-2.11-3.33-.24-6.66-.53-9.98-.79-8.7-.7-14.07,4.37-17.01,10.76-3.27,7.12-4.06,14.81-4.43,22.53-.11,2.29-.02,4.58-.02,6.98h-11.4c0-1.68-.05-3.28,0-4.88.29-8.15,1.06-16.23,3.33-24.1,2.87-9.96,8.29-17.82,18.28-21.76,6.04-2.38,12.28-1.62,18.52-.95,9.7,1.05,19.4,2.14,29.12,2.97,13.73,1.17,18.74-7.91,16.64-19.11-.56-3-.88-6.11-.82-9.15.07-3.97,2.02-7.14,5.08-9.71,3.17-2.66,3.37-4.12,1.37-7.78-1.06-1.93-3.14-3.94-2.95-5.73.16-1.51,2.97-2.69,4.51-4.13,2.3-2.14,2.77-4.82,1.89-7.77-.78-2.62-1.77-5.19-2.35-7.85-1.27-5.91,1.59-10.54,7.41-12.19,2.22-.63,4.52-.95,6.76-1.5,4.75-1.17,6.21-4.65,3.45-8.68-4.7-6.85-9.73-13.48-14.34-20.39-3.36-5.04-6.44-10.31-9.33-15.64-2.87-5.29-3.05-10.84-1.16-16.65,1.21-3.7,1.78-7.4,1.89-11.09.18-6.01-.85-11.99-2.31-17.94-.13-.53-.27-1.06-.4-1.59-1-3.85-2.16-7.61-3.51-11.28-.17-.46-.34-.9-.51-1.35-3.88-10.19-9.23-19.64-16.56-28.02-14.74-16.85-33.21-27.79-54.74-33.77-16.69-4.64-33.67-6.33-50.89-4.61-27.41,2.75-51.82,12.45-71.74,32.02-2.97,2.91-5.54,6.23-8.46,9.56-1.85-3.87-3.73-7.69-5.46-11.58-.2-.45.25-1.42.68-1.88,12.26-13.19,26.77-23.15,43.46-29.92,20.25-8.21,41.38-11.43,63.12-10.32,21.48,1.09,41.95,6.32,60.88,16.73,18.3,10.06,32.65,24.27,43.03,42.38,2.11,3.68,4.01,7.44,5.71,11.26.39.86.76,1.73,1.13,2.6,1.34,3.21,2.54,6.46,3.6,9.77,1.85,5.75,3.27,11.64,4.23,17.67.18,1.12.35,2.24.49,3.37.92,6.91.91,13.84-2.74,20.25-2.48,4.36-.71,8.37,1.71,12.01,4.93,7.42,10.06,14.7,15.13,22.02,2.64,3.8,5.42,7.5,7.98,11.35,2.5,3.75,3.75,7.9,2.75,12.45Z"/>
    <circle class="cls-3" cx="200.77" cy="494.4" r="15.6"/>
  </g>
</svg>