<?xml version="1.0" encoding="UTF-8"?>
<svg id="Layer_1" data-name="Layer 1" xmlns="http://www.w3.org/2000/svg" xmlns:xlink="http://www.w3.org/1999/xlink" viewBox="0 0 1940 645.5">
  <defs>
    <style>
      .cls-1 {
        fill: url(#linear-gradient-2);
      }

      .cls-2 {
        fill: #f79945;
      }

      .cls-3 {
        fill: #b174b0;
      }

      .cls-4 {
        fill: url(#linear-gradient-5);
      }

      .cls-5 {
        fill: url(#linear-gradient-3);
      }

      .cls-6 {
        fill: url(#linear-gradient);
      }

      .cls-7 {
        fill: url(#linear-gradient-4);
      }
    </style>
    <linearGradient id="linear-gradient" x1="125.24" y1="239.35" x2="258.19" y2="239.35" gradientUnits="userSpaceOnUse">
      <stop offset="0" stop-color="#ed3477"/>
      <stop offset=".51" stop-color="#f69944"/>
    </linearGradient>
    <linearGradient id="linear-gradient-2" x1="120.11" y1="381.9" x2="290.79" y2="192.25" gradientUnits="userSpaceOnUse">
      <stop offset="0" stop-color="#3f63ad"/>
      <stop offset="1" stop-color="#b174b0"/>
    </linearGradient>
    <linearGradient id="linear-gradient-3" x1="139.63" y1="399.47" x2="310.31" y2="209.82" xlink:href="#linear-gradient-2"/>
    <linearGradient id="linear-gradient-4" x1="221" y1="157.6" x2="214.08" y2="419.2" xlink:href="#linear-gradient"/>
    <linearGradient id="linear-gradient-5" x1="225.77" y1="424.18" x2="225.77" y2="450" xlink:href="#linear-gradient"/>
  </defs>
  <g>
    <path class="cls-2" d="m657.03,200.25l-36.75,147.23h-38.62l27.41-109.85h-56.48l-19.52,78.18h-37.07l19.52-78.18h-56.48l-27.41,109.85h-38.62l25.13-100.61c3.39-12.8,10.66-23.81,21.8-33.02,11.9-9.07,24.05-13.6,36.44-13.6h52.64l7.89,25.96,20.77-25.96h99.36Z"/>
    <path class="cls-3" d="m653.4,347.48l25.73-103.06h28.27l-25.73,103.06h-28.27Z"/>
    <path class="cls-3" d="m822.67,306.49l15.41-62.07h28.64l-24.93,100.22h-34.16l-46.37-68.17-17.01,68.17h-28.64l25-100.22h36.99l45.06,62.07Z"/>
    <path class="cls-3" d="m894.55,244.42h79.8c11.77,0,21.37,2.12,28.78,6.36,7.41,4.24,12.43,10.1,15.05,17.59,2.62,7.49,2.71,16.22.29,26.2-1.65,6.49-4.58,12.85-8.79,19.08-4.22,6.23-9.44,11.88-15.66,16.97-6.23,5.09-13.2,9.17-20.93,12.25-7.73,3.08-15.88,4.62-24.46,4.62h-33.22c-6.15,0-11.79-1.17-16.9-3.52-5.11-2.35-9.32-5.73-12.61-10.14-6.64-9.16-8.46-20.13-5.45-32.92l14.1-56.47Zm6.11,81.11h53.27c5.57,0,11-1.43,16.28-4.29,5.28-2.86,9.85-6.61,13.7-11.26,3.85-4.65,6.5-9.81,7.96-15.48,1.89-8.48.58-15.29-3.92-20.42-4.51-5.14-10.93-7.7-19.26-7.7h-53.27l-14.75,59.16Z"/>
    <path class="cls-2" d="m1248.4,200.25l-8.41,33.64h-115.77c-3.39,0-6.71,1.21-9.97,3.63-3.05,2.49-5.02,5.5-5.92,9.03-.83,3.6-.33,6.61,1.51,9.03,1.83,2.42,4.52,3.63,8.05,3.63h81.71c11.63,0,20.9,4.33,27.83,12.98,6.23,8.72,7.85,19.1,4.88,31.15-2.22,8.24-6.14,15.66-11.78,22.27-5.64,6.61-12.3,11.91-19.99,15.88-7.68,3.98-15.61,5.97-23.78,5.97h-124.8l8.41-33.64h121.89c2.84,0,5.52-1,8.05-3.01,2.53-2.01,4.2-4.5,5.04-7.48.62-2.98.19-5.47-1.3-7.48-1.49-2.01-3.69-3.01-6.59-3.01h-81.71c-8.52,0-15.77-2.09-21.75-6.28-5.99-4.19-10.18-9.76-12.56-16.72-2.39-6.96-2.54-14.76-.47-23.41l2.08-8.31-37.9-37.9h213.26Z"/>
    <path class="cls-3" d="m1277.56,314.41l-8.29,33.07h-23.77l25.73-103.06h90.27c6.4,0,12.03,1.39,16.9,4.18,4.87,2.79,8.36,6.78,10.46,11.99,2.11,5.21,2.29,11.47.54,18.79-2.96,11.19-8.02,19.6-15.19,25.22-7.17,5.62-15.41,8.84-24.71,9.67l-71.95.15Zm12.14-48.7l-6.83,27.4h66.28c4.17,0,8.01-1.22,11.52-3.67,3.51-2.45,5.85-5.8,7.01-10.07.97-4.21.3-7.55-2-9.99-2.3-2.45-5.54-3.67-9.7-3.67h-66.28Z"/>
    <path class="cls-3" d="m1537.39,244.42l-5.6,22.68h-93.68l-4.07,16.21h61.49l-5.74,23.18h-61.56l-4.58,18.32h93.76l-5.67,22.68h-74.71c-6.15,0-11.77-1.17-16.86-3.52-5.09-2.35-9.28-5.71-12.57-10.07-6.59-9.16-8.41-20.11-5.45-32.85l14.17-56.62h121.08Z"/>
    <path class="cls-3" d="m1686.74,244.42l-25.66,103.06h-28.93l7.99-32.05h-74.21l-8,32.05h-28.93l16.28-65.34c1.84-7.02,5.15-13.37,9.92-19.04,4.77-5.67,10.44-10.2,17.01-13.59,6.56-3.39,13.31-5.09,20.24-5.09h94.26Zm-114.69,46.51h74.21l5.31-21.3h-74.21l-5.31,21.3Z"/>
    <path class="cls-3" d="m1772.65,314.41h-46.59l-8.29,33.07h-23.77l25.73-103.06h92.37c6.35,0,11.97,1.39,16.86,4.18,4.89,2.79,8.38,6.78,10.47,11.99,2.08,5.21,2.28,11.47.58,18.79-3,11.19-8.08,19.6-15.23,25.22-7.15,5.62-15.37,8.84-24.67,9.67l14.75,33.22h-30.09l-12.14-33.07Zm-34.45-48.7l-6.83,27.4h68.39c4.17,0,8.01-1.22,11.52-3.67,3.51-2.45,5.85-5.8,7.01-10.07.92-4.21.24-7.55-2.03-9.99-2.28-2.45-5.5-3.67-9.67-3.67h-68.39Z"/>
  </g>
  <g>
    <g>
      <path class="cls-2" d="m257.73,316.09c5.61,0,11.22-.19,16.81.06,4.9.22,8.57,4.06,8.65,8.94.14,8.54.16,17.09-.01,25.63-.11,5.45-4.45,9.58-10.02,9.82-3.84.17-7.7.12-11.54.05-1.31-.02-2.15.42-3.01,1.38-2.09,2.33-4.21,4.65-6.53,6.73-.98.88-2.48,1.46-3.81,1.61-2.58.28-4.11-1.04-3.98-3.61.2-3.81-.1-6.35-5.01-6.97-4.03-.51-6.42-4.06-6.5-8.24-.17-8.8-.2-17.61.04-26.4.14-5.22,4.17-8.91,9.47-9.06,5.15-.14,10.3-.03,15.46-.03,0,.04,0,.07,0,.11Zm-9.08,49.13c.33.21.66.42.99.63.34-.63.58-1.37,1.05-1.89,2.02-2.21,4.02-4.47,6.23-6.47.86-.78,2.26-1.3,3.44-1.35,3.71-.16,7.43-.02,11.15-.05,4.55-.03,7.21-2.58,7.25-7.1.06-7.43.04-14.87-.01-22.3-.02-3.79-2.59-6.32-6.44-6.34-9.65-.04-19.3-.05-28.96,0-3.84.02-6.16,2.24-6.2,6.06-.08,7.96-.08,15.91-.01,23.87.03,3.4,2.24,5.52,5.66,5.77.58.04,1.17.02,1.76.05,2.63.13,3.77,1.3,3.86,3.9.06,1.75.15,3.49.23,5.23Z"/>
      <path class="cls-2" d="m262.56,339.39c0,2.93.02,5.86,0,8.79-.03,2.47-.94,3.59-2.84,3.62-2.2.03-3.23-1.04-3.27-3.66-.06-4.82-.03-9.63-.04-14.45,0-1.37-.07-2.74,0-4.1.11-1.98,1.31-3.2,2.99-3.17,1.93.03,3.1,1.15,3.14,3.21.06,3.25.02,6.51.02,9.76,0,0,0,0,0,0Z"/>
      <path class="cls-2" d="m273.18,342.65c0,1.83.05,3.65-.01,5.48-.08,2.31-1.32,3.74-3.14,3.75-2.14,0-3.25-1.19-3.28-3.7-.04-3.59-.03-7.18.03-10.76.05-2.65,1.09-3.68,3.49-3.64,1.94.03,2.84,1.13,2.89,3.6.03,1.76,0,3.52,0,5.28h.01Z"/>
      <path class="cls-2" d="m252.67,344.62c0,1.3.05,2.6-.01,3.9-.11,2.24-1.22,3.39-3.19,3.4-1.94,0-3.18-1.22-3.24-3.37-.07-2.54-.08-5.08-.02-7.61.05-2.05,1.36-3.24,3.36-3.23,1.98,0,2.99,1.06,3.08,3.21.03.65.01,1.3.02,1.95,0,.59,0,1.17,0,1.76Z"/>
    </g>
    <path class="cls-6" d="m150.29,273.56c.2,9.91-1.45,24.62,11.1,25.31,10.84-.67,9.31-10.12,14.07-18.94,3.48-7.32,10.59-11.54,12.94-12.79,12.11,3.28,25.62-1.97,29-14.98,11.52,3.96,28.43-2.04,27.17-15.8,1.38-.01,16.67-9.19,13.08-23.91-2.27-8.86-8.5-13.48-14.69-15.15-5.31-14.91-22.47-22.25-41-14.08-7.15-3.24-14.01-4.09-20.43-2.46-3.63.92-6.7,2.53-9.21,4.33-.29-.11-.58-.22-.9-.24-.27-.02-27.1-1.26-33.6,23.54-15.43,5.43-16.57,33.4-3.85,42.82,1.24,1.36,4.58,1.96,4.6,3.2,2.19,11.28,7.14,16.63,11.74,19.15Zm6.99,15.89c-.64-3.85-1.26-9.05-1.15-13.91,1.16.29,3.37.16,3.96.13,1.62-.26,2.72-1.79,2.46-3.41-.26-1.61-1.8-2.72-3.37-2.47-.5.07-10.4,1.15-14.29-14.36,1.85.49,7.39.04,7.89-.08,1.62-.3,2.69-1.84,2.39-3.46-.29-1.61-1.83-2.67-3.45-2.39-7.63,1.33-19.51-1.84-20.3-15.91-2.11-17,9.63-22.46,19.53-21.45,3.86.47,4.58-5.42.71-5.9-.25-.03-3.18-.35-7,.21,4.61-11.44,15.03-14.58,21.33-15.4-1.51,1.86-2.32,3.26-2.4,3.42-1.87,3.38,3.27,6.29,5.19,2.9,6.15-10.55,20.81-16.36,36.24-5.76,2.85,1.84,6.08-1.97,3.76-4.46,11.21-3.9,22.91.43,27.3,9.47-.93.07-1.82.2-2.65.4-9.03,2.23-12.47,11.09-12.61,11.47-1.35,3.63,4.14,5.74,5.56,2.1.02-.05,2.53-6.33,8.48-7.8,4.18-1.03,14.26.35,17.03,11.13,2.16,8.44-5.77,14.65-8.42,16.46-.66-2.07-1.37-3.46-1.44-3.59-1.85-3.4-7.07-.58-5.22,2.84,6.25,12.63-3.8,20.71-18.57,16.62-.01-4.06-1.6-8.2-3.98-11.46,8.34-7.62,7.03-18.7-3.06-24.89,1.37-9.97,7.26-11,7.52-11.04,3.8-.6,3.03-6.26-.73-5.9-.43.05-9.67,1.31-12.31,14.06-4.55-2.05-13.62-4.4-13.84-8.06-.31-1.62-1.89-2.66-3.47-2.37-1.61.31-2.67,1.86-2.37,3.47,2.69,11.43,19.58,9.71,25.92,18.31,3.64,3.87,1.5,9.11-1.59,11.93-5.62-5.29-12.25-8.08-12.66-8.25-3.6-1.45-5.85,3.99-2.26,5.5.13.05,12.78,5.38,16.11,14.54,2.85,7.03-2.42,17.38-9.98,19.24-10.59,3.13-24.6-4.73-24.74-4.81-3.39-1.9-6.3,3.21-2.94,5.17.27.15,2.99,1.68,7,3.19-7.41,4.46-13.35,16.1-15.46,25.02-1.11,4.21-7.46,3.8-8.11-.48h0Z"/>
    <path class="cls-1" d="m283.42,226.84c-.14-.38-.28-.75-.42-1.12-27.48,25.26-64.28,64.51-100.73,119.97,0,0-34.75-43.9-66.04-44.29,0,0,41.76,37.26,70.17,91.65,0,0,35.49-84.45,100.25-155.55-.11-.44-.22-.88-.33-1.32-.82-3.18-1.79-6.3-2.9-9.34Z"/>
    <path class="cls-5" d="m298.81,171.65s25.83,7.17,36.1,13.44c0,0-14.67,9.25-37.33,29.26.32.72.63,1.43.93,2.15,1.11,2.65,2.11,5.35,2.98,8.08,11.77-12.27,24.43-24.02,37.96-34.7,0,0,3.37,15.66-2.74,37.74,0,0,32.85-20.75,37.66-58.9,0,0-31.61-15.36-75.58,2.92Z"/>
    <path class="cls-7" d="m322.42,307.7c-1.11,5.05-4.57,7.82-9.27,9.28-1.41.44-2.9.61-4.35.94-2.44.56-3.07,1.59-2.25,3.99.62,1.8,1.53,3.51,2.11,5.32,1.24,3.83.37,6.78-2.81,9.23-1.64,1.27-2.02,2.23-.74,4.15,2.27,3.4,1.67,8.31-1.66,11.01-3.73,3.02-3.97,6.47-2.94,10.63,1.22,4.93,1.19,9.86-1.01,14.56-3.63,7.76-10.16,11.59-18.34,11.6-8.61.01-17.23-1.11-25.85-1.74-2.76-.2-5.51-.44-8.26-.66-7.2-.58-11.65,3.61-14.08,8.91-2.71,5.9-3.36,12.25-3.67,18.65-.09,1.89-.01,3.79-.01,5.77h-9.43c0-1.39-.04-2.72,0-4.04.24-6.74.87-13.43,2.76-19.95,2.38-8.25,6.86-14.75,15.13-18.01,5-1.97,10.17-1.34,15.33-.79,8.03.87,16.06,1.77,24.1,2.46,11.36.97,15.51-6.55,13.77-15.82-.47-2.48-.73-5.05-.68-7.57.06-3.28,1.67-5.91,4.2-8.03,2.62-2.2,2.79-3.41,1.13-6.44-.87-1.6-2.6-3.26-2.44-4.74.13-1.25,2.46-2.23,3.73-3.42,1.91-1.77,2.29-3.99,1.56-6.43-.65-2.17-1.47-4.3-1.95-6.5-1.05-4.89,1.31-8.73,6.13-10.09,1.83-.52,3.74-.79,5.59-1.24,3.93-.97,5.14-3.85,2.85-7.18-3.89-5.67-8.05-11.16-11.87-16.87-2.78-4.17-5.33-8.53-7.72-12.94-2.38-4.38-2.53-8.98-.96-13.78,1-3.06,1.47-6.12,1.56-9.18.15-4.97-.7-9.92-1.91-14.85-.11-.44-.22-.88-.33-1.32-.82-3.18-1.79-6.3-2.9-9.34-.14-.38-.28-.75-.42-1.12-3.21-8.43-7.64-16.25-13.7-23.19-12.2-13.94-27.49-23-45.3-27.95-13.82-3.84-27.86-5.24-42.12-3.82-22.69,2.27-42.89,10.31-59.37,26.5-2.46,2.41-4.58,5.16-7.01,7.91-1.53-3.2-3.09-6.37-4.52-9.59-.16-.37.21-1.17.57-1.56,10.15-10.92,22.16-19.16,35.97-24.76,16.76-6.8,34.25-9.46,52.24-8.55,17.78.9,34.72,5.23,50.39,13.85,15.15,8.32,27.03,20.08,35.61,35.08,1.74,3.05,3.32,6.16,4.73,9.32.32.71.63,1.43.94,2.15,1.11,2.65,2.11,5.35,2.98,8.08,1.53,4.76,2.7,9.63,3.5,14.63.15.93.29,1.85.41,2.79.76,5.72.75,11.46-2.27,16.76-2.06,3.61-.59,6.93,1.42,9.94,4.08,6.14,8.32,12.17,12.52,18.23,2.18,3.14,4.48,6.21,6.6,9.4,2.07,3.11,3.1,6.54,2.28,10.3Z"/>
    <circle class="cls-4" cx="225.77" cy="437.09" r="12.91"/>
  </g>
</svg>